<svg viewBox="0 0 490.32 409.17" xmlns="http://www.w3.org/2000/svg" xmlns:xlink="http://www.w3.org/1999/xlink"><pattern id="a" height="72" patternTransform="matrix(.25455844 -.25455844 .25455844 .25455844 48.309776 -22.939883)" patternUnits="userSpaceOnUse" viewBox="0 0 72 72" width="72"><path d="m0 0h72v72h-72z" fill="none"/><path d="m71.75 66h72.5m-72.5-24h72.5m-72.5-24h72.5m-72.5 36h72.5m-72.5-24h72.5m-72.5-24h72.5" fill="none" stroke="#fff" stroke-width="4.8"/><path d="m-.25 66h72.5m-72.5-24h72.5m-72.5-24h72.5m-72.5 36h72.5m-72.5-24h72.5m-72.5-24h72.5" fill="none" stroke="#fff" stroke-width="4.8"/><path d="m-72.25 66h72.5m-72.5-24h72.5m-72.5-24h72.5m-72.5 36h72.5m-72.5-24h72.5m-72.5-24h72.5" fill="none" stroke="#fff" stroke-width="4.8"/></pattern><path d="m0 237.15h238.15v40.12h-238.15z" fill="#dbdcdd"/><rect fill="#efefef" height="31.99" rx=".02" width="173.35" x="284.4" y="277.27"/><path d="m345.13 296.74.55-.7a3 3 0 0 0 2.3 1.06c1.31 0 1.73-.7 1.73-1.28 0-1.89-4.35-.84-4.35-3.46 0-1.21 1.08-2 2.53-2a3.45 3.45 0 0 1 2.6 1l-.55.67a2.77 2.77 0 0 0 -2.12-.88c-.87 0-1.51.47-1.51 1.17 0 1.65 4.35.7 4.35 3.44 0 1.06-.73 2.16-2.71 2.16a3.65 3.65 0 0 1 -2.82-1.18zm6.54-1.63a2.66 2.66 0 0 1 2.62-2.78 2.58 2.58 0 0 1 2.55 2.85v.21h-4.29a1.86 1.86 0 0 0 1.9 1.84 2.31 2.31 0 0 0 1.65-.68l.4.54a2.93 2.93 0 0 1 -2.11.83 2.64 2.64 0 0 1 -2.72-2.81zm2.61-2.1a1.77 1.77 0 0 0 -1.74 1.76h3.49a1.72 1.72 0 0 0 -1.7-1.76zm3.89 4.76v-5.31h.83v.85a2.29 2.29 0 0 1 1.77-1v.85h-.32a1.94 1.94 0 0 0 -1.45.85v3.76zm5.05 0-2.21-5.31h.9l1.76 4.36 1.77-4.36h.89l-2.21 5.31zm3.97 0v-7.38h.83v7.34zm2.14-2.66a2.66 2.66 0 0 1 2.62-2.78 2.58 2.58 0 0 1 2.55 2.85v.21h-4.29a1.86 1.86 0 0 0 1.9 1.84 2.31 2.31 0 0 0 1.65-.68l.4.54a2.93 2.93 0 0 1 -2.11.83 2.64 2.64 0 0 1 -2.72-2.81zm2.61-2.1a1.77 1.77 0 0 0 -1.74 1.76h3.49a1.72 1.72 0 0 0 -1.72-1.76zm4.09 3.65v-3.48h-.88v-.73h.88v-1.45h.84v1.45h1.08v.73h-1.08v3.3c0 .4.18.68.53.68a.78.78 0 0 0 .56-.23l.24.63a1.34 1.34 0 0 1 -1 .34 1.09 1.09 0 0 1 -1.17-1.24zm11.18 1.11-.65-1.64h-3.65l-.65 1.64h-1l3-7.34h1.07l2.95 7.34zm-2.47-6.4-1.55 4h3.14zm4.47 6.4v-7.38h2.95a2.21 2.21 0 1 1 0 4.42h-2v2.92zm4.3-5.13a1.36 1.36 0 0 0 -1.46-1.4h-1.92v2.79h1.92a1.36 1.36 0 0 0 1.47-1.38zm2.16 5.13v-7.38h.91v7.34z"/><path d="m252.76 363.87h236.64v44.8h-236.64z" fill="#fff"/><path d="m488.89 364.39v43.8h-235.63v-43.8zm1-1h-237.56v45.75h237.54v-45.75z" fill="#ccc"/><path d="m252.76 329.43h236.64v35.44h-236.64z" fill="#fff"/><path d="m488.89 329.93v34.46h-235.63v-34.46zm1-1h-237.61v36.46h237.6v-36.4z" fill="#ccc"/><path d="m238.15 121.17h-238.15v117.54h99.44l19.64 10.36 19.63-10.36h99.44z" fill="#e4f3de"/><path d="m338.8 350.74.92-1.3a3.51 3.51 0 0 0 2.54 1.08c.94 0 1.39-.43 1.39-.89 0-1.42-4.61-.44-4.61-3.45 0-1.33 1.15-2.43 3-2.43a4.45 4.45 0 0 1 3.12 1.12l-.95 1.25a3.44 3.44 0 0 0 -2.33-.88c-.73 0-1.14.32-1.14.8 0 1.27 4.59.42 4.59 3.41 0 1.46-1 2.57-3.2 2.57a4.56 4.56 0 0 1 -3.33-1.28zm9.22.38v3h-1.52v-8h1.52v.73a2.24 2.24 0 0 1 1.79-.87c1.49 0 2.57 1.1 2.57 3s-1.08 3-2.57 3a2.21 2.21 0 0 1 -1.79-.86zm2.77-2.16a1.5 1.5 0 0 0 -1.46-1.68 1.7 1.7 0 0 0 -1.31.66v2.05a1.74 1.74 0 0 0 1.31.66 1.51 1.51 0 0 0 1.46-1.69zm2.71 2.9v-5.79h1.52v.79a2.49 2.49 0 0 1 1.85-.94v1.47a2 2 0 0 0 -.42 0 1.94 1.94 0 0 0 -1.43.66v3.83zm4.16-7.32a.91.91 0 1 1 .91.91.92.92 0 0 1 -.91-.91zm.16 7.33v-5.79h1.51v5.79zm6.94-.01v-3.47a.94.94 0 0 0 -1.07-1.08 1.65 1.65 0 0 0 -1.32.68v3.9h-1.52v-5.79h1.48v.76a2.65 2.65 0 0 1 2-.9 1.68 1.68 0 0 1 1.88 1.85v4.09zm2.92 1.53.68-1.1a2.3 2.3 0 0 0 1.81.72 1.42 1.42 0 0 0 1.59-1.46v-.59a2.26 2.26 0 0 1 -1.79.91c-1.45 0-2.55-1-2.55-3s1.09-3 2.55-3a2.23 2.23 0 0 1 1.79.89v-.74h1.57v5.4c0 2.21-1.7 2.75-3.13 2.75a3.51 3.51 0 0 1 -2.52-.78zm4.09-3.54v-1.87a1.65 1.65 0 0 0 -1.31-.66 1.6 1.6 0 0 0 0 3.19 1.69 1.69 0 0 0 1.31-.7zm13.11 2.01v-5.6l-2.25 5.6h-.74l-2.25-5.6v5.6h-1.7v-8h2.39l1.94 4.83 1.94-4.83h2.4v8zm5.55 0-3.09-8h1.94l2.22 6.15 2.21-6.15h1.94l-3.08 8zm5.34-3.99a4.07 4.07 0 0 1 4.26-4.14 3.66 3.66 0 0 1 3.35 2l-1.46.72a2.17 2.17 0 0 0 -1.88-1.16 2.63 2.63 0 0 0 0 5.25 2.14 2.14 0 0 0 1.88-1.16l1.46.71a3.68 3.68 0 0 1 -3.35 2 4.06 4.06 0 0 1 -4.26-4.22zm-91.77 33.9.92-1.3a3.51 3.51 0 0 0 2.54 1.08c.94 0 1.39-.43 1.39-.89 0-1.42-4.61-.44-4.61-3.45 0-1.33 1.15-2.43 3-2.43a4.45 4.45 0 0 1 3.12 1.12l-.95 1.25a3.44 3.44 0 0 0 -2.33-.88c-.73 0-1.14.32-1.14.8 0 1.27 4.59.42 4.59 3.41 0 1.46-1 2.57-3.2 2.57a4.56 4.56 0 0 1 -3.33-1.28zm9.22.39v3h-1.52v-8h1.52v.73a2.24 2.24 0 0 1 1.79-.87c1.49 0 2.57 1.1 2.57 3s-1.08 3-2.57 3a2.21 2.21 0 0 1 -1.79-.86zm2.77-2.16a1.5 1.5 0 0 0 -1.46-1.68 1.7 1.7 0 0 0 -1.31.66v2.05a1.74 1.74 0 0 0 1.31.66 1.51 1.51 0 0 0 1.46-1.69zm2.71 2.9v-5.79h1.52v.79a2.49 2.49 0 0 1 1.85-.94v1.49a2 2 0 0 0 -.42 0 1.94 1.94 0 0 0 -1.43.66v3.83zm4.16-7.33a.91.91 0 1 1 .91.91.92.92 0 0 1 -.91-.91zm.16 7.33v-5.79h1.52v5.79zm6.94 0v-3.51a.94.94 0 0 0 -1.07-1.08 1.65 1.65 0 0 0 -1.32.68v3.9h-1.52v-5.79h1.52v.76a2.65 2.65 0 0 1 2-.9 1.68 1.68 0 0 1 1.88 1.85v4.09zm2.92 1.49.68-1.1a2.3 2.3 0 0 0 1.81.72 1.42 1.42 0 0 0 1.59-1.46v-.59a2.26 2.26 0 0 1 -1.79.91c-1.45 0-2.55-1-2.55-3s1.09-3 2.55-3a2.23 2.23 0 0 1 1.79.89v-.74h1.54v5.4c0 2.21-1.7 2.75-3.13 2.75a3.51 3.51 0 0 1 -2.49-.78zm4.09-3.54v-1.87a1.65 1.65 0 0 0 -1.31-.66 1.6 1.6 0 0 0 0 3.19 1.69 1.69 0 0 0 1.31-.66zm6.16 2.05v-8h3.2a4 4 0 1 1 0 8zm5.66-4a2.34 2.34 0 0 0 -2.46-2.51h-1.5v5h1.5a2.4 2.4 0 0 0 2.46-2.49zm6.39 4v-.6a2.4 2.4 0 0 1 -1.83.74 1.93 1.93 0 0 1 -2-1.92 1.85 1.85 0 0 1 2-1.87 2.38 2.38 0 0 1 1.83.71v-.78c0-.59-.5-1-1.27-1a2.43 2.43 0 0 0 -1.69.68l-.58-1a3.8 3.8 0 0 1 2.53-.91c1.32 0 2.53.53 2.53 2.19v3.74zm0-1.39v-.72a1.53 1.53 0 0 0 -1.22-.5c-.6 0-1.09.31-1.09.88s.49.85 1.09.85a1.52 1.52 0 0 0 1.22-.51zm3.34-.05v-3h-1v-1.33h1v-1.58h1.54v1.58h1.18v1.26h-1.18v2.62c0 .36.19.64.53.64a.83.83 0 0 0 .53-.17l.32 1.15a1.88 1.88 0 0 1 -1.27.37 1.45 1.45 0 0 1 -1.65-1.54zm7.24 1.44v-.6a2.4 2.4 0 0 1 -1.83.74 1.93 1.93 0 0 1 -2-1.92 1.85 1.85 0 0 1 2-1.87 2.38 2.38 0 0 1 1.83.71v-.78c0-.59-.5-1-1.27-1a2.43 2.43 0 0 0 -1.69.68l-.58-1a3.8 3.8 0 0 1 2.53-.91c1.32 0 2.53.53 2.53 2.19v3.74zm0-1.39v-.72a1.53 1.53 0 0 0 -1.22-.5c-.6 0-1.09.31-1.09.88s.49.85 1.09.85a1.52 1.52 0 0 0 1.22-.51zm10.66 1.39-1.57-2.84h-1.25v2.84h-1.7v-8h3.74a2.49 2.49 0 0 1 2.69 2.58 2.3 2.3 0 0 1 -1.75 2.38l1.8 3zm.17-5.42a1.09 1.09 0 0 0 -1.2-1.08h-1.79v2.16h1.79a1.09 1.09 0 0 0 1.2-1.08zm2.26 2.52a3 3 0 0 1 3-3 2.9 2.9 0 0 1 2.9 3.19v.33h-4.31a1.56 1.56 0 0 0 1.67 1.34 2.47 2.47 0 0 0 1.55-.58l.67 1a3.61 3.61 0 0 1 -2.39.8 2.93 2.93 0 0 1 -3.09-3.08zm3-1.82a1.39 1.39 0 0 0 -1.43 1.28h2.85a1.34 1.34 0 0 0 -1.42-1.29zm5.53 3.98v3h-1.52v-8h1.52v.73a2.24 2.24 0 0 1 1.79-.87c1.49 0 2.57 1.1 2.57 3s-1.08 3-2.57 3a2.21 2.21 0 0 1 -1.79-.86zm2.77-2.16a1.5 1.5 0 0 0 -1.46-1.68 1.7 1.7 0 0 0 -1.31.66v2.05a1.74 1.74 0 0 0 1.31.66 1.51 1.51 0 0 0 1.46-1.69zm2.33 0a3.06 3.06 0 1 1 3.06 3 2.93 2.93 0 0 1 -3.06-3zm4.55 0a1.49 1.49 0 1 0 -1.49 1.69 1.53 1.53 0 0 0 1.49-1.69zm2.21 2.14.66-1.07a3.31 3.31 0 0 0 2 .79c.66 0 1-.26 1-.62 0-1-3.44-.18-3.44-2.46 0-1 .85-1.82 2.37-1.82a3.7 3.7 0 0 1 2.34.79l-.61 1a2.44 2.44 0 0 0 -1.71-.67c-.55 0-.91.25-.91.58 0 .86 3.43.14 3.43 2.48 0 1.06-.9 1.86-2.51 1.86a3.9 3.9 0 0 1 -2.62-.86zm6.09-6.57a.91.91 0 1 1 .91.91.92.92 0 0 1 -.91-.91zm.16 7.33v-5.79h1.52v5.79zm3.31-1.44v-3h-1v-1.33h1v-1.58h1.53v1.58h1.18v1.26h-1.18v2.62c0 .36.19.64.53.64a.83.83 0 0 0 .53-.17l.32 1.15a1.88 1.88 0 0 1 -1.27.37 1.45 1.45 0 0 1 -1.64-1.54zm3.39-1.46a3.06 3.06 0 1 1 3.06 3 2.93 2.93 0 0 1 -3.06-3zm4.54 0a1.49 1.49 0 1 0 -1.49 1.69 1.53 1.53 0 0 0 1.49-1.69zm2.72 2.9v-5.79h1.52v.79a2.49 2.49 0 0 1 1.85-.94v1.49a2 2 0 0 0 -.42 0 1.94 1.94 0 0 0 -1.43.66v3.83zm4.16-7.33a.91.91 0 1 1 .91.91.92.92 0 0 1 -.91-.91zm.16 7.33v-5.79h1.56v5.79zm2.66-2.9a3 3 0 0 1 3-3 2.9 2.9 0 0 1 2.9 3.19v.33h-4.3a1.56 1.56 0 0 0 1.67 1.34 2.47 2.47 0 0 0 1.55-.58l.67 1a3.61 3.61 0 0 1 -2.39.8 2.93 2.93 0 0 1 -3.1-3.08zm3-1.82a1.39 1.39 0 0 0 -1.43 1.28h2.85a1.34 1.34 0 0 0 -1.42-1.29zm3.5 3.96.66-1.07a3.31 3.31 0 0 0 2 .79c.66 0 1-.26 1-.62 0-1-3.44-.18-3.44-2.46 0-1 .85-1.82 2.37-1.82a3.7 3.7 0 0 1 2.34.79l-.61 1a2.44 2.44 0 0 0 -1.71-.67c-.55 0-.91.25-.91.58 0 .86 3.43.14 3.43 2.48 0 1.06-.9 1.86-2.51 1.86a3.9 3.9 0 0 1 -2.62-.86zm-102.87 13.11.44-.63a1.56 1.56 0 0 0 1.25.66 1.29 1.29 0 0 0 1.34-1.4v-4.65h.83v4.66a2 2 0 0 1 -2.12 2.13 2.15 2.15 0 0 1 -1.74-.77zm5.42.65v-6.67h2.28a3.335 3.335 0 1 1 0 6.67zm4.84-3.33a2.44 2.44 0 0 0 -2.56-2.6h-1.43v5.19h1.45a2.45 2.45 0 0 0 2.55-2.59zm2.16 3.33v-6.67h3a1.68 1.68 0 0 1 1.87 1.7 1.51 1.51 0 0 1 -1.17 1.53 1.67 1.67 0 0 1 1.3 1.64 1.74 1.74 0 0 1 -1.93 1.8zm4-4.85a1 1 0 0 0 -1.15-1.08h-2v2.15h2a1 1 0 0 0 1.13-1.07zm.13 3a1.13 1.13 0 0 0 -1.23-1.15h-2v2.3h2a1.1 1.1 0 0 0 1.21-1.19zm1.89-1.48a3.33 3.33 0 0 1 3.43-3.45 3 3 0 0 1 2.53 1.32l-.69.39a2.24 2.24 0 0 0 -1.84-1 2.71 2.71 0 0 0 0 5.42 2.27 2.27 0 0 0 1.84-1l.7.38a3 3 0 0 1 -2.54 1.33 3.33 3.33 0 0 1 -3.43-3.39zm7.2 4.6-.38-.31a1.49 1.49 0 0 0 .65-.93h-.14a.49.49 0 0 1 -.5-.54.53.53 0 0 1 .53-.54.67.67 0 0 1 .63.76 1.92 1.92 0 0 1 -.79 1.56zm4.05-1.92.44-.63a1.56 1.56 0 0 0 1.25.66 1.29 1.29 0 0 0 1.34-1.4v-4.65h.83v4.66a2 2 0 0 1 -2.12 2.13 2.15 2.15 0 0 1 -1.74-.77zm5.42.65v-6.67h2.68a2 2 0 1 1 0 4h-1.85v2.65zm3.91-4.66a1.24 1.24 0 0 0 -1.33-1.27h-1.75v2.54h1.75a1.24 1.24 0 0 0 1.33-1.27zm5.95 4.66-.59-1.49h-3.32l-.59 1.49h-1l2.69-6.67h1l2.68 6.67zm-2.25-5.82-1.41 3.6h2.83zm4.24 7.09-.38-.31a1.49 1.49 0 0 0 .65-.93h-.14a.49.49 0 0 1 -.48-.51.54.54 0 0 1 .53-.54.67.67 0 0 1 .63.76 1.92 1.92 0 0 1 -.81 1.53zm9.44-1.27-3.89-5.32v5.32h-.83v-6.67h.85l3.84 5.16v-5.21h.83v6.67zm2.05-2.42a2.39 2.39 0 1 1 2.39 2.54 2.37 2.37 0 0 1 -2.39-2.54zm4 0a1.62 1.62 0 1 0 -1.6 1.87 1.68 1.68 0 0 0 1.59-1.87zm1.63 1.48.5-.64a2.75 2.75 0 0 0 2.09 1c1.19 0 1.57-.64 1.57-1.16 0-1.72-3.95-.76-3.95-3.14 0-1.1 1-1.86 2.3-1.86a3.13 3.13 0 0 1 2.36.94l-.5.61a2.52 2.52 0 0 0 -1.93-.8c-.79 0-1.37.43-1.37 1.06 0 1.5 3.95.64 3.95 3.13 0 1-.66 2-2.46 2a3.32 3.32 0 0 1 -2.56-1.14zm5.99-2.39a3.32 3.32 0 1 1 6.63 0 3.57 3.57 0 0 1 -.92 2.47l.63.67-.57.5-.65-.69a3.33 3.33 0 0 1 -1.81.5 3.26 3.26 0 0 1 -3.31-3.45zm4.58 2.37-.95-1 .57-.55.94 1a2.94 2.94 0 0 0 .62-1.87 2.47 2.47 0 1 0 -2.46 2.71 2.41 2.41 0 0 0 1.28-.29zm3.23.96v-6.67h.83v5.93h3.1v.74z"/><path d="m252.76 309.76h236.64v20.68h-236.64z" fill="#ffe0d4"/><path d="m488.89 310.26v19.69h-235.63v-19.69zm1-1h-237.62v21.65h237.61v-21.64z" fill="#f4cfc3"/><rect fill="#efefef" height="31.99" rx=".02" width="173.68" x="32.24" y="277.27"/><path d="m59.33 297.77-1.86-2.92h-1.51v2.92h-.91v-7.38h2.95a2.15 2.15 0 0 1 2.33 2.26 2 2 0 0 1 -1.91 2.13l2 3zm.07-5.13a1.37 1.37 0 0 0 -1.47-1.4h-1.97v2.81h1.92a1.38 1.38 0 0 0 1.45-1.4zm1.67 2.47a2.66 2.66 0 0 1 2.62-2.78 2.58 2.58 0 0 1 2.55 2.85v.21h-4.29a1.86 1.86 0 0 0 1.9 1.84 2.31 2.31 0 0 0 1.65-.68l.4.54a2.93 2.93 0 0 1 -2.11.83 2.64 2.64 0 0 1 -2.72-2.81zm2.61-2.1a1.77 1.77 0 0 0 -1.74 1.76h3.49a1.72 1.72 0 0 0 -1.75-1.76zm7.22 4.76v-.61a2.28 2.28 0 0 1 -1.76.74 1.77 1.77 0 0 1 -1.81-1.76 1.73 1.73 0 0 1 1.85-1.75 2.25 2.25 0 0 1 1.76.72v-1c0-.7-.57-1.11-1.34-1.11a2.07 2.07 0 0 0 -1.63.74l-.39-.57a2.78 2.78 0 0 1 2.12-.88c1.13 0 2.06.51 2.06 1.79v3.65zm0-1.12v-1a1.8 1.8 0 0 0 -1.45-.65 1.17 1.17 0 1 0 0 2.32 1.77 1.77 0 0 0 1.45-.67zm2.17-1.54a2.63 2.63 0 0 1 2.65-2.78 2.27 2.27 0 0 1 1.95.92l-.55.5a1.56 1.56 0 0 0 -1.35-.68 2.06 2.06 0 0 0 0 4.1 1.6 1.6 0 0 0 1.35-.69l.55.51a2.27 2.27 0 0 1 -1.95.92 2.63 2.63 0 0 1 -2.65-2.8zm5.93 1.55v-3.48h-.88v-.73h.88v-1.45h.84v1.45h1.08v.73h-1.08v3.3c0 .4.18.68.53.68a.78.78 0 0 0 .56-.23l.24.63a1.34 1.34 0 0 1 -1 .34 1.09 1.09 0 0 1 -1.17-1.24zm2.93-5.51a.56.56 0 0 1 .56-.56.55.55 0 0 1 .55.56.54.54 0 0 1 -.55.55.55.55 0 0 1 -.56-.55zm.14 6.62v-5.31h.83v5.31zm3.9 0-2.21-5.31h.9l1.76 4.36 1.77-4.36h.89l-2.21 5.31zm3.66-2.66a2.66 2.66 0 0 1 2.62-2.78 2.58 2.58 0 0 1 2.55 2.85v.21h-4.29a1.86 1.86 0 0 0 1.9 1.84 2.31 2.31 0 0 0 1.65-.68l.4.54a2.93 2.93 0 0 1 -2.11.83 2.64 2.64 0 0 1 -2.72-2.81zm2.61-2.1a1.77 1.77 0 0 0 -1.74 1.76h3.49a1.72 1.72 0 0 0 -1.75-1.76zm6.33 3.73.55-.7a3 3 0 0 0 2.3 1.06c1.31 0 1.73-.7 1.73-1.28 0-1.89-4.35-.84-4.35-3.46 0-1.21 1.08-2 2.53-2a3.45 3.45 0 0 1 2.6 1l-.55.67a2.77 2.77 0 0 0 -2.12-.88c-.87 0-1.51.47-1.51 1.17 0 1.65 4.35.7 4.35 3.44 0 1.06-.73 2.16-2.71 2.16a3.65 3.65 0 0 1 -2.82-1.18zm6.83-.08v-3.48h-.88v-.73h.88v-1.45h.84v1.45h1.09v.73h-1.08v3.3c0 .4.18.68.53.68a.78.78 0 0 0 .56-.23l.24.63a1.34 1.34 0 0 1 -1 .34 1.09 1.09 0 0 1 -1.18-1.24zm3.07 1.11v-5.31h.86v.85a2.29 2.29 0 0 1 1.77-1v.85h-.32a2 2 0 0 0 -1.45.85v3.76zm3.32-2.66a2.66 2.66 0 0 1 2.62-2.78 2.58 2.58 0 0 1 2.55 2.85v.21h-4.29a1.86 1.86 0 0 0 1.9 1.84 2.31 2.31 0 0 0 1.65-.68l.4.54a2.93 2.93 0 0 1 -2.11.83 2.64 2.64 0 0 1 -2.72-2.81zm2.61-2.1a1.77 1.77 0 0 0 -1.74 1.76h3.49a1.72 1.72 0 0 0 -1.75-1.76zm7.22 4.76v-.61a2.28 2.28 0 0 1 -1.76.74 1.77 1.77 0 0 1 -1.85-1.76 1.73 1.73 0 0 1 1.85-1.75 2.25 2.25 0 0 1 1.76.72v-1c0-.7-.57-1.11-1.34-1.11a2.07 2.07 0 0 0 -1.63.74l-.39-.57a2.78 2.78 0 0 1 2.12-.88c1.13 0 2.06.51 2.06 1.79v3.65zm0-1.12v-1a1.8 1.8 0 0 0 -1.45-.65 1.17 1.17 0 1 0 0 2.32 1.77 1.77 0 0 0 1.45-.67zm8.9 1.12v-3.61c0-.67-.29-1.1-1-1.1a1.83 1.83 0 0 0 -1.41.81v3.89h-.78v-3.61c0-.67-.27-1.1-1-1.1a1.86 1.86 0 0 0 -1.4.83v3.88h-.83v-5.31h.83v.77a2.32 2.32 0 0 1 1.73-.9 1.36 1.36 0 0 1 1.42 1 2.24 2.24 0 0 1 1.78-1c1 0 1.48.54 1.48 1.61v3.84zm2.02-.7.42-.59a2.41 2.41 0 0 0 1.75.76c.81 0 1.27-.38 1.27-.91 0-1.29-3.29-.5-3.29-2.46 0-.84.7-1.53 2-1.53a2.65 2.65 0 0 1 2 .77l-.38.57a2.05 2.05 0 0 0 -1.58-.67c-.73 0-1.18.36-1.18.84 0 1.16 3.29.4 3.29 2.46 0 .89-.71 1.61-2.08 1.61a2.85 2.85 0 0 1 -2.22-.85zm13.68.7-.65-1.64h-3.65l-.65 1.64h-1l3-7.34h1.06l2.95 7.34zm-2.48-6.4-1.55 4h3.14zm8.3 6.4v-.79a2.24 2.24 0 0 1 -1.79.92c-1.39 0-2.37-1.06-2.37-2.78s1-2.79 2.37-2.79a2.22 2.22 0 0 1 1.79.93v-2.87h.83v7.34zm0-1.45v-2.4a2 2 0 0 0 -1.58-.86c-1.08 0-1.72.88-1.72 2.06s.64 2 1.72 2a2 2 0 0 0 1.58-.8zm5.8 1.45v-.61a2.28 2.28 0 0 1 -1.76.74 1.77 1.77 0 0 1 -1.85-1.76 1.73 1.73 0 0 1 1.85-1.75 2.25 2.25 0 0 1 1.76.72v-1c0-.7-.57-1.11-1.34-1.11a2.07 2.07 0 0 0 -1.63.74l-.39-.57a2.78 2.78 0 0 1 2.12-.88c1.13 0 2.06.51 2.06 1.79v3.65zm0-1.12v-1a1.8 1.8 0 0 0 -1.45-.65 1.17 1.17 0 1 0 0 2.32 1.77 1.77 0 0 0 1.45-.67zm3.31.32v2.83h-.82v-7.34h.83v.79a2.22 2.22 0 0 1 1.79-.92c1.4 0 2.37 1.06 2.37 2.78s-1 2.79-2.37 2.79a2.22 2.22 0 0 1 -1.8-.93zm3.29-1.86c0-1.18-.64-2-1.71-2a2 2 0 0 0 -1.58.85v2.4a2 2 0 0 0 1.58.86c1.07-.05 1.71-.93 1.71-2.11zm2.34 1.55v-3.48h-.88v-.73h.88v-1.45h.84v1.45h1.08v.73h-1.08v3.3c0 .4.18.68.53.68a.78.78 0 0 0 .56-.23l.24.63a1.34 1.34 0 0 1 -1 .34 1.09 1.09 0 0 1 -1.17-1.24zm2.76-1.55a2.66 2.66 0 0 1 2.62-2.78 2.58 2.58 0 0 1 2.55 2.85v.21h-4.29a1.86 1.86 0 0 0 1.9 1.84 2.31 2.31 0 0 0 1.65-.68l.4.54a2.93 2.93 0 0 1 -2.11.83 2.64 2.64 0 0 1 -2.72-2.81zm2.61-2.1a1.77 1.77 0 0 0 -1.74 1.76h3.49a1.72 1.72 0 0 0 -1.75-1.76zm3.89 4.76v-5.31h.83v.85a2.29 2.29 0 0 1 1.77-1v.85h-.32a2 2 0 0 0 -1.45.85v3.76zm3.18-.7.42-.59a2.41 2.41 0 0 0 1.75.76c.81 0 1.27-.38 1.27-.91 0-1.29-3.29-.5-3.29-2.46 0-.84.7-1.53 2-1.53a2.65 2.65 0 0 1 2 .77l-.38.57a2.05 2.05 0 0 0 -1.58-.67c-.73 0-1.18.36-1.18.84 0 1.16 3.29.4 3.29 2.46 0 .89-.71 1.61-2.08 1.61a2.85 2.85 0 0 1 -2.22-.85z"/><path d="m252 237.15h238.15v40.12h-238.15z" fill="#dbdcdd"/><path d="m490.15 121.17h-238.15v117.54h99.44l19.63 10.36 19.64-10.36h99.44z" fill="#e4f3de"/><path d="m.53 363.87h237.08v44.8h-237.08z" fill="#fff"/><path d="m237.12 364.39v43.8h-236.09v-43.8zm1-1h-238v45.75h238z" fill="#ccc"/><path d="m.53 329.43h237.08v35.44h-237.08z" fill="#fff"/><path d="m237.12 329.93v34.46h-236.09v-34.46zm1-1h-238v36.46h238v-36.4z" fill="#ccc"/><path d="m76.49 350.74.92-1.3a3.51 3.51 0 0 0 2.54 1.08c.94 0 1.39-.43 1.39-.89 0-1.42-4.61-.44-4.61-3.45 0-1.33 1.15-2.43 3-2.43a4.45 4.45 0 0 1 3.12 1.12l-.95 1.25a3.44 3.44 0 0 0 -2.33-.88c-.73 0-1.14.32-1.14.8 0 1.27 4.59.42 4.59 3.41 0 1.46-1 2.57-3.2 2.57a4.56 4.56 0 0 1 -3.33-1.28zm9.22.38v3h-1.52v-8h1.52v.73a2.24 2.24 0 0 1 1.79-.87c1.49 0 2.57 1.1 2.57 3s-1.08 3-2.57 3a2.21 2.21 0 0 1 -1.79-.86zm2.77-2.16a1.5 1.5 0 0 0 -1.46-1.68 1.7 1.7 0 0 0 -1.31.66v2.05a1.74 1.74 0 0 0 1.31.66 1.51 1.51 0 0 0 1.46-1.69zm2.71 2.9v-5.79h1.52v.79a2.49 2.49 0 0 1 1.85-.94v1.47a2 2 0 0 0 -.42 0 1.94 1.94 0 0 0 -1.43.66v3.83zm4.14-7.32a.91.91 0 1 1 .91.91.92.92 0 0 1 -.91-.91zm.16 7.33v-5.79h1.52v5.79zm6.96-.01v-3.47a.94.94 0 0 0 -1.07-1.08 1.65 1.65 0 0 0 -1.32.68v3.9h-1.52v-5.79h1.52v.76a2.65 2.65 0 0 1 2-.9 1.68 1.68 0 0 1 1.88 1.85v4.09zm2.88 1.53.68-1.1a2.3 2.3 0 0 0 1.81.72 1.42 1.42 0 0 0 1.6-1.46v-.59a2.26 2.26 0 0 1 -1.79.91c-1.45 0-2.55-1-2.55-3s1.09-3 2.55-3a2.23 2.23 0 0 1 1.79.89v-.74h1.54v5.4c0 2.21-1.7 2.75-3.13 2.75a3.51 3.51 0 0 1 -2.5-.78zm4.09-3.54v-1.87a1.65 1.65 0 0 0 -1.31-.66 1.6 1.6 0 0 0 0 3.19 1.69 1.69 0 0 0 1.35-.7zm12.32 2.01-1.41-5.47-1.39 5.49h-1.81l-2.29-8h1.91l1.4 5.78 1.52-5.78h1.33l1.51 5.78 1.39-5.78h1.92l-2.28 8zm4.01-2.9a3 3 0 0 1 3-3 2.9 2.9 0 0 1 2.9 3.19v.33h-4.32a1.56 1.56 0 0 0 1.67 1.34 2.47 2.47 0 0 0 1.55-.58l.67 1a3.61 3.61 0 0 1 -2.39.8 2.93 2.93 0 0 1 -3.08-3.08zm3-1.82a1.39 1.39 0 0 0 -1.42 1.25h2.85a1.34 1.34 0 0 0 -1.43-1.25zm4 4.72v-8h1.52v3a2.23 2.23 0 0 1 1.79-.89c1.48 0 2.57 1.15 2.57 3s-1.1 3-2.57 3a2.25 2.25 0 0 1 -1.79-.89v.74zm2.83-1.21a1.7 1.7 0 0 0 0-3.37 1.68 1.68 0 0 0 -1.31.67v2.05a1.69 1.69 0 0 0 1.31.65zm4.24 1.21v-8h5.66v1.53h-4v1.69h3.87v1.5h-3.82v3.31zm6.82 0v-8h1.52v8zm6.94 0v-.73a2.71 2.71 0 0 1 -2 .88 1.66 1.66 0 0 1 -1.87-1.82v-4.11h1.52v3.51a.93.93 0 0 0 1.07 1.07 1.71 1.71 0 0 0 1.32-.66v-3.92h1.52v5.79zm6.63 0-1.32-2-1.33 2h-1.69l2.05-3-1.93-2.82h1.7l1.2 1.79 1.19-1.79h1.7l-1.94 2.82 2.08 3z"/><path d="m27.27 381.77.92-1.3a3.51 3.51 0 0 0 2.54 1.08c.94 0 1.39-.43 1.39-.89 0-1.42-4.61-.44-4.61-3.45 0-1.33 1.15-2.43 3-2.43a4.45 4.45 0 0 1 3.12 1.12l-.95 1.25a3.44 3.44 0 0 0 -2.33-.88c-.73 0-1.14.32-1.14.8 0 1.27 4.59.42 4.59 3.41 0 1.46-1 2.57-3.2 2.57a4.56 4.56 0 0 1 -3.33-1.28zm9.23.39v3h-1.53v-8h1.52v.73a2.24 2.24 0 0 1 1.79-.87c1.49 0 2.57 1.1 2.57 3s-1.08 3-2.57 3a2.21 2.21 0 0 1 -1.78-.86zm2.77-2.16a1.5 1.5 0 0 0 -1.46-1.68 1.7 1.7 0 0 0 -1.31.66v2.05a1.74 1.74 0 0 0 1.31.66 1.51 1.51 0 0 0 1.46-1.69zm2.7 2.9v-5.79h1.52v.79a2.49 2.49 0 0 1 1.85-.94v1.49a2 2 0 0 0 -.42 0 1.94 1.94 0 0 0 -1.43.66v3.83zm4.16-7.33a.91.91 0 1 1 .91.91.92.92 0 0 1 -.91-.91zm.16 7.33v-5.79h1.52v5.79zm6.95 0v-3.51a.94.94 0 0 0 -1.07-1.08 1.65 1.65 0 0 0 -1.32.68v3.9h-1.52v-5.79h1.52v.76a2.65 2.65 0 0 1 2-.9 1.68 1.68 0 0 1 1.88 1.85v4.09zm2.91 1.49.68-1.1a2.3 2.3 0 0 0 1.81.72 1.42 1.42 0 0 0 1.6-1.46v-.59a2.26 2.26 0 0 1 -1.79.91c-1.45 0-2.55-1-2.55-3s1.09-3 2.55-3a2.23 2.23 0 0 1 1.79.89v-.74h1.54v5.4c0 2.21-1.7 2.75-3.13 2.75a3.51 3.51 0 0 1 -2.5-.78zm4.09-3.54v-1.87a1.65 1.65 0 0 0 -1.31-.66 1.6 1.6 0 0 0 0 3.19 1.69 1.69 0 0 0 1.31-.66zm6.16 2.05v-8h3.15a4 4 0 1 1 0 8zm5.66-4a2.34 2.34 0 0 0 -2.51-2.51h-1.44v5h1.45a2.4 2.4 0 0 0 2.5-2.49zm6.4 4v-.6a2.4 2.4 0 0 1 -1.84.74 1.93 1.93 0 0 1 -2-1.92 1.85 1.85 0 0 1 2-1.87 2.38 2.38 0 0 1 1.84.71v-.78c0-.59-.5-1-1.27-1a2.44 2.44 0 0 0 -1.69.68l-.58-1a3.8 3.8 0 0 1 2.53-.91c1.32 0 2.53.53 2.53 2.19v3.74zm0-1.39v-.72a1.53 1.53 0 0 0 -1.22-.5c-.6 0-1.09.31-1.09.88s.49.85 1.09.85a1.52 1.52 0 0 0 1.22-.51zm3.34-.05v-3h-1v-1.33h1v-1.58h1.53v1.58h1.18v1.26h-1.18v2.62c0 .36.19.64.53.64a.83.83 0 0 0 .53-.17l.32 1.15a1.88 1.88 0 0 1 -1.27.37 1.45 1.45 0 0 1 -1.64-1.54zm7.23 1.44v-.6a2.4 2.4 0 0 1 -1.84.74 1.93 1.93 0 0 1 -2-1.92 1.85 1.85 0 0 1 2-1.87 2.38 2.38 0 0 1 1.84.71v-.78c0-.59-.5-1-1.27-1a2.44 2.44 0 0 0 -1.69.68l-.58-1a3.8 3.8 0 0 1 2.53-.91c1.32 0 2.53.53 2.53 2.19v3.74zm0-1.39v-.72a1.53 1.53 0 0 0 -1.22-.5c-.6 0-1.09.31-1.09.88s.49.85 1.09.85a1.52 1.52 0 0 0 1.22-.51zm10.67 1.39-1.57-2.84h-1.25v2.84h-1.7v-8h3.74a2.49 2.49 0 0 1 2.69 2.58 2.3 2.3 0 0 1 -1.75 2.38l1.8 3zm.17-5.42a1.09 1.09 0 0 0 -1.2-1.08h-1.79v2.16h1.79a1.09 1.09 0 0 0 1.2-1.08zm2.26 2.52a3 3 0 0 1 3-3 2.9 2.9 0 0 1 2.9 3.19v.33h-4.31a1.56 1.56 0 0 0 1.67 1.34 2.47 2.47 0 0 0 1.55-.58l.67 1a3.61 3.61 0 0 1 -2.39.8 2.93 2.93 0 0 1 -3.09-3.08zm3-1.82a1.39 1.39 0 0 0 -1.43 1.28h2.85a1.34 1.34 0 0 0 -1.43-1.29zm7.48 4.72v-.6a2.4 2.4 0 0 1 -1.83.74 1.93 1.93 0 0 1 -2-1.92 1.85 1.85 0 0 1 2-1.87 2.38 2.38 0 0 1 1.83.71v-.78c0-.59-.5-1-1.27-1a2.44 2.44 0 0 0 -1.69.68l-.58-1a3.8 3.8 0 0 1 2.53-.91c1.32 0 2.53.53 2.53 2.19v3.74zm0-1.39v-.72a1.53 1.53 0 0 0 -1.22-.5c-.6 0-1.09.31-1.09.88s.49.85 1.09.85a1.52 1.52 0 0 0 1.22-.51zm2.67-1.51a2.94 2.94 0 0 1 3.07-3 2.7 2.7 0 0 1 2.29 1l-1 .94a1.41 1.41 0 0 0 -1.22-.62 1.69 1.69 0 0 0 0 3.37 1.46 1.46 0 0 0 1.22-.62l1 .92a2.67 2.67 0 0 1 -2.29 1.05 2.94 2.94 0 0 1 -3.07-3.04zm6.66 1.46v-3h-1v-1.33h1v-1.58h1.54v1.58h1.18v1.26h-1.18v2.62c0 .36.19.64.53.64a.83.83 0 0 0 .53-.17l.32 1.15a1.88 1.88 0 0 1 -1.27.37 1.45 1.45 0 0 1 -1.65-1.54zm3.6-5.89a.91.91 0 1 1 .91.91.92.92 0 0 1 -.91-.91zm.16 7.33v-5.79h1.52v5.79zm4.53 0-2.33-5.79h1.63l1.51 4 1.51-4h1.64l-2.33 5.79zm4.28-2.9a3 3 0 0 1 3-3 2.9 2.9 0 0 1 2.9 3.19v.33h-4.31a1.56 1.56 0 0 0 1.67 1.34 2.47 2.47 0 0 0 1.55-.58l.67 1a3.61 3.61 0 0 1 -2.39.8 2.93 2.93 0 0 1 -3.09-3.08zm3-1.82a1.39 1.39 0 0 0 -1.43 1.28h2.85a1.34 1.34 0 0 0 -1.42-1.29zm11.64 4.72-1.57-2.84h-1.25v2.84h-1.7v-8h3.7a2.49 2.49 0 0 1 2.69 2.58 2.3 2.3 0 0 1 -1.75 2.38l1.8 3zm.17-5.42a1.09 1.09 0 0 0 -1.2-1.08h-1.79v2.16h1.79a1.09 1.09 0 0 0 1.21-1.08zm2.26 2.52a3 3 0 0 1 3-3 2.9 2.9 0 0 1 2.9 3.19v.33h-4.31a1.56 1.56 0 0 0 1.67 1.34 2.47 2.47 0 0 0 1.55-.58l.67 1a3.61 3.61 0 0 1 -2.39.8 2.93 2.93 0 0 1 -3.09-3.08zm3-1.82a1.39 1.39 0 0 0 -1.43 1.28h2.85a1.34 1.34 0 0 0 -1.42-1.29zm5.53 3.98v3h-1.52v-8h1.52v.73a2.24 2.24 0 0 1 1.79-.87c1.49 0 2.57 1.1 2.57 3s-1.08 3-2.57 3a2.21 2.21 0 0 1 -1.79-.86zm2.77-2.16a1.5 1.5 0 0 0 -1.46-1.68 1.7 1.7 0 0 0 -1.31.66v2.05a1.74 1.74 0 0 0 1.31.66 1.51 1.51 0 0 0 1.46-1.69zm2.33 0a3.06 3.06 0 1 1 3.06 3 2.93 2.93 0 0 1 -3.06-3zm4.55 0a1.49 1.49 0 1 0 -1.49 1.69 1.53 1.53 0 0 0 1.48-1.69zm2.2 2.14.66-1.07a3.31 3.31 0 0 0 2 .79c.66 0 1-.26 1-.62 0-1-3.44-.18-3.44-2.46 0-1 .85-1.82 2.37-1.82a3.7 3.7 0 0 1 2.34.79l-.61 1a2.44 2.44 0 0 0 -1.71-.67c-.55 0-.91.25-.91.58 0 .86 3.43.14 3.43 2.48 0 1.06-.9 1.86-2.51 1.86a3.89 3.89 0 0 1 -2.62-.86zm6.08-6.57a.91.91 0 1 1 .91.91.92.92 0 0 1 -.91-.91zm.16 7.33v-5.79h1.52v5.79zm3.33-1.44v-3h-1v-1.33h1v-1.58h1.54v1.58h1.18v1.26h-1.18v2.62c0 .36.19.64.53.64a.83.83 0 0 0 .53-.17l.32 1.15a1.88 1.88 0 0 1 -1.27.37 1.45 1.45 0 0 1 -1.65-1.54zm3.38-1.46a3.06 3.06 0 1 1 3.06 3 2.93 2.93 0 0 1 -3.06-3zm4.55 0a1.49 1.49 0 1 0 -1.49 1.69 1.53 1.53 0 0 0 1.49-1.69zm2.71 2.9v-5.79h1.52v.79a2.49 2.49 0 0 1 1.85-.94v1.49a2 2 0 0 0 -.42 0 1.94 1.94 0 0 0 -1.43.66v3.83zm4.16-7.33a.91.91 0 1 1 .91.91.92.92 0 0 1 -.91-.91zm.16 7.33v-5.79h1.52v5.79zm2.67-2.9a3 3 0 0 1 3-3 2.9 2.9 0 0 1 2.9 3.19v.33h-4.31a1.56 1.56 0 0 0 1.67 1.34 2.47 2.47 0 0 0 1.55-.58l.67 1a3.61 3.61 0 0 1 -2.39.8 2.93 2.93 0 0 1 -3.09-3.08zm3-1.82a1.39 1.39 0 0 0 -1.43 1.28h2.85a1.34 1.34 0 0 0 -1.43-1.29zm3.5 3.96.66-1.07a3.31 3.31 0 0 0 2 .79c.66 0 1-.26 1-.62 0-1-3.44-.18-3.44-2.46 0-1 .85-1.82 2.37-1.82a3.7 3.7 0 0 1 2.34.79l-.61 1a2.44 2.44 0 0 0 -1.71-.67c-.55 0-.91.25-.91.58 0 .86 3.43.14 3.43 2.48 0 1.06-.9 1.86-2.51 1.86a3.89 3.89 0 0 1 -2.62-.86zm-162.97 13.76v-5.61l-2.26 5.61h-.34l-2.26-5.61v5.61h-.83v-6.67h1.19l2.07 5.16 2.07-5.16h1.19v6.67zm2.09-2.42a2.39 2.39 0 1 1 2.39 2.54 2.37 2.37 0 0 1 -2.39-2.54zm4 0a1.62 1.62 0 1 0 -1.6 1.87 1.68 1.68 0 0 0 1.58-1.87zm5.26 2.42v-3.16c0-.86-.44-1.12-1.09-1.12a1.88 1.88 0 0 0 -1.43.75v3.53h-.75v-4.83h.75v.7a2.36 2.36 0 0 1 1.73-.82 1.37 1.37 0 0 1 1.53 1.56v3.39zm2.29 1.23.38-.54a1.86 1.86 0 0 0 1.57.65 1.38 1.38 0 0 0 1.56-1.41v-.73a2 2 0 0 1 -1.63.86 2.2 2.2 0 0 1 -2.15-2.5c0-1.55.88-2.51 2.15-2.51a2 2 0 0 1 1.63.85v-.73h.75v4.76c0 1.53-1.13 2-2.31 2a2.47 2.47 0 0 1 -1.95-.7zm3.51-2.62v-2.12a1.83 1.83 0 0 0 -1.44-.77c-1 0-1.56.77-1.56 1.84s.49 1.83 1.49 1.83a1.81 1.81 0 0 0 1.46-.78zm1.93-1.03a2.39 2.39 0 1 1 2.39 2.54 2.37 2.37 0 0 1 -2.39-2.54zm4 0a1.62 1.62 0 1 0 -1.6 1.87 1.68 1.68 0 0 0 1.58-1.87zm2.13 3.69-.38-.31a1.49 1.49 0 0 0 .65-.93h-.14a.49.49 0 0 1 -.48-.51.53.53 0 0 1 .53-.54.67.67 0 0 1 .63.76 1.92 1.92 0 0 1 -.81 1.53zm4.43-4.6a3.33 3.33 0 0 1 3.43-3.45 3 3 0 0 1 2.53 1.32l-.69.39a2.24 2.24 0 0 0 -1.84-1 2.71 2.71 0 0 0 0 5.42 2.27 2.27 0 0 0 1.84-1l.7.38a3 3 0 0 1 -2.54 1.33 3.33 3.33 0 0 1 -3.43-3.39zm10 3.33v-.51a2.08 2.08 0 0 1 -1.6.67 1.61 1.61 0 0 1 -1.68-1.6 1.57 1.57 0 0 1 1.68-1.59 2 2 0 0 1 1.6.65v-.87c0-.64-.52-1-1.22-1a1.89 1.89 0 0 0 -1.48.67l-.35-.52a2.53 2.53 0 0 1 1.93-.8c1 0 1.87.46 1.87 1.63v3.32zm0-1v-.92a1.63 1.63 0 0 0 -1.32-.59 1.06 1.06 0 1 0 0 2.11 1.61 1.61 0 0 0 1.32-.62zm1.89.36.38-.54a2.19 2.19 0 0 0 1.59.69c.74 0 1.15-.35 1.15-.83 0-1.17-3-.45-3-2.24 0-.76.64-1.39 1.79-1.39a2.41 2.41 0 0 1 1.79.7l-.35.52a1.86 1.86 0 0 0 -1.44-.61c-.66 0-1.07.33-1.07.76 0 1 3 .36 3 2.24 0 .81-.65 1.46-1.89 1.46a2.59 2.59 0 0 1 -1.95-.76zm4.65 0 .38-.54a2.19 2.19 0 0 0 1.59.69c.74 0 1.15-.35 1.15-.83 0-1.17-3-.45-3-2.24 0-.76.64-1.39 1.79-1.39a2.41 2.41 0 0 1 1.79.7l-.35.52a1.86 1.86 0 0 0 -1.44-.61c-.66 0-1.07.33-1.07.76 0 1 3 .36 3 2.24 0 .81-.65 1.46-1.89 1.46a2.59 2.59 0 0 1 -1.95-.76zm8.07.64v-.51a2.08 2.08 0 0 1 -1.6.67 1.61 1.61 0 0 1 -1.68-1.6 1.57 1.57 0 0 1 1.68-1.59 2 2 0 0 1 1.6.65v-.87c0-.64-.52-1-1.22-1a1.89 1.89 0 0 0 -1.48.67l-.35-.52a2.53 2.53 0 0 1 1.93-.8c1 0 1.87.46 1.87 1.63v3.32zm0-1v-.92a1.63 1.63 0 0 0 -1.32-.59 1.06 1.06 0 1 0 0 2.11 1.61 1.61 0 0 0 1.32-.62zm5.53 1v-3.16c0-.86-.44-1.12-1.09-1.12a1.88 1.88 0 0 0 -1.43.75v3.53h-.75v-4.83h.75v.7a2.36 2.36 0 0 1 1.73-.82 1.37 1.37 0 0 1 1.53 1.56v3.39zm5.75 0v-.72a2 2 0 0 1 -1.63.84c-1.26 0-2.15-1-2.15-2.53s.89-2.54 2.15-2.54a2 2 0 0 1 1.63.85v-2.57h.75v6.67zm0-1.32v-2.19a1.79 1.79 0 0 0 -1.44-.78c-1 0-1.56.8-1.56 1.87s.58 1.86 1.56 1.86a1.78 1.78 0 0 0 1.44-.76zm2.25 1.32v-4.83h.75v.77a2.08 2.08 0 0 1 1.61-.88v.77h-.29a1.77 1.77 0 0 0 -1.32.77v3.42zm6.32 0v-.51a2.08 2.08 0 0 1 -1.6.67 1.61 1.61 0 0 1 -1.68-1.6 1.57 1.57 0 0 1 1.68-1.59 2 2 0 0 1 1.6.65v-.87c0-.64-.52-1-1.22-1a1.89 1.89 0 0 0 -1.48.67l-.35-.52a2.53 2.53 0 0 1 1.93-.8c1 0 1.87.46 1.87 1.63v3.32zm0-1v-.92a1.63 1.63 0 0 0 -1.32-.59 1.06 1.06 0 1 0 0 2.11 1.61 1.61 0 0 0 1.32-.62zm2.46 2.27-.38-.31a1.49 1.49 0 0 0 .65-.93h-.14a.49.49 0 0 1 -.48-.51.53.53 0 0 1 .53-.54.67.67 0 0 1 .63.76 1.92 1.92 0 0 1 -.81 1.53zm8.58-1.27-1.69-2.65h-1.34v2.65h-.83v-6.67h2.68a2 2 0 0 1 2.1 2 1.85 1.85 0 0 1 -1.74 1.94l1.8 2.72zm.06-4.66a1.24 1.24 0 0 0 -1.34-1.27h-1.75v2.55h1.75a1.26 1.26 0 0 0 1.34-1.28zm1.56 2.24a2.41 2.41 0 0 1 2.38-2.53 2.34 2.34 0 0 1 2.32 2.59v.19h-3.9a1.69 1.69 0 0 0 1.73 1.67 2.1 2.1 0 0 0 1.5-.62l.36.49a2.66 2.66 0 0 1 -1.92.75 2.4 2.4 0 0 1 -2.47-2.54zm2.37-1.91a1.61 1.61 0 0 0 -1.58 1.6h3.17a1.56 1.56 0 0 0 -1.59-1.6zm7.04 4.33v-.72a2 2 0 0 1 -1.63.84c-1.26 0-2.15-1-2.15-2.53s.89-2.54 2.15-2.54a2 2 0 0 1 1.63.85v-2.57h.75v6.67zm0-1.32v-2.19a1.79 1.79 0 0 0 -1.44-.78c-1 0-1.56.8-1.56 1.87s.58 1.86 1.56 1.86a1.78 1.78 0 0 0 1.44-.76zm2.12-4.7a.51.51 0 0 1 .51-.51.5.5 0 0 1 .5.51.5.5 0 0 1 -.5.5.5.5 0 0 1 -.51-.5zm.13 6v-4.83h.75v4.83zm1.84-.62.38-.54a2.19 2.19 0 0 0 1.59.69c.74 0 1.15-.35 1.15-.83 0-1.17-3-.45-3-2.24 0-.76.64-1.39 1.79-1.39a2.41 2.41 0 0 1 1.79.7l-.35.52a1.86 1.86 0 0 0 -1.44-.61c-.66 0-1.07.33-1.07.76 0 1 3 .36 3 2.24 0 .81-.65 1.46-1.89 1.46a2.59 2.59 0 0 1 -1.95-.76zm5.26 1.91-.38-.31a1.49 1.49 0 0 0 .65-.93h-.14a.49.49 0 0 1 -.48-.51.53.53 0 0 1 .53-.54.67.67 0 0 1 .63.76 1.92 1.92 0 0 1 -.81 1.53zm4.45-4.6a3.33 3.33 0 0 1 3.43-3.45 3 3 0 0 1 2.53 1.32l-.69.39a2.24 2.24 0 0 0 -1.84-1 2.71 2.71 0 0 0 0 5.42 2.27 2.27 0 0 0 1.84-1l.7.38a3 3 0 0 1 -2.54 1.33 3.33 3.33 0 0 1 -3.43-3.39zm6.72.91a2.39 2.39 0 1 1 2.39 2.54 2.37 2.37 0 0 1 -2.39-2.54zm4 0a1.62 1.62 0 1 0 -1.6 1.87 1.68 1.68 0 0 0 1.55-1.87zm5.26 2.42v-.68a2.36 2.36 0 0 1 -1.72.8 1.36 1.36 0 0 1 -1.54-1.54v-3.41h.75v3.18c0 .85.43 1.1 1.09 1.1a1.84 1.84 0 0 0 1.42-.73v-3.55h.75v4.83zm1.97-2.42a2.38 2.38 0 0 1 2.41-2.53 2.06 2.06 0 0 1 1.77.84l-.5.45a1.42 1.42 0 0 0 -1.23-.62 1.88 1.88 0 0 0 0 3.73 1.46 1.46 0 0 0 1.23-.63l.5.46a2.07 2.07 0 0 1 -1.77.84 2.39 2.39 0 0 1 -2.41-2.54zm8.51 2.42v-3.18c0-.86-.43-1.1-1.09-1.1a1.86 1.86 0 0 0 -1.42.75v3.53h-.75v-6.67h.75v2.54a2.32 2.32 0 0 1 1.72-.82 1.36 1.36 0 0 1 1.54 1.54v3.41zm2.21 0v-6.67h.75v2.57a2 2 0 0 1 1.63-.85c1.27 0 2.15 1 2.15 2.54s-.89 2.53-2.15 2.53a2 2 0 0 1 -1.63-.84v.72zm2.2-.55c1 0 1.55-.79 1.55-1.86s-.58-1.87-1.55-1.87a1.8 1.8 0 0 0 -1.45.78v2.19a1.78 1.78 0 0 0 1.49.8zm6.61.55v-.51a2.08 2.08 0 0 1 -1.6.67 1.61 1.61 0 0 1 -1.68-1.6 1.57 1.57 0 0 1 1.68-1.59 2 2 0 0 1 1.6.65v-.87c0-.64-.52-1-1.22-1a1.89 1.89 0 0 0 -1.48.67l-.35-.52a2.53 2.53 0 0 1 1.93-.8c1 0 1.87.46 1.87 1.63v3.32zm0-1v-.92a1.63 1.63 0 0 0 -1.32-.59 1.06 1.06 0 1 0 0 2.11 1.61 1.61 0 0 0 1.32-.62zm1.85.36.38-.54a2.19 2.19 0 0 0 1.59.69c.74 0 1.15-.35 1.15-.83 0-1.17-3-.45-3-2.24 0-.76.64-1.39 1.79-1.39a2.41 2.41 0 0 1 1.79.7l-.35.52a1.86 1.86 0 0 0 -1.44-.61c-.66 0-1.07.33-1.07.76 0 1 3 .36 3 2.24 0 .81-.65 1.46-1.89 1.46a2.59 2.59 0 0 1 -1.95-.76zm4.78-1.78a2.41 2.41 0 0 1 2.38-2.53 2.34 2.34 0 0 1 2.32 2.59v.19h-3.9a1.69 1.69 0 0 0 1.76 1.66 2.1 2.1 0 0 0 1.5-.62l.36.49a2.66 2.66 0 0 1 -1.92.75 2.4 2.4 0 0 1 -2.5-2.53zm2.37-1.91a1.61 1.61 0 0 0 -1.58 1.6h3.17a1.56 1.56 0 0 0 -1.59-1.6z"/><path d="m.53 309.76h237.08v20.68h-237.08z" fill="#ffe0d4"/><path d="m237.12 310.26v19.69h-236.09v-19.69zm1-1h-238.07v21.65h238.05v-21.64z" fill="#f4cfc3"/><path d="m55.53 265.6-4.28-5.85v5.85h-.92v-7.34h.94l4.22 5.73v-5.73h.91v7.34zm2.25-2.67a2.66 2.66 0 0 1 2.62-2.78 2.58 2.58 0 0 1 2.55 2.85v.21h-4.29a1.86 1.86 0 0 0 1.9 1.84 2.31 2.31 0 0 0 1.65-.68l.4.54a2.93 2.93 0 0 1 -2.11.83 2.64 2.64 0 0 1 -2.72-2.81zm2.61-2.1a1.77 1.77 0 0 0 -1.74 1.76h3.49a1.72 1.72 0 0 0 -1.75-1.76zm4.06 3.65v-3.48h-.88v-.73h.88v-1.45h.88v1.45h1v.73h-1v3.3c0 .4.18.68.53.68a.78.78 0 0 0 .56-.23l.24.63a1.34 1.34 0 0 1 -1 .34 1.09 1.09 0 0 1 -1.21-1.24zm3.23 0v-3.48h-.88v-.73h.88v-1.45h.84v1.45h1.08v.73h-1.08v3.3c0 .4.18.68.53.68a.78.78 0 0 0 .56-.23l.24.63a1.34 1.34 0 0 1 -1 .34 1.09 1.09 0 0 1 -1.17-1.24zm2.9 2.45a1.27 1.27 0 0 0 .45.09.76.76 0 0 0 .79-.56l.35-.8-2.22-5.37h.9l1.76 4.36 1.77-4.36h.95l-2.66 6.39a1.58 1.58 0 0 1 -1.56 1.08 2.51 2.51 0 0 1 -.59-.08zm5.15.06-.42-.34a1.64 1.64 0 0 0 .72-1h-.15a.54.54 0 0 1 -.53-.56.59.59 0 0 1 .58-.59.74.74 0 0 1 .69.84 2.11 2.11 0 0 1 -.89 1.65zm4.75-2.43.55-.7a3 3 0 0 0 2.3 1.06c1.31 0 1.73-.7 1.73-1.28 0-1.89-4.35-.84-4.35-3.46 0-1.21 1.08-2 2.53-2a3.45 3.45 0 0 1 2.6 1l-.55.67a2.77 2.77 0 0 0 -2.12-.88c-.87 0-1.51.47-1.51 1.17 0 1.65 4.35.7 4.35 3.44 0 1.06-.73 2.16-2.71 2.16a3.65 3.65 0 0 1 -2.82-1.18zm6.55-1.63a2.66 2.66 0 0 1 2.62-2.78 2.58 2.58 0 0 1 2.55 2.85v.21h-4.29a1.86 1.86 0 0 0 1.9 1.84 2.31 2.31 0 0 0 1.65-.68l.4.54a2.93 2.93 0 0 1 -2.11.83 2.64 2.64 0 0 1 -2.72-2.81zm2.61-2.1a1.77 1.77 0 0 0 -1.74 1.76h3.49a1.72 1.72 0 0 0 -1.76-1.76zm3.89 4.77v-5.31h.8v.85a2.29 2.29 0 0 1 1.77-1v.85h-.32a2 2 0 0 0 -1.45.85v3.76zm5.05 0-2.25-5.32h.9l1.76 4.36 1.77-4.36h.89l-2.21 5.31zm3.97 0v-7.34h.78v7.34zm2.17-2.67a2.66 2.66 0 0 1 2.62-2.78 2.58 2.58 0 0 1 2.55 2.85v.21h-4.29a1.86 1.86 0 0 0 1.9 1.84 2.31 2.31 0 0 0 1.65-.68l.4.54a2.93 2.93 0 0 1 -2.11.83 2.64 2.64 0 0 1 -2.72-2.81zm2.61-2.1a1.77 1.77 0 0 0 -1.74 1.76h3.49a1.72 1.72 0 0 0 -1.75-1.76zm4.05 3.65v-3.48h-.88v-.73h.88v-1.45h.84v1.45h1.11v.73h-1.08v3.3c0 .4.18.68.53.68a.78.78 0 0 0 .56-.23l.24.63a1.34 1.34 0 0 1 -1 .34 1.09 1.09 0 0 1 -1.2-1.24zm5.41.04.54-.57a2.55 2.55 0 0 0 2 1c1.07 0 1.72-.54 1.72-1.38s-.75-1.3-1.83-1.3h-.76v-.88h.76c.92 0 1.71-.36 1.71-1.21s-.75-1.25-1.64-1.25a2.49 2.49 0 0 0 -1.94.89l-.51-.57a3.15 3.15 0 0 1 2.52-1.13c1.41 0 2.48.71 2.48 1.95a1.77 1.77 0 0 1 -1.57 1.71 1.87 1.87 0 0 1 1.69 1.82c0 1.22-1 2.11-2.61 2.11a3.09 3.09 0 0 1 -2.56-1.19zm6.47.58a.6.6 0 1 1 .6.61.61.61 0 0 1 -.6-.61zm2.98.5v-6.14l-1.18 1.25-.55-.56 1.84-1.89h.8v7.34zm4.83-3.43v2.34h-.63v-2.34h-2.11v-.57h2.11v-2.28h.63v2.28h2.11v.57zm5.84-.24a3.67 3.67 0 0 1 3.77-3.8 3.26 3.26 0 0 1 2.78 1.45l-.76.43a2.47 2.47 0 0 0 -2-1.07 3 3 0 0 0 0 6 2.5 2.5 0 0 0 2-1.07l.77.42a3.3 3.3 0 0 1 -2.79 1.46 3.67 3.67 0 0 1 -3.77-3.82zm7.42 1a2.63 2.63 0 1 1 2.63 2.79 2.61 2.61 0 0 1 -2.63-2.79zm4.39 0a1.78 1.78 0 1 0 -1.76 2.06 1.85 1.85 0 0 0 1.73-2.06zm5.78 2.67v-3.48c0-.95-.48-1.23-1.2-1.23a2.07 2.07 0 0 0 -1.57.83v3.88h-.83v-5.31h.83v.77a2.6 2.6 0 0 1 1.9-.9 1.51 1.51 0 0 1 1.68 1.72v3.73zm2.64-1.12v-3.48h-.88v-.73h.88v-1.45h.84v1.45h1.08v.73h-1.08v3.3c0 .4.18.68.53.68a.78.78 0 0 0 .56-.23l.24.63a1.34 1.34 0 0 1 -1 .34 1.09 1.09 0 0 1 -1.17-1.24zm6.39 1.12v-.61a2.28 2.28 0 0 1 -1.76.74 1.77 1.77 0 0 1 -1.85-1.76 1.73 1.73 0 0 1 1.85-1.75 2.25 2.25 0 0 1 1.76.72v-1c0-.7-.57-1.11-1.34-1.11a2.07 2.07 0 0 0 -1.63.74l-.39-.57a2.78 2.78 0 0 1 2.12-.88c1.13 0 2.06.51 2.06 1.79v3.65zm0-1.12v-1a1.8 1.8 0 0 0 -1.45-.65 1.17 1.17 0 1 0 0 2.32 1.77 1.77 0 0 0 1.45-.68zm2.34-5.51a.56.56 0 0 1 .56-.56.55.55 0 0 1 .55.56.54.54 0 0 1 -.55.55.55.55 0 0 1 -.56-.55zm.14 6.62v-5.31h.83v5.31zm6.08.01v-3.48c0-.95-.48-1.23-1.2-1.23a2.07 2.07 0 0 0 -1.57.83v3.88h-.83v-5.31h.84v.77a2.6 2.6 0 0 1 1.9-.9 1.51 1.51 0 0 1 1.68 1.72v3.73zm2.17-2.67a2.66 2.66 0 0 1 2.62-2.78 2.58 2.58 0 0 1 2.55 2.85v.21h-4.29a1.86 1.86 0 0 0 1.9 1.84 2.31 2.31 0 0 0 1.65-.68l.4.54a2.93 2.93 0 0 1 -2.11.83 2.64 2.64 0 0 1 -2.72-2.81zm2.61-2.1a1.77 1.77 0 0 0 -1.74 1.76h3.49a1.72 1.72 0 0 0 -1.76-1.76zm3.89 4.77v-5.31h.83v.85a2.29 2.29 0 0 1 1.77-1v.85h-.32a2 2 0 0 0 -1.45.85v3.76zm3.18-.71.42-.59a2.41 2.41 0 0 0 1.75.76c.81 0 1.27-.38 1.27-.91 0-1.29-3.29-.5-3.29-2.46 0-.84.7-1.53 2-1.53a2.65 2.65 0 0 1 2 .77l-.38.57a2.05 2.05 0 0 0 -1.58-.67c-.73 0-1.18.36-1.18.84 0 1.16 3.29.4 3.29 2.46 0 .89-.71 1.61-2.08 1.61a2.85 2.85 0 0 1 -2.22-.85z"/><path d="m61.02 322.1.55-.7a3 3 0 0 0 2.3 1.06c1.31 0 1.73-.7 1.73-1.28 0-1.89-4.35-.84-4.35-3.46 0-1.21 1.08-2 2.53-2a3.45 3.45 0 0 1 2.6 1l-.55.67a2.77 2.77 0 0 0 -2.12-.88c-.87 0-1.51.47-1.51 1.17 0 1.65 4.35.7 4.35 3.44 0 1.06-.73 2.16-2.71 2.16a3.65 3.65 0 0 1 -2.82-1.18zm7.68.23v2.83h-.83v-7.34h.83v.79a2.22 2.22 0 0 1 1.79-.92c1.4 0 2.37 1.06 2.37 2.78s-1 2.79-2.37 2.79a2.22 2.22 0 0 1 -1.79-.93zm3.29-1.86c0-1.18-.64-2-1.71-2a2 2 0 0 0 -1.58.85v2.4a2 2 0 0 0 1.58.86c1.05-.06 1.71-.94 1.71-2.11zm2.18 2.66v-5.31h.83v.85a2.29 2.29 0 0 1 1.77-1v.85h-.32a2 2 0 0 0 -1.45.85v3.76zm3.49-6.62a.56.56 0 0 1 .56-.56.55.55 0 0 1 .55.56.54.54 0 0 1 -.55.55.55.55 0 0 1 -.56-.55zm.14 6.62v-5.31h.83v5.31zm6.07 0v-3.48c0-.95-.48-1.23-1.2-1.23a2.07 2.07 0 0 0 -1.57.83v3.88h-.83v-5.31h.83v.77a2.6 2.6 0 0 1 1.9-.9 1.51 1.51 0 0 1 1.68 1.72v3.73zm2.46 1.35.42-.59a2.05 2.05 0 0 0 1.73.72 1.52 1.52 0 0 0 1.72-1.55v-.8a2.26 2.26 0 0 1 -1.79.95c-1.39 0-2.37-1-2.37-2.75s1-2.76 2.37-2.76a2.22 2.22 0 0 1 1.79.93v-.8h.83v5.24c0 1.68-1.24 2.23-2.54 2.23a2.71 2.71 0 0 1 -2.16-.82zm3.86-2.88v-2.33a2 2 0 0 0 -1.58-.85c-1.08 0-1.72.85-1.72 2s.64 2 1.72 2a2 2 0 0 0 1.59-.82zm4.92.5.55-.7a3 3 0 0 0 2.3 1.06c1.31 0 1.73-.7 1.73-1.28 0-1.89-4.35-.84-4.35-3.46 0-1.21 1.08-2 2.53-2a3.45 3.45 0 0 1 2.6 1l-.55.67a2.77 2.77 0 0 0 -2.12-.88c-.87 0-1.51.47-1.51 1.17 0 1.65 4.35.7 4.35 3.44 0 1.06-.73 2.16-2.71 2.16a3.65 3.65 0 0 1 -2.82-1.18zm6.55-1.63a2.66 2.66 0 0 1 2.62-2.78 2.58 2.58 0 0 1 2.55 2.85v.21h-4.29a1.86 1.86 0 0 0 1.9 1.84 2.31 2.31 0 0 0 1.65-.68l.4.54a2.93 2.93 0 0 1 -2.11.83 2.64 2.64 0 0 1 -2.72-2.81zm2.61-2.1a1.77 1.77 0 0 0 -1.74 1.76h3.49a1.72 1.72 0 0 0 -1.75-1.74zm3.58 2.1a2.62 2.62 0 0 1 2.65-2.78 2.27 2.27 0 0 1 1.95.92l-.55.5a1.56 1.56 0 0 0 -1.35-.68 2.06 2.06 0 0 0 0 4.1 1.6 1.6 0 0 0 1.35-.69l.55.51a2.27 2.27 0 0 1 -1.95.92 2.63 2.63 0 0 1 -2.65-2.8zm9.35 2.66v-.74a2.6 2.6 0 0 1 -1.89.88 1.5 1.5 0 0 1 -1.69-1.69v-3.75h.83v3.5c0 .94.47 1.21 1.2 1.21a2 2 0 0 0 1.56-.8v-3.91h.83v5.31zm2.48 0v-5.31h.83v.85a2.29 2.29 0 0 1 1.77-1v.85h-.32a2 2 0 0 0 -1.45.85v3.76zm3.48-6.62a.56.56 0 0 1 .56-.56.55.55 0 0 1 .55.56.54.54 0 0 1 -.55.55.55.55 0 0 1 -.56-.55zm.14 6.62v-5.31h.83v5.31zm2.65-1.11v-3.48h-.88v-.73h.88v-1.42h.84v1.45h1.08v.73h-1.08v3.3c0 .4.18.68.53.68a.78.78 0 0 0 .56-.23l.24.63a1.34 1.34 0 0 1 -1 .34 1.09 1.09 0 0 1 -1.17-1.27zm2.9 2.44a1.27 1.27 0 0 0 .45.09.76.76 0 0 0 .79-.56l.35-.8-2.22-5.37h.9l1.76 4.36 1.77-4.36h.89l-2.66 6.39a1.58 1.58 0 0 1 -1.55 1.08 2.51 2.51 0 0 1 -.59-.08zm12.68-1.33-1.86-2.92h-1.47v2.92h-.87v-7.34h2.95a2.15 2.15 0 0 1 2.31 2.21 2 2 0 0 1 -1.91 2.13l2 3zm.07-5.13a1.37 1.37 0 0 0 -1.47-1.4h-1.92v2.79h1.92a1.38 1.38 0 0 0 1.47-1.39zm1.73 2.47a2.66 2.66 0 0 1 2.62-2.78 2.58 2.58 0 0 1 2.55 2.85v.21h-4.29a1.86 1.86 0 0 0 1.9 1.84 2.31 2.31 0 0 0 1.65-.68l.4.54a2.93 2.93 0 0 1 -2.11.83 2.64 2.64 0 0 1 -2.72-2.81zm2.61-2.1a1.77 1.77 0 0 0 -1.74 1.76h3.49a1.72 1.72 0 0 0 -1.77-1.74zm7.2 4.76v-.61a2.28 2.28 0 0 1 -1.76.74 1.77 1.77 0 0 1 -1.85-1.76 1.73 1.73 0 0 1 1.85-1.75 2.25 2.25 0 0 1 1.76.72v-1c0-.7-.57-1.11-1.34-1.11a2.07 2.07 0 0 0 -1.63.74l-.39-.57a2.78 2.78 0 0 1 2.12-.88c1.13 0 2.06.51 2.06 1.79v3.65zm0-1.12v-1a1.8 1.8 0 0 0 -1.45-.65 1.17 1.17 0 1 0 0 2.32 1.77 1.77 0 0 0 1.45-.67zm2.19-1.54a2.63 2.63 0 0 1 2.65-2.78 2.27 2.27 0 0 1 1.95.92l-.55.5a1.56 1.56 0 0 0 -1.35-.68 2.06 2.06 0 0 0 0 4.1 1.6 1.6 0 0 0 1.35-.69l.55.51a2.27 2.27 0 0 1 -1.95.92 2.63 2.63 0 0 1 -2.65-2.8zm5.91 1.55v-3.48h-.91v-.73h.88v-1.42h.84v1.45h1.08v.73h-1.08v3.3c0 .4.18.68.53.68a.78.78 0 0 0 .56-.23l.24.63a1.34 1.34 0 0 1 -1 .34 1.09 1.09 0 0 1 -1.14-1.27zm2.93-5.51a.56.56 0 0 1 .56-.56.55.55 0 0 1 .55.56.54.54 0 0 1 -.55.55.55.55 0 0 1 -.56-.55zm.14 6.62v-5.31h.83v5.31zm3.9 0-2.21-5.31h.9l1.76 4.36 1.77-4.36h.9l-2.21 5.31zm3.66-2.66a2.66 2.66 0 0 1 2.62-2.78 2.58 2.58 0 0 1 2.55 2.85v.21h-4.29a1.86 1.86 0 0 0 1.9 1.84 2.31 2.31 0 0 0 1.65-.68l.4.54a2.93 2.93 0 0 1 -2.11.83 2.64 2.64 0 0 1 -2.72-2.81zm2.61-2.1a1.77 1.77 0 0 0 -1.74 1.76h3.49a1.72 1.72 0 0 0 -1.75-1.74z"/><path d="m335.01 322.1.55-.7a3 3 0 0 0 2.3 1.06c1.31 0 1.73-.7 1.73-1.28 0-1.89-4.35-.84-4.35-3.46 0-1.21 1.08-2 2.53-2a3.45 3.45 0 0 1 2.6 1l-.55.67a2.77 2.77 0 0 0 -2.12-.88c-.87 0-1.51.47-1.51 1.17 0 1.65 4.35.7 4.35 3.44 0 1.06-.73 2.16-2.71 2.16a3.65 3.65 0 0 1 -2.82-1.18zm7.68.23v2.83h-.83v-7.34h.83v.79a2.22 2.22 0 0 1 1.79-.92c1.4 0 2.37 1.06 2.37 2.78s-1 2.79-2.37 2.79a2.22 2.22 0 0 1 -1.79-.93zm3.29-1.86c0-1.18-.64-2-1.71-2a2 2 0 0 0 -1.58.85v2.4a2 2 0 0 0 1.58.86c1.06-.06 1.7-.94 1.7-2.11zm2.17 2.66v-5.31h.83v.85a2.29 2.29 0 0 1 1.77-1v.85h-.32a1.94 1.94 0 0 0 -1.45.85v3.76zm3.49-6.62a.56.56 0 0 1 .56-.56.55.55 0 0 1 .55.56.54.54 0 0 1 -.55.55.55.55 0 0 1 -.56-.55zm.14 6.62v-5.31h.83v5.31zm6.07 0v-3.48c0-.95-.48-1.23-1.2-1.23a2.07 2.07 0 0 0 -1.57.83v3.88h-.83v-5.31h.83v.77a2.6 2.6 0 0 1 1.9-.9 1.51 1.51 0 0 1 1.68 1.72v3.73zm2.48 1.35.42-.59a2 2 0 0 0 1.73.72 1.52 1.52 0 0 0 1.72-1.55v-.8a2.26 2.26 0 0 1 -1.79.95c-1.39 0-2.37-1-2.37-2.75s1-2.76 2.37-2.76a2.22 2.22 0 0 1 1.79.93v-.8h.83v5.24c0 1.68-1.24 2.23-2.54 2.23a2.72 2.72 0 0 1 -2.16-.82zm3.86-2.88v-2.33a2 2 0 0 0 -1.58-.85c-1.08 0-1.72.85-1.72 2s.64 2 1.72 2a2 2 0 0 0 1.57-.82zm4.91.5.55-.7a3 3 0 0 0 2.3 1.06c1.31 0 1.73-.7 1.73-1.28 0-1.89-4.35-.84-4.35-3.46 0-1.21 1.08-2 2.53-2a3.45 3.45 0 0 1 2.6 1l-.55.67a2.77 2.77 0 0 0 -2.12-.88c-.87 0-1.51.47-1.51 1.17 0 1.65 4.35.7 4.35 3.44 0 1.06-.73 2.16-2.71 2.16a3.65 3.65 0 0 1 -2.82-1.18zm6.54-1.63a2.66 2.66 0 0 1 2.62-2.78 2.58 2.58 0 0 1 2.55 2.85v.21h-4.29a1.86 1.86 0 0 0 1.9 1.84 2.31 2.31 0 0 0 1.65-.68l.4.54a2.93 2.93 0 0 1 -2.11.83 2.64 2.64 0 0 1 -2.72-2.81zm2.61-2.1a1.77 1.77 0 0 0 -1.74 1.76h3.49a1.72 1.72 0 0 0 -1.75-1.74zm3.58 2.1a2.63 2.63 0 0 1 2.65-2.78 2.27 2.27 0 0 1 1.95.92l-.55.5a1.57 1.57 0 0 0 -1.35-.68 2.06 2.06 0 0 0 0 4.1 1.6 1.6 0 0 0 1.35-.69l.55.51a2.27 2.27 0 0 1 -1.95.92 2.63 2.63 0 0 1 -2.65-2.8zm9.35 2.66v-.74a2.6 2.6 0 0 1 -1.89.88 1.5 1.5 0 0 1 -1.69-1.69v-3.75h.83v3.5c0 .94.47 1.21 1.2 1.21a2 2 0 0 0 1.56-.8v-3.91h.83v5.31zm2.48 0v-5.31h.83v.85a2.29 2.29 0 0 1 1.77-1v.85h-.32a2 2 0 0 0 -1.45.85v3.76zm3.49-6.62a.56.56 0 0 1 .56-.56.55.55 0 0 1 .55.56.54.54 0 0 1 -.55.55.55.55 0 0 1 -.56-.55zm.14 6.62v-5.31h.83v5.31zm2.64-1.11v-3.48h-.88v-.73h.88v-1.42h.84v1.45h1.08v.73h-1.08v3.3c0 .4.18.68.53.68a.78.78 0 0 0 .56-.23l.24.63a1.34 1.34 0 0 1 -1 .34 1.09 1.09 0 0 1 -1.17-1.27zm2.9 2.44a1.27 1.27 0 0 0 .45.09.76.76 0 0 0 .79-.56l.35-.8-2.22-5.37h.9l1.76 4.36 1.77-4.36h.89l-2.66 6.39a1.58 1.58 0 0 1 -1.53 1.08 2.51 2.51 0 0 1 -.59-.08z"/><path d="m327.13 265.52.55-.7a3 3 0 0 0 2.3 1.06c1.31 0 1.73-.7 1.73-1.28 0-1.89-4.35-.84-4.35-3.46 0-1.21 1.08-2 2.53-2a3.45 3.45 0 0 1 2.6 1l-.55.67a2.77 2.77 0 0 0 -2.12-.88c-.87 0-1.51.47-1.51 1.17 0 1.65 4.35.7 4.35 3.44 0 1.06-.73 2.16-2.71 2.16a3.65 3.65 0 0 1 -2.82-1.18zm6.54-1.63a2.66 2.66 0 0 1 2.62-2.78 2.58 2.58 0 0 1 2.55 2.85v.21h-4.29a1.86 1.86 0 0 0 1.9 1.84 2.31 2.31 0 0 0 1.65-.68l.4.54a2.93 2.93 0 0 1 -2.11.83 2.64 2.64 0 0 1 -2.72-2.81zm2.61-2.1a1.77 1.77 0 0 0 -1.74 1.76h3.49a1.72 1.72 0 0 0 -1.75-1.76zm3.89 4.76v-5.31h.83v.85a2.29 2.29 0 0 1 1.77-1v.85h-.32a2 2 0 0 0 -1.45.85v3.76zm5.05 0-2.21-5.31h.9l1.76 4.36 1.77-4.36h.89l-2.21 5.31zm3.97 0v-7.34h.83v7.34zm2.14-2.66a2.66 2.66 0 0 1 2.62-2.78 2.58 2.58 0 0 1 2.55 2.85v.21h-4.29a1.86 1.86 0 0 0 1.9 1.84 2.31 2.31 0 0 0 1.65-.68l.4.54a2.93 2.93 0 0 1 -2.11.83 2.64 2.64 0 0 1 -2.72-2.81zm2.61-2.1a1.77 1.77 0 0 0 -1.74 1.76h3.49a1.72 1.72 0 0 0 -1.72-1.76zm4.09 3.6v-3.48h-.88v-.73h.88v-1.45h.84v1.45h1.08v.73h-1.08v3.3c0 .4.18.68.53.68a.78.78 0 0 0 .56-.23l.24.63a1.34 1.34 0 0 1 -1 .34 1.09 1.09 0 0 1 -1.17-1.24zm5.65-2.5a3.67 3.67 0 0 1 3.77-3.8 3.26 3.26 0 0 1 2.78 1.45l-.76.43a2.47 2.47 0 0 0 -2-1.07 3 3 0 0 0 0 6 2.5 2.5 0 0 0 2-1.07l.77.42a3.3 3.3 0 0 1 -2.79 1.46 3.67 3.67 0 0 1 -3.77-3.82zm7.39 1a2.63 2.63 0 1 1 2.63 2.79 2.61 2.61 0 0 1 -2.63-2.79zm4.39 0a1.78 1.78 0 1 0 -1.76 2.06 1.85 1.85 0 0 0 1.76-2.06zm5.81 2.66v-3.48c0-.95-.48-1.23-1.2-1.23a2.07 2.07 0 0 0 -1.57.83v3.88h-.83v-5.31h.83v.77a2.6 2.6 0 0 1 1.9-.9 1.51 1.51 0 0 1 1.68 1.72v3.73zm2.64-1.16v-3.48h-.88v-.73h.88v-1.45h.84v1.45h1.08v.73h-1.08v3.3c0 .4.18.68.53.68a.78.78 0 0 0 .56-.23l.24.63a1.34 1.34 0 0 1 -1 .34 1.09 1.09 0 0 1 -1.17-1.24zm6.42 1.16v-.61a2.28 2.28 0 0 1 -1.76.74 1.77 1.77 0 0 1 -1.85-1.76 1.73 1.73 0 0 1 1.85-1.75 2.25 2.25 0 0 1 1.76.72v-1c0-.7-.57-1.11-1.34-1.11a2.07 2.07 0 0 0 -1.63.74l-.38-.57a2.78 2.78 0 0 1 2.12-.88c1.13 0 2.06.51 2.06 1.79v3.65zm0-1.12v-1a1.8 1.8 0 0 0 -1.45-.65 1.17 1.17 0 1 0 0 2.32 1.77 1.77 0 0 0 1.45-.71zm2.31-5.5a.56.56 0 0 1 .56-.56.55.55 0 0 1 .55.56.54.54 0 0 1 -.55.55.55.55 0 0 1 -.56-.55zm.14 6.62v-5.31h.83v5.31zm6.08 0v-3.48c0-.95-.48-1.23-1.2-1.23a2.07 2.07 0 0 0 -1.57.83v3.88h-.83v-5.31h.83v.77a2.6 2.6 0 0 1 1.9-.9 1.51 1.51 0 0 1 1.68 1.72v3.73zm2.16-2.66a2.66 2.66 0 0 1 2.62-2.78 2.58 2.58 0 0 1 2.55 2.85v.21h-4.29a1.86 1.86 0 0 0 1.9 1.84 2.31 2.31 0 0 0 1.65-.68l.4.54a2.93 2.93 0 0 1 -2.11.83 2.64 2.64 0 0 1 -2.72-2.81zm2.61-2.1a1.77 1.77 0 0 0 -1.74 1.76h3.44a1.72 1.72 0 0 0 -1.7-1.76zm3.89 4.76v-5.31h.81v.85a2.29 2.29 0 0 1 1.77-1v.85h-.32a1.94 1.94 0 0 0 -1.45.85v3.76zm3.18-.7.42-.59a2.41 2.41 0 0 0 1.75.76c.81 0 1.27-.38 1.27-.91 0-1.29-3.29-.5-3.29-2.46 0-.84.7-1.53 2-1.53a2.65 2.65 0 0 1 2 .77l-.38.57a2.05 2.05 0 0 0 -1.58-.67c-.73 0-1.18.36-1.18.84 0 1.16 3.29.4 3.29 2.46 0 .89-.71 1.61-2.08 1.61a2.85 2.85 0 0 1 -2.22-.85z"/><path d="m271 161.06.58-.74a3.17 3.17 0 0 0 2.4 1.1c1.37 0 1.81-.74 1.81-1.33 0-2-4.54-.87-4.54-3.61 0-1.27 1.13-2.14 2.65-2.14a3.6 3.6 0 0 1 2.71 1.08l-.58.7a2.9 2.9 0 0 0 -2.22-.92c-.91 0-1.58.49-1.58 1.22 0 1.73 4.54.74 4.54 3.6 0 1.1-.76 2.25-2.83 2.25a3.82 3.82 0 0 1 -2.94-1.21zm7.83.25v3h-.86v-7.72h.86v.8a2.32 2.32 0 0 1 1.88-1c1.46 0 2.47 1.1 2.47 2.91s-1 2.92-2.47 2.92a2.32 2.32 0 0 1 -1.88-.91zm3.44-1.94c0-1.23-.67-2.14-1.78-2.14a2.05 2.05 0 0 0 -1.66.89v2.51a2.06 2.06 0 0 0 1.66.9c1.11-.02 1.78-.94 1.78-2.14zm2.06 2.78v-5.56h.86v.89a2.4 2.4 0 0 1 1.85-1v.91h-.33a2 2 0 0 0 -1.52.89v3.93zm3.47-6.93a.59.59 0 0 1 .59-.59.58.58 0 0 1 .58.59.57.57 0 0 1 -.58.58.58.58 0 0 1 -.59-.58zm.15 6.93v-5.56h.86v5.56zm6.15 0v-3.64c0-1-.51-1.29-1.25-1.29a2.17 2.17 0 0 0 -1.65.86v4.06h-.87v-5.55h.86v.8a2.72 2.72 0 0 1 2-.94 1.58 1.58 0 0 1 1.76 1.79v3.9zm2.38 1.41.44-.62a2.14 2.14 0 0 0 1.81.75 1.59 1.59 0 0 0 1.79-1.62v-.84a2.36 2.36 0 0 1 -1.87 1c-1.45 0-2.47-1.08-2.47-2.88s1-2.89 2.47-2.89a2.32 2.32 0 0 1 1.88 1v-.84h.86v5.48c0 1.76-1.3 2.33-2.66 2.33a2.84 2.84 0 0 1 -2.25-.87zm4-3v-2.44a2.1 2.1 0 0 0 -1.66-.89c-1.13 0-1.79.89-1.79 2.12s.67 2.11 1.79 2.11a2.08 2.08 0 0 0 1.7-.91zm11.85 1.59v-6.46l-2.6 6.45h-.4l-2.61-6.45v6.45h-1v-7.67h1.37l2.39 5.91 2.38-5.91h1.37v7.67zm4.81 0-3.09-7.67h1.09l2.59 6.63 2.59-6.63h1.09l-3.08 7.67zm4.53-3.84a3.84 3.84 0 0 1 3.95-4 3.41 3.41 0 0 1 2.91 1.52l-.79.45a2.58 2.58 0 0 0 -2.12-1.12 3.12 3.12 0 0 0 0 6.24 2.61 2.61 0 0 0 2.12-1.12l.81.44a3.45 3.45 0 0 1 -2.92 1.53 3.84 3.84 0 0 1 -3.96-3.94zm10.49-3.09a.59.59 0 0 1 .59-.59.58.58 0 0 1 .58.59.57.57 0 0 1 -.58.58.58.58 0 0 1 -.59-.58zm.15 6.93v-5.56h.86v5.56zm1.92-.76.44-.62a2.52 2.52 0 0 0 1.83.79c.85 0 1.32-.4 1.32-1 0-1.35-3.44-.52-3.44-2.58 0-.87.74-1.6 2.06-1.6a2.78 2.78 0 0 1 2.06.81l-.4.6a2.14 2.14 0 0 0 -1.66-.7c-.76 0-1.23.38-1.23.87 0 1.21 3.44.41 3.44 2.58 0 .93-.75 1.68-2.17 1.68a3 3 0 0 1 -2.25-.83zm8.4.76v-7.67h.86v3a2.32 2.32 0 0 1 1.88-1c1.46 0 2.47 1.14 2.47 2.92s-1 2.91-2.47 2.91a2.34 2.34 0 0 1 -1.88-1v.83zm2.53-.63c1.12 0 1.78-.91 1.78-2.14s-.67-2.15-1.78-2.15a2.07 2.07 0 0 0 -1.67.9v2.52a2.05 2.05 0 0 0 1.67.86zm7.64.63v-.76a2.72 2.72 0 0 1 -2 .92 1.57 1.57 0 0 1 -1.77-1.77v-3.95h.86v3.66c0 1 .5 1.27 1.25 1.27a2.12 2.12 0 0 0 1.63-.84v-4.09h.86v5.56zm2.24-6.93a.59.59 0 0 1 .59-.59.58.58 0 0 1 .58.59.57.57 0 0 1 -.58.58.58.58 0 0 1 -.59-.58zm.15 6.93v-5.56h.86v5.56zm2.39 0v-7.67h.86v7.67zm2.57-1.17v-3.59h-.92v-.76h.92v-1.52h.87v1.52h1.13v.76h-1.13v3.45c0 .41.18.71.55.71a.82.82 0 0 0 .59-.24l.25.66a1.4 1.4 0 0 1 -1 .36 1.14 1.14 0 0 1 -1.26-1.35zm5.47-1.59a2.75 2.75 0 1 1 2.75 2.92 2.73 2.73 0 0 1 -2.75-2.92zm4.59 0a1.86 1.86 0 1 0 -1.84 2.15 1.93 1.93 0 0 0 1.84-2.15zm5.88 2.76v-3.64c0-1-.51-1.29-1.25-1.29a2.17 2.17 0 0 0 -1.65.86v4.06h-.86v-5.55h.86v.8a2.72 2.72 0 0 1 2-.94 1.58 1.58 0 0 1 1.76 1.79v3.9zm5.34-1.17v-3.59h-.92v-.76h.92v-1.52h.9v1.52h1.13v.76h-1.13v3.45c0 .41.18.71.55.71a.82.82 0 0 0 .59-.24l.25.66a1.4 1.4 0 0 1 -1 .36 1.14 1.14 0 0 1 -1.29-1.35zm6.78 1.17v-3.66c0-1-.5-1.27-1.25-1.27a2.14 2.14 0 0 0 -1.63.86v4.06h-.86v-7.67h.86v2.92a2.67 2.67 0 0 1 2-.94 1.56 1.56 0 0 1 1.77 1.77v3.92zm2.07-2.76a2.78 2.78 0 0 1 2.74-2.91 2.7 2.7 0 0 1 2.67 3v.22h-4.49a2 2 0 0 0 2 1.92 2.42 2.42 0 0 0 1.73-.71l.41.56a3.07 3.07 0 0 1 -2.21.86 2.76 2.76 0 0 1 -2.85-2.94zm2.73-2.2a1.85 1.85 0 0 0 -1.82 1.84h3.65a1.8 1.8 0 0 0 -1.84-1.87zm6.22 3.87.58-.74a3.17 3.17 0 0 0 2.4 1.1c1.37 0 1.81-.74 1.81-1.33 0-2-4.54-.87-4.54-3.61 0-1.27 1.13-2.14 2.65-2.14a3.6 3.6 0 0 1 2.71 1.08l-.58.7a2.9 2.9 0 0 0 -2.22-.92c-.91 0-1.58.49-1.58 1.22 0 1.73 4.54.74 4.54 3.6 0 1.1-.76 2.25-2.83 2.25a3.82 3.82 0 0 1 -2.94-1.21zm6.65-1.67a2.78 2.78 0 0 1 2.74-2.91 2.7 2.7 0 0 1 2.67 3v.22h-4.49a2 2 0 0 0 2 1.92 2.42 2.42 0 0 0 1.73-.71l.41.56a3.07 3.07 0 0 1 -2.21.86 2.76 2.76 0 0 1 -2.85-2.94zm2.73-2.2a1.85 1.85 0 0 0 -1.82 1.84h3.65a1.8 1.8 0 0 0 -1.83-1.87zm3.87 4.96v-5.56h.85v.89a2.39 2.39 0 0 1 1.85-1v.91h-.33a2 2 0 0 0 -1.52.89v3.93zm5.09 0-2.31-5.56h.94l1.84 4.56 1.85-4.56h.93l-2.31 5.56zm3.95 0v-7.67h.86v7.67zm2.07-2.76a2.78 2.78 0 0 1 2.74-2.91 2.7 2.7 0 0 1 2.67 3v.22h-4.49a2 2 0 0 0 2 1.92 2.41 2.41 0 0 0 1.73-.71l.41.56a3.07 3.07 0 0 1 -2.21.86 2.76 2.76 0 0 1 -2.85-2.94zm2.73-2.2a1.85 1.85 0 0 0 -1.82 1.84h3.65a1.8 1.8 0 0 0 -1.82-1.87zm4.01 3.79v-3.59h-.92v-.76h.92v-1.52h.87v1.52h1.13v.76h-1.13v3.45c0 .41.18.71.55.71a.82.82 0 0 0 .59-.24l.25.66a1.4 1.4 0 0 1 -1 .36 1.14 1.14 0 0 1 -1.26-1.35zm11.34 1.17-.68-1.71h-3.82l-.68 1.71h-1.09l3.09-7.67h1.18l3.08 7.67zm-2.59-6.7-1.62 4.14h3.26zm4.49 6.7v-7.67h3.08a2.315 2.315 0 1 1 0 4.63h-2.13v3zm4.5-5.36a1.43 1.43 0 0 0 -1.53-1.46h-2v2.92h2a1.43 1.43 0 0 0 1.52-1.47zm2.05 5.36v-7.67h1v7.67zm-175.22 15v-.63a2.39 2.39 0 0 1 -1.84.77 1.85 1.85 0 0 1 -1.93-1.84 1.8 1.8 0 0 1 1.93-1.83 2.36 2.36 0 0 1 1.84.75v-1c0-.74-.6-1.16-1.4-1.16a2.17 2.17 0 0 0 -1.7.77l-.4-.6a2.91 2.91 0 0 1 2.22-.92c1.19 0 2.15.53 2.15 1.88v3.82zm0-1.17v-1.06a1.88 1.88 0 0 0 -1.52-.68 1.22 1.22 0 1 0 0 2.43 1.85 1.85 0 0 0 1.52-.7zm6.16 1.17v-3.64c0-1-.51-1.29-1.25-1.29a2.17 2.17 0 0 0 -1.65.86v4.06h-.83v-5.55h.86v.8a2.72 2.72 0 0 1 2-.94 1.58 1.58 0 0 1 1.76 1.79v3.9zm6.42 0v-.83a2.34 2.34 0 0 1 -1.87 1c-1.45 0-2.47-1.1-2.47-2.91s1-2.92 2.47-2.92a2.32 2.32 0 0 1 1.88 1v-3h.84v7.67zm0-1.52v-2.51a2.06 2.06 0 0 0 -1.66-.9c-1.13 0-1.79.92-1.79 2.15s.67 2.14 1.79 2.14a2.05 2.05 0 0 0 1.66-.88zm8.92 1.52v-.76a2.72 2.72 0 0 1 -2 .92 1.57 1.57 0 0 1 -1.77-1.77v-3.95h.86v3.66c0 1 .5 1.27 1.25 1.27a2.12 2.12 0 0 0 1.63-.84v-4.09h.86v5.56zm1.93-.76.44-.62a2.52 2.52 0 0 0 1.83.79c.85 0 1.32-.4 1.32-1 0-1.35-3.44-.52-3.44-2.58 0-.87.74-1.6 2.06-1.6a2.78 2.78 0 0 1 2.06.81l-.4.6a2.14 2.14 0 0 0 -1.66-.7c-.76 0-1.23.38-1.23.87 0 1.21 3.44.41 3.44 2.58 0 .93-.75 1.68-2.17 1.68a3 3 0 0 1 -2.25-.83zm5.29-2a2.78 2.78 0 0 1 2.74-2.91 2.7 2.7 0 0 1 2.67 3v.22h-4.49a2 2 0 0 0 2 1.92 2.42 2.42 0 0 0 1.73-.71l.41.56a3.07 3.07 0 0 1 -2.21.86 2.76 2.76 0 0 1 -2.85-2.94zm2.73-2.2a1.85 1.85 0 0 0 -1.82 1.84h3.65a1.8 1.8 0 0 0 -1.85-1.87zm3.4 4.2.44-.62a2.52 2.52 0 0 0 1.83.79c.85 0 1.32-.4 1.32-1 0-1.35-3.44-.52-3.44-2.58 0-.87.74-1.6 2.06-1.6a2.78 2.78 0 0 1 2.06.81l-.4.6a2.14 2.14 0 0 0 -1.66-.7c-.76 0-1.23.38-1.23.87 0 1.21 3.44.41 3.44 2.58 0 .93-.75 1.68-2.17 1.68a3 3 0 0 1 -2.25-.83zm11.89.76v-.63a2.39 2.39 0 0 1 -1.84.77 1.85 1.85 0 0 1 -1.93-1.84 1.8 1.8 0 0 1 1.93-1.83 2.36 2.36 0 0 1 1.84.75v-1c0-.74-.6-1.16-1.4-1.16a2.17 2.17 0 0 0 -1.7.77l-.4-.6a2.91 2.91 0 0 1 2.22-.92c1.19 0 2.15.53 2.15 1.88v3.82zm0-1.17v-1.06a1.88 1.88 0 0 0 -1.52-.68 1.22 1.22 0 1 0 0 2.43 1.85 1.85 0 0 0 1.52-.7zm4.69.41.44-.62a2.52 2.52 0 0 0 1.83.79c.85 0 1.32-.4 1.32-1 0-1.35-3.44-.52-3.44-2.58 0-.87.74-1.6 2.06-1.6a2.78 2.78 0 0 1 2.06.81l-.4.6a2.14 2.14 0 0 0 -1.66-.7c-.76 0-1.23.38-1.23.87 0 1.21 3.44.41 3.44 2.58 0 .93-.75 1.68-2.17 1.68a3 3 0 0 1 -2.25-.83zm5.47 2.15a1.34 1.34 0 0 0 .47.09.8.8 0 0 0 .83-.59l.37-.84-2.32-5.61h.94l1.84 4.56 1.85-4.56h.93l-2.78 6.68a1.65 1.65 0 0 1 -1.6 1.12 2.63 2.63 0 0 1 -.62-.08zm9.37-1.39v-3.64c0-1-.51-1.29-1.25-1.29a2.17 2.17 0 0 0 -1.65.86v4.06h-.86v-5.55h.86v.8a2.72 2.72 0 0 1 2-.94 1.58 1.58 0 0 1 1.76 1.79v3.9zm2.07-2.76a2.75 2.75 0 0 1 2.77-2.91 2.38 2.38 0 0 1 2 1l-.58.52a1.64 1.64 0 0 0 -1.42-.71 2.16 2.16 0 0 0 0 4.29 1.68 1.68 0 0 0 1.42-.72l.58.53a2.38 2.38 0 0 1 -2 1 2.75 2.75 0 0 1 -2.77-3zm9.59 2.76v-3.66c0-1-.5-1.27-1.25-1.27a2.14 2.14 0 0 0 -1.63.86v4.06h-.86v-7.67h.86v2.92a2.67 2.67 0 0 1 2-.94 1.56 1.56 0 0 1 1.77 1.77v3.92zm2.39 0v-5.56h.86v.89a2.39 2.39 0 0 1 1.85-1v.91h-.33a2 2 0 0 0 -1.52.89v3.93zm3.28-2.76a2.75 2.75 0 1 1 2.75 2.92 2.73 2.73 0 0 1 -2.75-2.92zm4.59 0a1.86 1.86 0 1 0 -1.84 2.15 1.93 1.93 0 0 0 1.84-2.15zm5.88 2.76v-3.64c0-1-.51-1.29-1.25-1.29a2.17 2.17 0 0 0 -1.65.86v4.06h-.86v-5.55h.86v.8a2.72 2.72 0 0 1 2-.94 1.58 1.58 0 0 1 1.76 1.79v3.9zm2.07-2.76a2.75 2.75 0 1 1 2.75 2.92 2.73 2.73 0 0 1 -2.75-2.92zm4.59 0a1.86 1.86 0 1 0 -1.84 2.15 1.93 1.93 0 0 0 1.84-2.15zm5.86 2.76v-.76a2.72 2.72 0 0 1 -2 .92 1.57 1.57 0 0 1 -1.77-1.77v-3.95h.86v3.66c0 1 .5 1.27 1.25 1.27a2.12 2.12 0 0 0 1.63-.84v-4.09h.87v5.56zm1.92-.76.44-.62a2.52 2.52 0 0 0 1.83.79c.85 0 1.32-.4 1.32-1 0-1.35-3.44-.52-3.44-2.58 0-.87.74-1.6 2.06-1.6a2.78 2.78 0 0 1 2.06.81l-.4.6a2.14 2.14 0 0 0 -1.66-.7c-.76 0-1.23.38-1.23.87 0 1.21 3.44.41 3.44 2.58 0 .93-.75 1.68-2.17 1.68a3 3 0 0 1 -2.25-.83zm8.41.76v-7.67h.86v3a2.32 2.32 0 0 1 1.88-1c1.46 0 2.47 1.14 2.47 2.92s-1 2.91-2.47 2.91a2.34 2.34 0 0 1 -1.87-1v.83zm2.53-.63c1.12 0 1.78-.91 1.78-2.14s-.67-2.15-1.78-2.15a2.07 2.07 0 0 0 -1.67.9v2.52a2.05 2.05 0 0 0 1.65.86zm3.88.63v-7.67h.86v7.67zm2.1-2.76a2.76 2.76 0 1 1 2.75 2.92 2.73 2.73 0 0 1 -2.75-2.92zm4.59 0a1.86 1.86 0 1 0 -1.84 2.15 1.93 1.93 0 0 0 1.81-2.15zm1.77 0a2.75 2.75 0 0 1 2.77-2.91 2.38 2.38 0 0 1 2 1l-.58.52a1.64 1.64 0 0 0 -1.42-.71 2.16 2.16 0 0 0 0 4.29 1.68 1.68 0 0 0 1.42-.72l.58.53a2.38 2.38 0 0 1 -2 1 2.75 2.75 0 0 1 -2.77-3zm9.64 2.76-2-2.5-.93.91v1.59h-.86v-7.67h.79v5.07l2.92-3h1.09l-2.46 2.52 2.47 3zm1.75-6.93a.59.59 0 0 1 .59-.59.58.58 0 0 1 .58.59.57.57 0 0 1 -.58.58.58.58 0 0 1 -.59-.58zm.15 6.93v-5.56h.86v5.56zm6.16 0v-3.64c0-1-.51-1.29-1.25-1.29a2.17 2.17 0 0 0 -1.65.86v4.06h-.86v-5.55h.86v.8a2.72 2.72 0 0 1 2-.94 1.58 1.58 0 0 1 1.76 1.79v3.9zm2.37 1.41.44-.62a2.15 2.15 0 0 0 1.81.75 1.59 1.59 0 0 0 1.79-1.62v-.84a2.36 2.36 0 0 1 -1.88 1c-1.45 0-2.47-1.08-2.47-2.88s1-2.89 2.47-2.89a2.32 2.32 0 0 1 1.88 1v-.84h.86v5.48c0 1.76-1.3 2.33-2.66 2.33a2.84 2.84 0 0 1 -2.24-.87zm4-3v-2.44a2.1 2.1 0 0 0 -1.66-.89c-1.13 0-1.79.89-1.79 2.12s.67 2.11 1.79 2.11a2.08 2.08 0 0 0 1.7-.91zm5.25 1.59v-7.67h1v7.67zm1.66.24 2.73-8.13h.68l-2.75 8.13zm3.79-4.08a3.82 3.82 0 1 1 3.81 4 3.75 3.75 0 0 1 -3.81-4zm6.64 0a2.84 2.84 0 1 0 -2.83 3.12 2.85 2.85 0 0 0 2.83-3.12zm-173.2 18.84v-.63a2.39 2.39 0 0 1 -1.84.77 1.85 1.85 0 0 1 -1.93-1.84 1.8 1.8 0 0 1 1.93-1.83 2.36 2.36 0 0 1 1.84.75v-1c0-.74-.6-1.16-1.4-1.16a2.17 2.17 0 0 0 -1.7.77l-.4-.6a2.91 2.91 0 0 1 2.22-.92c1.19 0 2.15.53 2.15 1.88v3.82zm0-1.17v-1.06a1.88 1.88 0 0 0 -1.52-.68 1.22 1.22 0 1 0 0 2.43 1.85 1.85 0 0 0 1.52-.7zm2.43 1.17v-5.56h.86v.89a2.39 2.39 0 0 1 1.85-1v.91h-.33a2 2 0 0 0 -1.52.89v3.93zm3.25-2.76a2.75 2.75 0 0 1 2.77-2.91 2.38 2.38 0 0 1 2 1l-.58.52a1.64 1.64 0 0 0 -1.42-.71 2.16 2.16 0 0 0 0 4.29 1.68 1.68 0 0 0 1.42-.72l.58.53a2.38 2.38 0 0 1 -2 1 2.75 2.75 0 0 1 -2.77-3zm9.59 2.76v-3.66c0-1-.5-1.27-1.25-1.27a2.14 2.14 0 0 0 -1.63.86v4.06h-.86v-7.67h.9v2.92a2.67 2.67 0 0 1 2-.94 1.56 1.56 0 0 1 1.77 1.77v3.92zm2.24-6.93a.59.59 0 0 1 .59-.59.58.58 0 0 1 .58.59.57.57 0 0 1 -.58.58.58.58 0 0 1 -.59-.58zm.15 6.93v-5.56h.86v5.56zm2.57-1.17v-3.59h-.92v-.76h.92v-1.52h.87v1.52h1.13v.76h-1.13v3.45c0 .41.18.71.55.71a.82.82 0 0 0 .59-.24l.25.66a1.4 1.4 0 0 1 -1 .36 1.14 1.14 0 0 1 -1.26-1.35zm2.69-1.59a2.78 2.78 0 0 1 2.74-2.91 2.7 2.7 0 0 1 2.67 3v.22h-4.49a2 2 0 0 0 2 1.92 2.41 2.41 0 0 0 1.73-.71l.41.56a3.07 3.07 0 0 1 -2.21.86 2.76 2.76 0 0 1 -2.85-2.94zm2.73-2.2a1.85 1.85 0 0 0 -1.82 1.84h3.6a1.8 1.8 0 0 0 -1.79-1.87zm3.55 2.2a2.75 2.75 0 0 1 2.77-2.91 2.38 2.38 0 0 1 2 1l-.58.52a1.64 1.64 0 0 0 -1.42-.71 2.16 2.16 0 0 0 0 4.29 1.68 1.68 0 0 0 1.42-.72l.58.53a2.38 2.38 0 0 1 -2 1 2.75 2.75 0 0 1 -2.77-3zm6 1.59v-3.59h-.92v-.76h.92v-1.52h.87v1.52h1.13v.76h-1.13v3.45c0 .41.18.71.55.71a.82.82 0 0 0 .59-.24l.25.66a1.4 1.4 0 0 1 -1 .36 1.14 1.14 0 0 1 -1.26-1.35zm6.76 1.17v-.76a2.72 2.72 0 0 1 -2 .92 1.57 1.57 0 0 1 -1.77-1.77v-3.95h.86v3.66c0 1 .5 1.27 1.25 1.27a2.12 2.12 0 0 0 1.63-.84v-4.09h.86v5.56zm2.39 0v-5.56h.86v.89a2.39 2.39 0 0 1 1.85-1v.91h-.33a2 2 0 0 0 -1.52.89v3.93zm3.28-2.76a2.78 2.78 0 0 1 2.74-2.91 2.7 2.7 0 0 1 2.67 3v.22h-4.49a2 2 0 0 0 2 1.92 2.41 2.41 0 0 0 1.73-.71l.41.56a3.07 3.07 0 0 1 -2.21.86 2.76 2.76 0 0 1 -2.85-2.94zm2.73-2.2a1.85 1.85 0 0 0 -1.82 1.84h3.65a1.8 1.8 0 0 0 -1.83-1.87zm11.46 4.96-1.45-4.46-1.45 4.46h-.86l-1.77-5.56h.9l1.36 4.43 1.46-4.43h.75l1.45 4.43 1.36-4.43h.86l-1.77 5.56zm3.29-6.93a.59.59 0 0 1 .59-.59.58.58 0 0 1 .58.59.57.57 0 0 1 -.58.58.58.58 0 0 1 -.59-.58zm.15 6.93v-5.56h.86v5.56zm2.56-1.17v-3.59h-.92v-.76h.92v-1.52h.87v1.52h1.13v.76h-1.13v3.45c0 .41.18.71.55.71a.82.82 0 0 0 .59-.24l.25.66a1.4 1.4 0 0 1 -1 .36 1.14 1.14 0 0 1 -1.26-1.35zm6.78 1.17v-3.66c0-1-.5-1.27-1.25-1.27a2.14 2.14 0 0 0 -1.63.86v4.06h-.86v-7.67h.86v2.92a2.67 2.67 0 0 1 2-.94 1.56 1.56 0 0 1 1.77 1.77v3.92zm8.65 0v-.63a2.39 2.39 0 0 1 -1.84.77 1.85 1.85 0 0 1 -1.93-1.84 1.8 1.8 0 0 1 1.93-1.83 2.36 2.36 0 0 1 1.84.75v-1c0-.74-.6-1.16-1.4-1.16a2.17 2.17 0 0 0 -1.7.77l-.4-.6a2.91 2.91 0 0 1 2.22-.92c1.19 0 2.15.53 2.15 1.88v3.82zm0-1.17v-1.06a1.88 1.88 0 0 0 -1.52-.68 1.22 1.22 0 1 0 0 2.43 1.85 1.85 0 0 0 1.52-.7zm4.86-1.59a2.75 2.75 0 1 1 2.75 2.92 2.73 2.73 0 0 1 -2.75-2.92zm4.59 0a1.86 1.86 0 1 0 -1.84 2.15 1.93 1.93 0 0 0 1.84-2.15zm5.88 2.76v-3.64c0-1-.51-1.29-1.25-1.29a2.17 2.17 0 0 0 -1.65.86v4.06h-.86v-5.55h.86v.8a2.72 2.72 0 0 1 2-.94 1.58 1.58 0 0 1 1.76 1.79v3.9zm2.06-2.76a2.78 2.78 0 0 1 2.74-2.91 2.7 2.7 0 0 1 2.67 3v.22h-4.49a2 2 0 0 0 2 1.92 2.42 2.42 0 0 0 1.73-.71l.41.56a3.07 3.07 0 0 1 -2.21.86 2.76 2.76 0 0 1 -2.85-2.94zm2.73-2.2a1.85 1.85 0 0 0 -1.82 1.84h3.65a1.8 1.8 0 0 0 -1.83-1.87zm3.36 2.55v-.76h2.76v.76zm3.77 2.41v-5.56h.86v.89a2.39 2.39 0 0 1 1.85-1v.91h-.33a2 2 0 0 0 -1.52.89v3.93zm3.28-2.76a2.78 2.78 0 0 1 2.74-2.91 2.7 2.7 0 0 1 2.67 3v.22h-4.49a2 2 0 0 0 2 1.92 2.42 2.42 0 0 0 1.73-.71l.41.56a3.07 3.07 0 0 1 -2.21.86 2.76 2.76 0 0 1 -2.85-2.94zm2.73-2.2a1.85 1.85 0 0 0 -1.82 1.84h3.65a1.8 1.8 0 0 0 -1.84-1.87zm3.51 2.2c0-1.81 1-2.91 2.47-2.91a2.32 2.32 0 0 1 1.88 1v-.83h.86v7.67h-.86v-3a2.32 2.32 0 0 1 -1.87 1c-1.47-.04-2.48-1.16-2.48-2.93zm4.35 1.25v-2.51a2.05 2.05 0 0 0 -1.66-.89c-1.12 0-1.78.91-1.78 2.14s.67 2.15 1.78 2.15a2.06 2.06 0 0 0 1.66-.91zm6.14 1.51v-.76a2.72 2.72 0 0 1 -2 .92 1.57 1.57 0 0 1 -1.77-1.77v-3.95h.86v3.66c0 1 .5 1.27 1.25 1.27a2.12 2.12 0 0 0 1.63-.84v-4.09h.86v5.56zm2.07-2.76a2.78 2.78 0 0 1 2.74-2.91 2.7 2.7 0 0 1 2.67 3v.22h-4.49a2 2 0 0 0 2 1.92 2.41 2.41 0 0 0 1.73-.71l.41.56a3.07 3.07 0 0 1 -2.21.86 2.76 2.76 0 0 1 -2.85-2.94zm2.73-2.2a1.85 1.85 0 0 0 -1.82 1.84h3.65a1.8 1.8 0 0 0 -1.83-1.87zm3.4 4.2.44-.62a2.52 2.52 0 0 0 1.83.79c.85 0 1.32-.4 1.32-1 0-1.35-3.44-.52-3.44-2.58 0-.87.74-1.6 2.06-1.6a2.78 2.78 0 0 1 2.06.81l-.4.6a2.14 2.14 0 0 0 -1.66-.7c-.76 0-1.23.38-1.23.87 0 1.21 3.44.41 3.44 2.58 0 .93-.75 1.68-2.17 1.68a3 3 0 0 1 -2.25-.83zm5.79-.41v-3.59h-.92v-.76h.92v-1.52h.87v1.52h1.13v.76h-1.13v3.45c0 .41.18.71.55.71a.82.82 0 0 0 .59-.24l.25.66a1.4 1.4 0 0 1 -1 .36 1.14 1.14 0 0 1 -1.26-1.35zm2.5-1.24v-.76h2.76v.76zm4.63 1.57v3h-.86v-7.72h.86v.8a2.33 2.33 0 0 1 1.88-1c1.46 0 2.47 1.1 2.47 2.91s-1 2.92-2.47 2.92a2.33 2.33 0 0 1 -1.88-.91zm3.44-1.94c0-1.23-.67-2.14-1.78-2.14a2.06 2.06 0 0 0 -1.66.89v2.51a2.07 2.07 0 0 0 1.66.9c1.14-.02 1.78-.94 1.78-2.14zm1.76.02a2.78 2.78 0 0 1 2.74-2.91 2.7 2.7 0 0 1 2.67 3v.22h-4.49a2 2 0 0 0 2 1.92 2.41 2.41 0 0 0 1.73-.71l.41.56a3.07 3.07 0 0 1 -2.21.86 2.76 2.76 0 0 1 -2.85-2.94zm2.73-2.2a1.85 1.85 0 0 0 -1.82 1.84h3.69a1.8 1.8 0 0 0 -1.87-1.87zm3.87 4.96v-5.56h.86v.89a2.4 2.4 0 0 1 1.85-1v.91h-.33a2 2 0 0 0 -1.52.89v3.93zm3.08-2.41v-.76h2.76v.76zm-169.81 16.24v-3.59h-.92v-.76h.92v-1.52h.87v1.52h1.13v.76h-1.13v3.45c0 .41.18.71.55.71a.82.82 0 0 0 .59-.24l.25.66a1.4 1.4 0 0 1 -1 .36 1.14 1.14 0 0 1 -1.26-1.35zm6.73 1.17v-3.66c0-1-.49-1.27-1.25-1.27a2.14 2.14 0 0 0 -1.63.86v4.06h-.86v-7.67h.86v2.92a2.67 2.67 0 0 1 2-.94 1.56 1.56 0 0 1 1.77 1.77v3.92zm2.43 0v-5.56h.86v.89a2.39 2.39 0 0 1 1.85-1v.91h-.33a2 2 0 0 0 -1.52.89v3.93zm3.28-2.76a2.78 2.78 0 0 1 2.74-2.91 2.7 2.7 0 0 1 2.67 3v.22h-4.49a2 2 0 0 0 2 1.92 2.41 2.41 0 0 0 1.73-.71l.41.56a3.07 3.07 0 0 1 -2.21.86 2.76 2.76 0 0 1 -2.85-2.94zm2.73-2.2a1.85 1.85 0 0 0 -1.82 1.84h3.65a1.8 1.8 0 0 0 -1.83-1.87zm7.35 4.96v-.63a2.39 2.39 0 0 1 -1.84.77 1.85 1.85 0 0 1 -1.93-1.84 1.8 1.8 0 0 1 1.93-1.83 2.35 2.35 0 0 1 1.84.75v-1c0-.74-.6-1.16-1.4-1.16a2.17 2.17 0 0 0 -1.7.77l-.4-.6a2.91 2.91 0 0 1 2.22-.92c1.18 0 2.15.53 2.15 1.88v3.82zm0-1.17v-1.06a1.88 1.88 0 0 0 -1.52-.68 1.22 1.22 0 1 0 0 2.43 1.85 1.85 0 0 0 1.52-.7zm6.42 1.17v-.83a2.34 2.34 0 0 1 -1.87 1c-1.45 0-2.47-1.1-2.47-2.91s1-2.92 2.47-2.92a2.32 2.32 0 0 1 1.88 1v-3h.86v7.67zm0-1.52v-2.51a2.06 2.06 0 0 0 -1.66-.9c-1.13 0-1.79.92-1.79 2.15s.67 2.14 1.79 2.14a2.05 2.05 0 0 0 1.66-.88zm11.88 1.52v-3.76c0-.7-.3-1.15-1-1.15a1.91 1.91 0 0 0 -1.47.85v4.07h-.86v-3.77c0-.7-.29-1.15-1-1.15a1.94 1.94 0 0 0 -1.46.86v4.06h-.86v-5.57h.86v.8a2.43 2.43 0 0 1 1.81-.94 1.42 1.42 0 0 1 1.48 1 2.34 2.34 0 0 1 1.86-1c1 0 1.55.56 1.55 1.68v4zm2.07-2.76a2.76 2.76 0 1 1 2.75 2.92 2.73 2.73 0 0 1 -2.75-2.92zm4.59 0a1.86 1.86 0 1 0 -1.84 2.15 1.93 1.93 0 0 0 1.84-2.15zm6.14 2.76v-.83a2.34 2.34 0 0 1 -1.88 1c-1.45 0-2.47-1.1-2.47-2.91s1-2.92 2.47-2.92a2.32 2.32 0 0 1 1.88 1v-3h.86v7.67zm0-1.52v-2.51a2.07 2.07 0 0 0 -1.66-.9c-1.13 0-1.79.92-1.79 2.15s.67 2.14 1.79 2.14a2.06 2.06 0 0 0 1.66-.88zm2.11-1.24a2.78 2.78 0 0 1 2.74-2.91 2.7 2.7 0 0 1 2.67 3v.22h-4.49a2 2 0 0 0 2 1.92 2.42 2.42 0 0 0 1.73-.71l.41.56a3.07 3.07 0 0 1 -2.21.86 2.76 2.76 0 0 1 -2.85-2.94zm2.73-2.2a1.85 1.85 0 0 0 -1.82 1.84h3.65a1.8 1.8 0 0 0 -1.87-1.87zm3.83 4.96v-7.67h.86v7.67zm2.22-.52a.63.63 0 1 1 .63.63.64.64 0 0 1 -.63-.63z"/><path d="m18.85 161.06.58-.74a3.16 3.16 0 0 0 2.4 1.1c1.37 0 1.81-.74 1.81-1.33 0-2-4.54-.87-4.54-3.61 0-1.27 1.13-2.14 2.65-2.14a3.61 3.61 0 0 1 2.71 1.05l-.58.7a2.9 2.9 0 0 0 -2.22-.92c-.91 0-1.58.49-1.58 1.22 0 1.73 4.54.74 4.54 3.6 0 1.1-.76 2.25-2.83 2.25a3.82 3.82 0 0 1 -2.94-1.18zm7.84.25v3h-.86v-7.72h.86v.8a2.32 2.32 0 0 1 1.88-1c1.46 0 2.47 1.1 2.47 2.91s-1 2.92-2.47 2.92a2.32 2.32 0 0 1 -1.88-.91zm3.44-1.92c0-1.23-.67-2.14-1.78-2.14a2.05 2.05 0 0 0 -1.66.89v2.51a2.06 2.06 0 0 0 1.66.9c1.11-.04 1.78-.96 1.78-2.16zm2.08 2.76v-5.56h.86v.89a2.4 2.4 0 0 1 1.85-1v.91h-.33a2 2 0 0 0 -1.52.89v3.93zm3.45-6.93a.59.59 0 0 1 .59-.59.58.58 0 0 1 .58.59.57.57 0 0 1 -.58.58.58.58 0 0 1 -.59-.58zm.15 6.93v-5.56h.86v5.56zm6.15 0v-3.64c0-1-.51-1.29-1.25-1.29a2.17 2.17 0 0 0 -1.65.86v4.06h-.86v-5.55h.86v.8a2.72 2.72 0 0 1 2-.94 1.58 1.58 0 0 1 1.76 1.79v3.9zm2.37 1.41.44-.62a2.15 2.15 0 0 0 1.81.75 1.59 1.59 0 0 0 1.75-1.62v-.84a2.36 2.36 0 0 1 -1.88 1c-1.45 0-2.47-1.08-2.47-2.88s1-2.89 2.47-2.89a2.32 2.32 0 0 1 1.88.93v-.84h.86v5.48c0 1.76-1.3 2.33-2.66 2.33a2.84 2.84 0 0 1 -2.2-.8zm4-3v-2.44a2.1 2.1 0 0 0 -1.66-.89c-1.13 0-1.79.89-1.79 2.12s.67 2.11 1.79 2.11a2.08 2.08 0 0 0 1.66-.91zm11.12 1.59-1.69-6.19-1.69 6.19h-1l-2.19-7.67h1.06l1.7 6.4 1.76-6.4h.79l1.76 6.4 1.69-6.4h1.07l-2.2 7.67zm3.28-2.76a2.78 2.78 0 0 1 2.74-2.91 2.7 2.7 0 0 1 2.67 3v.22h-4.49a2 2 0 0 0 2 1.92 2.42 2.42 0 0 0 1.73-.71l.41.56a3.07 3.07 0 0 1 -2.21.86 2.76 2.76 0 0 1 -2.85-2.94zm2.73-2.2a1.85 1.85 0 0 0 -1.82 1.84h3.69a1.8 1.8 0 0 0 -1.88-1.87zm3.87 4.96v-7.67h.86v3a2.32 2.32 0 0 1 1.88-1c1.46 0 2.47 1.14 2.47 2.92s-1 2.91-2.47 2.91a2.34 2.34 0 0 1 -1.88-1v.83zm2.53-.63c1.12 0 1.78-.91 1.78-2.14s-.67-2.15-1.78-2.15a2.07 2.07 0 0 0 -1.67.9v2.52a2.05 2.05 0 0 0 1.67.86zm3.92.63v-7.67h5v.85h-4.05v2.47h4v.85h-4v3.5zm6.1 0v-7.67h.86v7.67zm6.15 0v-.76a2.72 2.72 0 0 1 -2 .92 1.57 1.57 0 0 1 -1.77-1.77v-3.95h.86v3.66c0 1 .5 1.27 1.25 1.27a2.12 2.12 0 0 0 1.63-.84v-4.09h.86v5.56zm6 0-1.7-2.28-1.67 2.28h-1l2.13-2.85-2-2.7h1l1.54 2.12 1.55-2.12h1l-2 2.7 2.14 2.85zm4.43-6.93a.59.59 0 0 1 .59-.59.58.58 0 0 1 .58.59.57.57 0 0 1 -.58.58.58.58 0 0 1 -.59-.58zm.15 6.93v-5.56h.86v5.56zm1.92-.76.44-.62a2.52 2.52 0 0 0 1.83.79c.85 0 1.32-.4 1.32-1 0-1.35-3.44-.52-3.44-2.58 0-.87.74-1.6 2.06-1.6a2.78 2.78 0 0 1 2.06.81l-.4.6a2.14 2.14 0 0 0 -1.66-.7c-.76 0-1.23.38-1.23.87 0 1.21 3.44.41 3.44 2.58 0 .93-.75 1.68-2.17 1.68a3 3 0 0 1 -2.25-.83zm11.88.76v-.63a2.39 2.39 0 0 1 -1.84.77 1.85 1.85 0 0 1 -1.93-1.84 1.8 1.8 0 0 1 1.93-1.83 2.35 2.35 0 0 1 1.84.75v-1c0-.74-.6-1.16-1.4-1.16a2.17 2.17 0 0 0 -1.7.77l-.4-.6a2.91 2.91 0 0 1 2.22-.92c1.19 0 2.15.53 2.15 1.88v3.82zm0-1.17v-1.06a1.88 1.88 0 0 0 -1.52-.68 1.22 1.22 0 1 0 0 2.43 1.85 1.85 0 0 0 1.52-.7zm8.92 1.17v-3.64c0-1-.51-1.29-1.25-1.29a2.17 2.17 0 0 0 -1.65.86v4.06h-.86v-5.55h.86v.8a2.72 2.72 0 0 1 2-.94 1.58 1.58 0 0 1 1.76 1.79v3.9zm2.09-2.76a2.75 2.75 0 1 1 2.75 2.92 2.73 2.73 0 0 1 -2.75-2.92zm4.59 0a1.86 1.86 0 1 0 -1.84 2.15 1.93 1.93 0 0 0 1.84-2.15zm5.88 2.76v-3.64c0-1-.51-1.29-1.25-1.29a2.17 2.17 0 0 0 -1.65.86v4.06h-.86v-5.55h.86v.8a2.72 2.72 0 0 1 2-.94 1.58 1.58 0 0 1 1.76 1.79v3.9zm1.87-2.41v-.76h2.76v.76zm3.77 2.41v-7.67h.86v3a2.32 2.32 0 0 1 1.88-1c1.46 0 2.47 1.14 2.47 2.92s-1 2.91-2.47 2.91a2.34 2.34 0 0 1 -1.88-1v.83zm2.53-.63c1.12 0 1.78-.91 1.78-2.14s-.67-2.15-1.78-2.15a2.07 2.07 0 0 0 -1.67.9v2.52a2.05 2.05 0 0 0 1.67.86zm3.89.63v-7.67h.86v7.67zm2.07-2.76a2.75 2.75 0 1 1 2.75 2.92 2.73 2.73 0 0 1 -2.75-2.92zm4.59 0a1.86 1.86 0 1 0 -1.84 2.15 1.93 1.93 0 0 0 1.84-2.15zm1.79 0a2.75 2.75 0 0 1 2.77-2.91 2.38 2.38 0 0 1 2 1l-.58.52a1.64 1.64 0 0 0 -1.42-.71 2.16 2.16 0 0 0 0 4.29 1.68 1.68 0 0 0 1.42-.72l.58.53a2.38 2.38 0 0 1 -2 1 2.75 2.75 0 0 1 -2.77-3zm9.62 2.76-2-2.5-.93.91v1.59h-.86v-7.67h.86v5.07l2.92-3h1.09l-2.46 2.52 2.47 3zm1.78-6.93a.59.59 0 0 1 .59-.59.58.58 0 0 1 .58.59.57.57 0 0 1 -.58.58.58.58 0 0 1 -.59-.58zm.15 6.93v-5.56h.86v5.56zm6.15 0v-3.64c0-1-.51-1.29-1.25-1.29a2.17 2.17 0 0 0 -1.65.86v4.06h-.87v-5.55h.86v.8a2.72 2.72 0 0 1 2-.94 1.58 1.58 0 0 1 1.76 1.79v3.9zm2.38 1.41.44-.62a2.15 2.15 0 0 0 1.81.75 1.59 1.59 0 0 0 1.79-1.62v-.84a2.36 2.36 0 0 1 -1.88 1c-1.45 0-2.47-1.08-2.47-2.88s1-2.89 2.47-2.89a2.32 2.32 0 0 1 1.88 1v-.84h.86v5.48c0 1.76-1.3 2.33-2.66 2.33a2.84 2.84 0 0 1 -2.24-.87zm4-3v-2.44a2.1 2.1 0 0 0 -1.66-.89c-1.13 0-1.79.89-1.79 2.12s.67 2.11 1.79 2.11a2.08 2.08 0 0 0 1.7-.91zm10.02 1.59-1.45-4.46-1.45 4.46h-.86l-1.77-5.56h.9l1.36 4.43 1.46-4.43h.75l1.45 4.43 1.36-4.43h.91l-1.83 5.56zm3.12-2.76a2.78 2.78 0 0 1 2.74-2.91 2.7 2.7 0 0 1 2.67 3v.22h-4.49a2 2 0 0 0 2 1.92 2.42 2.42 0 0 0 1.73-.71l.41.56a3.07 3.07 0 0 1 -2.21.86 2.76 2.76 0 0 1 -2.85-2.94zm2.73-2.2a1.85 1.85 0 0 0 -1.82 1.84h3.65a1.8 1.8 0 0 0 -1.85-1.87zm3.87 4.96v-7.67h.86v3a2.32 2.32 0 0 1 1.88-1c1.46 0 2.47 1.14 2.47 2.92s-1 2.91-2.47 2.91a2.34 2.34 0 0 1 -1.88-1v.83zm2.53-.63c1.12 0 1.78-.91 1.78-2.14s-.67-2.15-1.78-2.15a2.07 2.07 0 0 0 -1.67.9v2.52a2.05 2.05 0 0 0 1.67.86zm-181.23 15.63v-4.76h-.92v-.76h.92v-.43a1.67 1.67 0 0 1 2.81-1.42l-.36.55a1 1 0 0 0 -.68-.26c-.58 0-.89.38-.89 1.09v.43h1.13v.8h-1.15v4.8zm2.81 0v-5.56h.86v.89a2.4 2.4 0 0 1 1.85-1v.91h-.33a2 2 0 0 0 -1.52.89v3.93zm7.09 0v-.63a2.39 2.39 0 0 1 -1.84.77 1.85 1.85 0 0 1 -1.93-1.84 1.8 1.8 0 0 1 1.93-1.83 2.35 2.35 0 0 1 1.84.75v-1c0-.74-.6-1.16-1.4-1.16a2.17 2.17 0 0 0 -1.7.77l-.4-.6a2.91 2.91 0 0 1 2.22-.92c1.19 0 2.15.53 2.15 1.88v3.82zm0-1.17v-1.06a1.88 1.88 0 0 0 -1.52-.68 1.22 1.22 0 1 0 0 2.43 1.85 1.85 0 0 0 1.52-.7zm9.11 1.17v-3.76c0-.7-.3-1.15-1-1.15a1.91 1.91 0 0 0 -1.47.85v4.07h-.86v-3.77c0-.7-.29-1.15-1-1.15a1.94 1.94 0 0 0 -1.46.86v4.06h-.91v-5.57h.86v.8a2.43 2.43 0 0 1 1.81-.94 1.42 1.42 0 0 1 1.48 1 2.34 2.34 0 0 1 1.86-1c1 0 1.55.56 1.55 1.68v4zm2.07-2.76a2.78 2.78 0 0 1 2.73-2.94 2.7 2.7 0 0 1 2.67 3v.22h-4.48a2 2 0 0 0 2 1.92 2.42 2.42 0 0 0 1.73-.71l.41.56a3.07 3.07 0 0 1 -2.21.86 2.76 2.76 0 0 1 -2.85-2.91zm2.73-2.2a1.85 1.85 0 0 0 -1.82 1.84h3.65a1.8 1.8 0 0 0 -1.83-1.87zm8.68 4.96-1.45-4.46-1.45 4.46h-.86l-1.77-5.56h.85l1.36 4.43 1.46-4.43h.75l1.45 4.43 1.36-4.43h.91l-1.77 5.56zm3.11-2.76a2.75 2.75 0 1 1 2.75 2.92 2.73 2.73 0 0 1 -2.75-2.92zm4.59 0a1.86 1.86 0 1 0 -1.84 2.15 1.93 1.93 0 0 0 1.85-2.15zm2.12 2.76v-5.56h.86v.89a2.4 2.4 0 0 1 1.85-1v.91h-.33a2 2 0 0 0 -1.52.89v3.93zm7.38 0-2-2.5-.93.91v1.59h-.85v-7.67h.9v5.07l2.92-3h1.08l-2.46 2.52 2.47 3zm4.72 0v-7.67h.86v3a2.32 2.32 0 0 1 1.88-1c1.46 0 2.47 1.14 2.47 2.92s-1 2.91-2.47 2.91a2.34 2.34 0 0 1 -1.88-1v.83zm2.53-.63c1.12 0 1.78-.91 1.78-2.14s-.67-2.15-1.78-2.15a2.07 2.07 0 0 0 -1.67.9v2.52a2.05 2.05 0 0 0 1.67.86zm7.64.63v-.76a2.72 2.72 0 0 1 -2 .92 1.57 1.57 0 0 1 -1.77-1.77v-3.95h.86v3.66c0 1 .5 1.27 1.25 1.27a2.12 2.12 0 0 0 1.63-.84v-4.09h.86v5.56zm2.23-6.93a.59.59 0 0 1 .59-.59.58.58 0 0 1 .58.59.57.57 0 0 1 -.58.58.58.58 0 0 1 -.59-.58zm.15 6.93v-5.56h.85v5.56zm2.4 0v-7.67h.86v7.67zm2.56-1.17v-3.59h-.92v-.76h.92v-1.52h.89v1.52h1.13v.76h-1.13v3.45c0 .41.18.71.55.71a.82.82 0 0 0 .59-.24l.25.66a1.4 1.4 0 0 1 -1 .36 1.14 1.14 0 0 1 -1.28-1.35zm6.04 1.17v-4.76h-.92v-.76h.92v-.43a1.67 1.67 0 0 1 2.78-1.38l-.36.55a1 1 0 0 0 -.68-.26c-.58 0-.89.38-.89 1.09v.43h1.13v.76h-1.13v4.8zm2.85 0v-5.56h.86v.89a2.4 2.4 0 0 1 1.85-1v.91h-.33a2 2 0 0 0 -1.52.89v3.93zm3.26-2.76a2.75 2.75 0 1 1 2.75 2.92 2.73 2.73 0 0 1 -2.75-2.92zm4.59 0a1.86 1.86 0 1 0 -1.84 2.15 1.93 1.93 0 0 0 1.84-2.15zm8.82 2.76v-3.76c0-.7-.3-1.15-1-1.15a1.91 1.91 0 0 0 -1.47.85v4.07h-.86v-3.77c0-.7-.29-1.15-1-1.15a1.94 1.94 0 0 0 -1.46.86v4.06h-.88v-5.57h.86v.8a2.43 2.43 0 0 1 1.81-.94 1.42 1.42 0 0 1 1.48 1 2.34 2.34 0 0 1 1.86-1c1 0 1.55.56 1.55 1.68v4zm5.33-1.17v-3.59h-.92v-.76h.92v-1.52h.87v1.52h1.13v.76h-1.13v3.45c0 .41.18.71.55.71a.82.82 0 0 0 .59-.24l.25.66a1.4 1.4 0 0 1 -1 .36 1.14 1.14 0 0 1 -1.26-1.35zm6.79 1.17v-3.66c0-1-.49-1.27-1.25-1.27a2.14 2.14 0 0 0 -1.63.86v4.06h-.91v-7.67h.86v2.92a2.67 2.67 0 0 1 2-.94 1.56 1.56 0 0 1 1.77 1.77v3.92zm2.06-2.76a2.78 2.78 0 0 1 2.74-2.91 2.7 2.7 0 0 1 2.67 3v.22h-4.49a2 2 0 0 0 2 1.92 2.42 2.42 0 0 0 1.73-.71l.41.56a3.07 3.07 0 0 1 -2.21.86 2.76 2.76 0 0 1 -2.85-2.94zm2.73-2.2a1.85 1.85 0 0 0 -1.82 1.84h3.65a1.8 1.8 0 0 0 -1.83-1.87zm6.65 6.37.44-.62a2.15 2.15 0 0 0 1.81.75 1.59 1.59 0 0 0 1.79-1.62v-.84a2.36 2.36 0 0 1 -1.88 1c-1.45 0-2.47-1.08-2.47-2.88s1-2.89 2.47-2.89a2.32 2.32 0 0 1 1.88 1v-.84h.86v5.48c0 1.76-1.3 2.33-2.66 2.33a2.84 2.84 0 0 1 -2.24-.87zm4-3v-2.44a2.1 2.1 0 0 0 -1.66-.89c-1.13 0-1.79.89-1.79 2.12s.67 2.11 1.79 2.11a2.08 2.08 0 0 0 1.7-.91zm2.43 1.59v-5.56h.86v.89a2.4 2.4 0 0 1 1.85-1v.91h-.33a2 2 0 0 0 -1.52.89v3.93zm3.27-2.76a2.75 2.75 0 1 1 2.75 2.92 2.73 2.73 0 0 1 -2.75-2.92zm4.59 0a1.86 1.86 0 1 0 -1.84 2.15 1.93 1.93 0 0 0 1.84-2.15zm5.87 2.76v-.76a2.72 2.72 0 0 1 -2 .92 1.57 1.57 0 0 1 -1.77-1.77v-3.95h.86v3.66c0 1 .5 1.27 1.25 1.27a2.12 2.12 0 0 0 1.63-.84v-4.09h.86v5.56zm6.15 0v-3.64c0-1-.51-1.29-1.25-1.29a2.17 2.17 0 0 0 -1.65.86v4.06h-.86v-5.55h.86v.8a2.72 2.72 0 0 1 2-.94 1.58 1.58 0 0 1 1.76 1.79v3.9zm6.46 0v-.83a2.34 2.34 0 0 1 -1.88 1c-1.45 0-2.47-1.1-2.47-2.91s1-2.92 2.47-2.92a2.32 2.32 0 0 1 1.88 1v-3h.86v7.67zm0-1.52v-2.51a2.06 2.06 0 0 0 -1.66-.9c-1.13 0-1.79.92-1.79 2.15s.67 2.14 1.79 2.14a2.05 2.05 0 0 0 1.66-.88zm8.88 1.52v-.76a2.72 2.72 0 0 1 -2 .92 1.57 1.57 0 0 1 -1.77-1.77v-3.95h.89v3.66c0 1 .5 1.27 1.25 1.27a2.12 2.12 0 0 0 1.63-.84v-4.09h.86v5.56zm3.25-.84v3h-.86v-7.72h.86v.8a2.32 2.32 0 0 1 1.88-1c1.46 0 2.47 1.1 2.47 2.91s-1 2.92-2.47 2.92a2.32 2.32 0 0 1 -1.88-.91zm3.44-1.94c0-1.23-.67-2.14-1.78-2.14a2.05 2.05 0 0 0 -1.66.89v2.51a2.06 2.06 0 0 0 1.66.9c1.12-.02 1.78-.94 1.78-2.14zm5.04 1.61v-3.59h-.92v-.76h.92v-1.52h.87v1.52h1.13v.76h-1.13v3.45c0 .41.18.71.55.71a.82.82 0 0 0 .59-.24l.25.66a1.4 1.4 0 0 1 -1 .36 1.14 1.14 0 0 1 -1.26-1.35zm2.69-1.59a2.75 2.75 0 1 1 2.75 2.92 2.73 2.73 0 0 1 -2.75-2.92zm4.59 0a1.86 1.86 0 1 0 -1.84 2.15 1.93 1.93 0 0 0 1.84-2.15zm5.11 1.59v-3.59h-1v-.76h1v-1.52h.87v1.52h1.13v.76h-1.13v3.45c0 .41.18.71.55.71a.82.82 0 0 0 .59-.24l.25.66a1.4 1.4 0 0 1 -1 .36 1.14 1.14 0 0 1 -1.26-1.35zm6.45 1.17v-.63a2.39 2.39 0 0 1 -1.84.77 1.85 1.85 0 0 1 -1.93-1.84 1.8 1.8 0 0 1 1.93-1.83 2.35 2.35 0 0 1 1.84.75v-1c0-.74-.6-1.16-1.4-1.16a2.17 2.17 0 0 0 -1.7.77l-.4-.6a2.91 2.91 0 0 1 2.22-.92c1.19 0 2.15.53 2.15 1.88v3.82zm0-1.17v-1.06a1.88 1.88 0 0 0 -1.52-.68 1.22 1.22 0 1 0 0 2.43 1.85 1.85 0 0 0 1.52-.7zm6.19 1.17-2-2.5-.93.91v1.59h-.86v-7.67h.86v5.07l2.92-3h1.09l-2.46 2.52 2.47 3zm1.57-2.76a2.78 2.78 0 0 1 2.74-2.91 2.7 2.7 0 0 1 2.67 3v.22h-4.49a2 2 0 0 0 2 1.92 2.42 2.42 0 0 0 1.73-.71l.41.56a3.07 3.07 0 0 1 -2.21.86 2.76 2.76 0 0 1 -2.85-2.94zm2.73-2.2a1.85 1.85 0 0 0 -1.82 1.84h3.65a1.8 1.8 0 0 0 -1.83-1.87zm-200.52 19.96v-.63a2.39 2.39 0 0 1 -1.84.77 1.85 1.85 0 0 1 -1.93-1.84 1.8 1.8 0 0 1 1.93-1.83 2.35 2.35 0 0 1 1.84.75v-1c0-.74-.6-1.16-1.4-1.16a2.17 2.17 0 0 0 -1.7.77l-.4-.6a2.91 2.91 0 0 1 2.22-.92c1.19 0 2.15.53 2.15 1.88v3.82zm0-1.17v-1.06a1.88 1.88 0 0 0 -1.52-.68 1.22 1.22 0 1 0 0 2.43 1.85 1.85 0 0 0 1.52-.7zm6.43 1.17v-.83a2.34 2.34 0 0 1 -1.88 1c-1.45 0-2.47-1.1-2.47-2.91s1-2.92 2.47-2.92a2.32 2.32 0 0 1 1.88 1v-3h.86v7.67zm0-1.52v-2.51a2.06 2.06 0 0 0 -1.66-.9c-1.13 0-1.79.92-1.79 2.15s.67 2.14 1.79 2.14a2.05 2.05 0 0 0 1.66-.88zm3.88 1.52-2.31-5.56h.94l1.84 4.56 1.85-4.56h.95l-2.31 5.56zm7.43 0v-.63a2.39 2.39 0 0 1 -1.84.77 1.85 1.85 0 0 1 -1.93-1.84 1.8 1.8 0 0 1 1.93-1.83 2.35 2.35 0 0 1 1.84.75v-1c0-.74-.6-1.16-1.4-1.16a2.17 2.17 0 0 0 -1.7.77l-.4-.6a2.91 2.91 0 0 1 2.22-.92c1.19 0 2.15.53 2.15 1.88v3.82zm0-1.17v-1.06a1.88 1.88 0 0 0 -1.52-.68 1.22 1.22 0 1 0 0 2.43 1.85 1.85 0 0 0 1.52-.7zm6.16 1.17v-3.64c0-1-.51-1.29-1.25-1.29a2.17 2.17 0 0 0 -1.65.86v4.06h-.86v-5.55h.86v.8a2.72 2.72 0 0 1 2-.94 1.58 1.58 0 0 1 1.76 1.79v3.9zm2.56-1.17v-3.59h-.88v-.76h.92v-1.52h.87v1.52h1.13v.76h-1.16v3.45c0 .41.18.71.55.71a.82.82 0 0 0 .59-.24l.25.66a1.4 1.4 0 0 1 -1 .36 1.14 1.14 0 0 1 -1.27-1.35zm6.49 1.17v-.63a2.39 2.39 0 0 1 -1.84.77 1.85 1.85 0 0 1 -1.93-1.84 1.8 1.8 0 0 1 1.93-1.83 2.35 2.35 0 0 1 1.84.75v-1c0-.74-.6-1.16-1.4-1.16a2.17 2.17 0 0 0 -1.7.77l-.4-.6a2.91 2.91 0 0 1 2.22-.92c1.19 0 2.15.53 2.15 1.88v3.82zm0-1.17v-1.06a1.88 1.88 0 0 0 -1.52-.68 1.22 1.22 0 1 0 0 2.43 1.85 1.85 0 0 0 1.52-.7zm2.39 2.58.44-.62a2.15 2.15 0 0 0 1.81.75 1.59 1.59 0 0 0 1.79-1.62v-.84a2.36 2.36 0 0 1 -1.88 1c-1.45 0-2.47-1.08-2.47-2.88s1-2.89 2.47-2.89a2.32 2.32 0 0 1 1.88 1v-.84h.86v5.48c0 1.76-1.3 2.33-2.66 2.33a2.84 2.84 0 0 1 -2.24-.87zm4-3v-2.44a2.1 2.1 0 0 0 -1.66-.89c-1.13 0-1.79.89-1.79 2.12s.67 2.11 1.79 2.11a2.08 2.08 0 0 0 1.7-.91zm2.11-1.17a2.78 2.78 0 0 1 2.74-2.91 2.7 2.7 0 0 1 2.67 3v.22h-4.49a2 2 0 0 0 2 1.92 2.42 2.42 0 0 0 1.73-.71l.41.56a3.07 3.07 0 0 1 -2.21.86 2.76 2.76 0 0 1 -2.85-2.94zm2.73-2.2a1.85 1.85 0 0 0 -1.82 1.84h3.65a1.8 1.8 0 0 0 -1.84-1.87zm6.33 2.2a2.75 2.75 0 1 1 2.75 2.92 2.73 2.73 0 0 1 -2.75-2.92zm4.59 0a1.86 1.86 0 1 0 -1.84 2.15 1.93 1.93 0 0 0 1.84-2.15zm2.36 2.76v-4.76h-.88v-.76h.92v-.43a1.67 1.67 0 0 1 2.78-1.38l-.36.55a1 1 0 0 0 -.68-.26c-.58 0-.89.38-.89 1.09v.43h1.13v.76h-1.13v4.8zm12.31 0v-3.76c0-.7-.3-1.15-1-1.15a1.91 1.91 0 0 0 -1.47.85v4.07h-.86v-3.77c0-.7-.29-1.15-1-1.15a1.94 1.94 0 0 0 -1.46.86v4.06h-.86v-5.57h.86v.8a2.43 2.43 0 0 1 1.81-.94 1.42 1.42 0 0 1 1.48 1 2.34 2.34 0 0 1 1.86-1c1 0 1.55.56 1.55 1.68v4zm6.14 0v-.76a2.72 2.72 0 0 1 -2 .92 1.57 1.57 0 0 1 -1.77-1.77v-3.95h.86v3.66c0 1 .5 1.27 1.25 1.27a2.12 2.12 0 0 0 1.63-.84v-4.09h.86v5.56zm2.39 0v-7.67h.86v7.67zm2.57-1.17v-3.59h-.92v-.76h.92v-1.52h.87v1.52h1.13v.76h-1.13v3.45c0 .41.18.71.55.71a.82.82 0 0 0 .59-.24l.25.66a1.4 1.4 0 0 1 -1 .36 1.14 1.14 0 0 1 -1.26-1.35zm2.86-5.76a.59.59 0 0 1 .59-.59.58.58 0 0 1 .58.59.57.57 0 0 1 -.58.58.58.58 0 0 1 -.59-.58zm.15 6.93v-5.56h.86v5.56zm1.88-2.41v-.76h2.76v.76zm3.45-.35a2.75 2.75 0 0 1 2.77-2.91 2.38 2.38 0 0 1 2 1l-.58.52a1.64 1.64 0 0 0 -1.42-.71 2.16 2.16 0 0 0 0 4.29 1.68 1.68 0 0 0 1.42-.72l.58.53a2.38 2.38 0 0 1 -2 1 2.75 2.75 0 0 1 -2.77-3zm5.5 0a2.75 2.75 0 1 1 2.75 2.92 2.73 2.73 0 0 1 -2.75-2.92zm4.59 0a1.86 1.86 0 1 0 -1.84 2.15 1.93 1.93 0 0 0 1.84-2.15zm2.12 2.76v-5.56h.86v.89a2.4 2.4 0 0 1 1.85-1v.91h-.33a2 2 0 0 0 -1.52.89v3.93zm3.28-2.76a2.78 2.78 0 0 1 2.74-2.91 2.7 2.7 0 0 1 2.67 3v.22h-4.53a2 2 0 0 0 2 1.92 2.42 2.42 0 0 0 1.73-.71l.41.56a3.07 3.07 0 0 1 -2.21.86 2.76 2.76 0 0 1 -2.81-2.94zm2.73-2.2a1.85 1.85 0 0 0 -1.82 1.84h3.65a1.8 1.8 0 0 0 -1.84-1.87zm4.02 6.42-.44-.36a1.72 1.72 0 0 0 .75-1.07h-.16a.56.56 0 0 1 -.55-.59.62.62 0 0 1 .61-.62.77.77 0 0 1 .72.87 2.21 2.21 0 0 1 -.93 1.77zm8.76-1.46v-3.64c0-1-.51-1.29-1.25-1.29a2.17 2.17 0 0 0 -1.65.86v4.06h-.86v-5.55h.86v.8a2.72 2.72 0 0 1 2-.94 1.58 1.58 0 0 1 1.76 1.79v3.9zm2.07-2.76a2.78 2.78 0 0 1 2.74-2.91 2.7 2.7 0 0 1 2.67 3v.22h-4.49a2 2 0 0 0 2 1.92 2.42 2.42 0 0 0 1.73-.71l.41.56a3.07 3.07 0 0 1 -2.21.86 2.76 2.76 0 0 1 -2.85-2.94zm2.73-2.2a1.85 1.85 0 0 0 -1.82 1.84h3.65a1.8 1.8 0 0 0 -1.83-1.87zm7.48 4.96-1.68-2.28-1.67 2.28h-1l2.13-2.85-2-2.7h1l1.54 2.12 1.55-2.12h1l-2 2.7 2.14 2.85zm1.97-1.17v-3.59h-.88v-.76h.92v-1.52h.87v1.52h1.13v.76h-1.13v3.45c0 .41.18.71.55.71a.82.82 0 0 0 .59-.24l.25.66a1.4 1.4 0 0 1 -1 .36 1.14 1.14 0 0 1 -1.3-1.35zm2.49-1.24v-.76h2.76v.76zm3.76 3.82.44-.62a2.15 2.15 0 0 0 1.81.75 1.59 1.59 0 0 0 1.79-1.62v-.84a2.36 2.36 0 0 1 -1.88 1c-1.45 0-2.47-1.08-2.47-2.88s1-2.89 2.47-2.89a2.32 2.32 0 0 1 1.88 1v-.84h.83v5.48c0 1.76-1.3 2.33-2.66 2.33a2.84 2.84 0 0 1 -2.21-.87zm4-3v-2.44a2.1 2.1 0 0 0 -1.66-.89c-1.13 0-1.79.89-1.79 2.12s.67 2.11 1.79 2.11a2.08 2.08 0 0 0 1.7-.91zm2.11-1.17a2.78 2.78 0 0 1 2.74-2.91 2.7 2.7 0 0 1 2.67 3v.22h-4.49a2 2 0 0 0 2 1.92 2.42 2.42 0 0 0 1.73-.71l.41.56a3.07 3.07 0 0 1 -2.21.86 2.76 2.76 0 0 1 -2.85-2.94zm2.73-2.2a1.85 1.85 0 0 0 -1.82 1.84h3.65a1.8 1.8 0 0 0 -1.8-1.87zm7.63 4.96v-3.64c0-1-.51-1.29-1.25-1.29a2.17 2.17 0 0 0 -1.65.86v4.06h-.86v-5.55h.86v.8a2.72 2.72 0 0 1 2-.94 1.58 1.58 0 0 1 1.76 1.79v3.9zm2.07-2.76a2.78 2.78 0 0 1 2.74-2.91 2.7 2.7 0 0 1 2.67 3v.22h-4.49a2 2 0 0 0 2 1.92 2.42 2.42 0 0 0 1.73-.71l.41.56a3.07 3.07 0 0 1 -2.21.86 2.76 2.76 0 0 1 -2.85-2.94zm2.73-2.2a1.85 1.85 0 0 0 -1.82 1.84h3.65a1.8 1.8 0 0 0 -1.83-1.87zm3.87 4.96v-5.56h.86v.89a2.4 2.4 0 0 1 1.85-1v.91h-.33a2 2 0 0 0 -1.52.89v3.93zm7.08 0v-.63a2.39 2.39 0 0 1 -1.84.77 1.85 1.85 0 0 1 -1.93-1.84 1.8 1.8 0 0 1 1.93-1.83 2.35 2.35 0 0 1 1.84.75v-1c0-.74-.6-1.16-1.4-1.16a2.17 2.17 0 0 0 -1.7.77l-.4-.6a2.91 2.91 0 0 1 2.22-.92c1.19 0 2.15.53 2.15 1.88v3.82zm0-1.17v-1.06a1.88 1.88 0 0 0 -1.52-.68 1.22 1.22 0 1 0 0 2.43 1.85 1.85 0 0 0 1.52-.7zm2.57 0v-3.59h-.92v-.76h.92v-1.52h.87v1.52h1.13v.76h-1.13v3.45c0 .41.18.71.55.71a.82.82 0 0 0 .59-.24l.25.66a1.4 1.4 0 0 1 -1 .36 1.14 1.14 0 0 1 -1.26-1.35zm2.86-5.76a.59.59 0 0 1 .59-.59.58.58 0 0 1 .58.59.57.57 0 0 1 -.58.58.58.58 0 0 1 -.59-.58zm.15 6.93v-5.56h.86v5.56zm2.07-2.76a2.75 2.75 0 1 1 2.75 2.92 2.73 2.73 0 0 1 -2.75-2.92zm4.59 0a1.86 1.86 0 1 0 -1.84 2.15 1.93 1.93 0 0 0 1.84-2.15zm5.88 2.76v-3.64c0-1-.51-1.29-1.25-1.29a2.17 2.17 0 0 0 -1.65.86v4.06h-.86v-5.55h.86v.8a2.72 2.72 0 0 1 2-.94 1.58 1.58 0 0 1 1.76 1.79v3.9zm-193.66 14.16v3h-.86v-7.72h.86v.8a2.32 2.32 0 0 1 1.88-1c1.46 0 2.47 1.1 2.47 2.91s-1 2.92-2.47 2.92a2.32 2.32 0 0 1 -1.88-.91zm3.44-1.92c0-1.23-.67-2.14-1.78-2.14a2.05 2.05 0 0 0 -1.66.89v2.51a2.06 2.06 0 0 0 1.66.9c1.12-.04 1.78-.96 1.78-2.16zm2.08 2.76v-5.56h.86v.89a2.4 2.4 0 0 1 1.85-1v.91h-.33a2 2 0 0 0 -1.52.89v3.93zm3.28-2.76a2.75 2.75 0 1 1 2.75 2.92 2.73 2.73 0 0 1 -2.75-2.92zm4.59 0a1.86 1.86 0 1 0 -1.84 2.15 1.93 1.93 0 0 0 1.84-2.15zm1.8 0a2.75 2.75 0 0 1 2.77-2.91 2.38 2.38 0 0 1 2 1l-.58.52a1.64 1.64 0 0 0 -1.42-.71 2.16 2.16 0 0 0 0 4.29 1.68 1.68 0 0 0 1.42-.72l.58.53a2.38 2.38 0 0 1 -2 1 2.75 2.75 0 0 1 -2.77-3zm5.5 0a2.78 2.78 0 0 1 2.74-2.91 2.7 2.7 0 0 1 2.67 3v.22h-4.49a2 2 0 0 0 2 1.92 2.42 2.42 0 0 0 1.73-.71l.41.56a3.07 3.07 0 0 1 -2.21.86 2.76 2.76 0 0 1 -2.85-2.94zm2.73-2.2a1.85 1.85 0 0 0 -1.82 1.84h3.65a1.8 1.8 0 0 0 -1.83-1.87zm3.4 4.2.44-.62a2.52 2.52 0 0 0 1.83.79c.85 0 1.32-.4 1.32-1 0-1.35-3.44-.52-3.44-2.58 0-.87.74-1.6 2.06-1.6a2.78 2.78 0 0 1 2.06.81l-.4.6a2.14 2.14 0 0 0 -1.66-.7c-.76 0-1.23.38-1.23.87 0 1.21 3.44.41 3.44 2.58 0 .93-.75 1.68-2.17 1.68a3 3 0 0 1 -2.25-.83zm5.15 0 .44-.62a2.52 2.52 0 0 0 1.83.79c.85 0 1.32-.4 1.32-1 0-1.35-3.44-.52-3.44-2.58 0-.87.74-1.6 2.06-1.6a2.78 2.78 0 0 1 2.06.81l-.4.6a2.14 2.14 0 0 0 -1.66-.7c-.76 0-1.23.38-1.23.87 0 1.21 3.44.41 3.44 2.58 0 .93-.75 1.68-2.17 1.68a3 3 0 0 1 -2.25-.83zm5.3-2a2.75 2.75 0 1 1 2.75 2.92 2.73 2.73 0 0 1 -2.75-2.92zm4.59 0a1.86 1.86 0 1 0 -1.84 2.15 1.93 1.93 0 0 0 1.84-2.15zm2.12 2.76v-5.56h.86v.89a2.4 2.4 0 0 1 1.85-1v.91h-.33a2 2 0 0 0 -1.52.89v3.93zm3.13-.76.44-.62a2.52 2.52 0 0 0 1.83.79c.85 0 1.32-.4 1.32-1 0-1.35-3.44-.52-3.44-2.58 0-.87.74-1.6 2.06-1.6a2.78 2.78 0 0 1 2.06.81l-.4.6a2.14 2.14 0 0 0 -1.66-.7c-.76 0-1.23.38-1.23.87 0 1.21 3.44.41 3.44 2.58 0 .93-.75 1.68-2.17 1.68a3 3 0 0 1 -2.25-.83zm11.88.76v-.63a2.39 2.39 0 0 1 -1.84.77 1.85 1.85 0 0 1 -1.93-1.84 1.8 1.8 0 0 1 1.93-1.83 2.35 2.35 0 0 1 1.84.75v-1c0-.74-.6-1.16-1.4-1.16a2.17 2.17 0 0 0 -1.7.77l-.4-.6a2.91 2.91 0 0 1 2.22-.92c1.19 0 2.15.53 2.15 1.88v3.82zm0-1.17v-1.06a1.88 1.88 0 0 0 -1.52-.68 1.22 1.22 0 1 0 0 2.43 1.85 1.85 0 0 0 1.52-.7zm6.2 1.17v-3.64c0-1-.51-1.29-1.25-1.29a2.17 2.17 0 0 0 -1.65.86v4.06h-.86v-5.55h.86v.8a2.72 2.72 0 0 1 2-.94 1.58 1.58 0 0 1 1.76 1.79v3.9zm6.38 0v-.83a2.34 2.34 0 0 1 -1.88 1c-1.45 0-2.47-1.1-2.47-2.91s1-2.92 2.47-2.92a2.32 2.32 0 0 1 1.88 1v-3h.86v7.67zm0-1.52v-2.51a2.06 2.06 0 0 0 -1.66-.9c-1.13 0-1.79.92-1.79 2.15s.67 2.14 1.79 2.14a2.05 2.05 0 0 0 1.66-.88zm8.93 1.52v-3.66c0-1-.49-1.27-1.25-1.27a2.14 2.14 0 0 0 -1.63.86v4.06h-.86v-7.67h.86v2.92a2.67 2.67 0 0 1 2-.94 1.56 1.56 0 0 1 1.77 1.77v3.92zm5.87 0v-.63a2.39 2.39 0 0 1 -1.84.77 1.85 1.85 0 0 1 -1.93-1.84 1.8 1.8 0 0 1 1.93-1.83 2.35 2.35 0 0 1 1.84.75v-1c0-.74-.6-1.16-1.4-1.16a2.17 2.17 0 0 0 -1.7.77l-.4-.6a2.91 2.91 0 0 1 2.22-.92c1.19 0 2.15.53 2.15 1.88v3.82zm0-1.17v-1.06a1.88 1.88 0 0 0 -1.52-.68 1.22 1.22 0 1 0 0 2.43 1.85 1.85 0 0 0 1.52-.7zm6.16 1.17v-3.64c0-1-.51-1.29-1.25-1.29a2.17 2.17 0 0 0 -1.65.86v4.06h-.86v-5.55h.86v.8a2.72 2.72 0 0 1 2-.94 1.58 1.58 0 0 1 1.76 1.79v3.9zm6.42 0v-.83a2.34 2.34 0 0 1 -1.88 1c-1.45 0-2.47-1.1-2.47-2.91s1-2.92 2.47-2.92a2.32 2.32 0 0 1 1.88 1v-3h.86v7.67zm0-1.52v-2.51a2.06 2.06 0 0 0 -1.66-.9c-1.13 0-1.79.92-1.79 2.15s.67 2.14 1.79 2.14a2.05 2.05 0 0 0 1.66-.88zm2.39 1.52v-7.67h.85v7.67zm2.07-2.76a2.78 2.78 0 0 1 2.74-2.91 2.7 2.7 0 0 1 2.67 3v.22h-4.49a2 2 0 0 0 2 1.92 2.42 2.42 0 0 0 1.73-.71l.41.56a3.07 3.07 0 0 1 -2.21.86 2.76 2.76 0 0 1 -2.85-2.94zm2.73-2.2a1.85 1.85 0 0 0 -1.82 1.84h3.65a1.8 1.8 0 0 0 -1.84-1.87zm13.36 4.96v-3.76c0-.7-.3-1.15-1-1.15a1.91 1.91 0 0 0 -1.47.85v4.07h-.84v-3.77c0-.7-.29-1.15-1-1.15a1.94 1.94 0 0 0 -1.46.86v4.06h-.86v-5.57h.86v.8a2.43 2.43 0 0 1 1.81-.94 1.42 1.42 0 0 1 1.48 1 2.34 2.34 0 0 1 1.86-1c1 0 1.55.56 1.55 1.68v4zm5.86 0v-.63a2.39 2.39 0 0 1 -1.84.77 1.85 1.85 0 0 1 -1.93-1.84 1.8 1.8 0 0 1 1.93-1.83 2.35 2.35 0 0 1 1.84.75v-1c0-.74-.6-1.16-1.4-1.16a2.17 2.17 0 0 0 -1.7.77l-.4-.6a2.91 2.91 0 0 1 2.22-.92c1.19 0 2.15.53 2.15 1.88v3.82zm0-1.17v-1.06a1.88 1.88 0 0 0 -1.52-.68 1.22 1.22 0 1 0 0 2.43 1.85 1.85 0 0 0 1.52-.7zm1.93.41.44-.62a2.52 2.52 0 0 0 1.83.79c.85 0 1.32-.4 1.32-1 0-1.35-3.44-.52-3.44-2.58 0-.87.74-1.6 2.06-1.6a2.78 2.78 0 0 1 2.06.81l-.4.6a2.14 2.14 0 0 0 -1.66-.7c-.76 0-1.23.38-1.23.87 0 1.21 3.44.41 3.44 2.58 0 .93-.75 1.68-2.17 1.68a3 3 0 0 1 -2.25-.83zm5.15 0 .44-.62a2.52 2.52 0 0 0 1.83.79c.85 0 1.32-.4 1.32-1 0-1.35-3.44-.52-3.44-2.58 0-.87.74-1.6 2.06-1.6a2.78 2.78 0 0 1 2.06.81l-.4.6a2.14 2.14 0 0 0 -1.66-.7c-.76 0-1.23.38-1.23.87 0 1.21 3.44.41 3.44 2.58 0 .93-.75 1.68-2.17 1.68a3 3 0 0 1 -2.25-.83zm5.48-6.17a.59.59 0 0 1 .59-.59.58.58 0 0 1 .58.59.57.57 0 0 1 -.58.58.58.58 0 0 1 -.59-.58zm.15 6.93v-5.56h.86v5.56zm3.88 0-2.31-5.56h.94l1.84 4.56 1.85-4.56h.92l-2.31 5.56zm3.63-2.76a2.78 2.78 0 0 1 2.74-2.91 2.7 2.7 0 0 1 2.67 3v.22h-4.49a2 2 0 0 0 2 1.92 2.42 2.42 0 0 0 1.73-.71l.41.56a3.07 3.07 0 0 1 -2.21.86 2.76 2.76 0 0 1 -2.85-2.94zm2.73-2.2a1.85 1.85 0 0 0 -1.82 1.84h3.65a1.8 1.8 0 0 0 -1.84-1.87zm10.41 4.96v-3.64c0-1-.51-1.29-1.25-1.29a2.17 2.17 0 0 0 -1.65.86v4.06h-.86v-5.55h.86v.8a2.72 2.72 0 0 1 2-.94 1.58 1.58 0 0 1 1.76 1.79v3.9zm6.15 0v-.76a2.72 2.72 0 0 1 -2 .92 1.57 1.57 0 0 1 -1.77-1.77v-3.95h.86v3.66c0 1 .5 1.27 1.25 1.27a2.12 2.12 0 0 0 1.63-.84v-4.09h.86v5.56zm9.09 0v-3.76c0-.7-.3-1.15-1-1.15a1.91 1.91 0 0 0 -1.47.85v4.07h-.86v-3.77c0-.7-.29-1.15-1-1.15a1.94 1.94 0 0 0 -1.46.86v4.06h-.86v-5.57h.86v.8a2.43 2.43 0 0 1 1.81-.94 1.42 1.42 0 0 1 1.48 1 2.34 2.34 0 0 1 1.86-1c1 0 1.55.56 1.55 1.68v4zm2.39 0v-7.67h.84v3a2.32 2.32 0 0 1 1.88-1c1.46 0 2.47 1.14 2.47 2.92s-1 2.91-2.47 2.91a2.34 2.34 0 0 1 -1.88-1v.83zm2.53-.63c1.12 0 1.78-.91 1.78-2.14s-.67-2.15-1.78-2.15a2.07 2.07 0 0 0 -1.67.9v2.52a2.05 2.05 0 0 0 1.67.86zm3.57-2.13a2.78 2.78 0 0 1 2.74-2.91 2.7 2.7 0 0 1 2.67 3v.22h-4.49a2 2 0 0 0 2 1.92 2.42 2.42 0 0 0 1.73-.71l.41.56a3.07 3.07 0 0 1 -2.21.86 2.76 2.76 0 0 1 -2.85-2.94zm2.73-2.2a1.85 1.85 0 0 0 -1.82 1.84h3.65a1.8 1.8 0 0 0 -1.82-1.87zm3.87 4.96v-5.56h.86v.89a2.4 2.4 0 0 1 1.85-1v.91h-.33a2 2 0 0 0 -1.52.89v3.93zm3.14-.76.44-.62a2.52 2.52 0 0 0 1.83.79c.85 0 1.32-.4 1.32-1 0-1.35-3.44-.52-3.44-2.58 0-.87.74-1.6 2.06-1.6a2.77 2.77 0 0 1 2.06.81l-.4.6a2.14 2.14 0 0 0 -1.66-.7c-.76 0-1.23.38-1.23.87 0 1.21 3.44.41 3.44 2.58 0 .93-.75 1.68-2.17 1.68a3 3 0 0 1 -2.25-.83zm-193.37 13a2.75 2.75 0 1 1 2.75 2.92 2.73 2.73 0 0 1 -2.75-2.92zm4.59 0a1.86 1.86 0 1 0 -1.84 2.15 1.93 1.93 0 0 0 1.84-2.15zm2.35 2.76v-4.76h-.92v-.76h.92v-.43a1.67 1.67 0 0 1 2.78-1.38l-.36.55a1 1 0 0 0 -.68-.26c-.58 0-.89.38-.89 1.09v.43h1.13v.76h-1.11v4.8zm5.29-2.76a2.75 2.75 0 0 1 2.77-2.91 2.38 2.38 0 0 1 2 1l-.58.52a1.64 1.64 0 0 0 -1.42-.71 2.16 2.16 0 0 0 0 4.29 1.68 1.68 0 0 0 1.42-.72l.58.53a2.38 2.38 0 0 1 -2 1 2.75 2.75 0 0 1 -2.77-3zm5.51 0a2.75 2.75 0 1 1 2.75 2.92 2.73 2.73 0 0 1 -2.75-2.92zm4.63 0a1.86 1.86 0 1 0 -1.84 2.15 1.93 1.93 0 0 0 1.84-2.15zm5.84 2.76v-3.64c0-1-.51-1.29-1.25-1.29a2.17 2.17 0 0 0 -1.65.86v4.06h-.86v-5.55h.86v.8a2.72 2.72 0 0 1 2-.94 1.58 1.58 0 0 1 1.76 1.79v3.9zm2.07-2.76a2.75 2.75 0 0 1 2.77-2.91 2.38 2.38 0 0 1 2 1l-.58.52a1.64 1.64 0 0 0 -1.42-.71 2.16 2.16 0 0 0 0 4.29 1.68 1.68 0 0 0 1.42-.72l.58.53a2.38 2.38 0 0 1 -2 1 2.75 2.75 0 0 1 -2.77-3zm9.58 2.76v-.76a2.72 2.72 0 0 1 -2 .92 1.57 1.57 0 0 1 -1.77-1.77v-3.95h.86v3.66c0 1 .5 1.27 1.25 1.27a2.12 2.12 0 0 0 1.63-.84v-4.09h.86v5.56zm2.39 0v-5.56h.86v.89a2.4 2.4 0 0 1 1.85-1v.91h-.33a2 2 0 0 0 -1.52.89v3.93zm3.6 0v-5.56h.86v.89a2.4 2.4 0 0 1 1.85-1v.91h-.33a2 2 0 0 0 -1.52.89v3.93zm3.27-2.76a2.78 2.78 0 0 1 2.74-2.91 2.7 2.7 0 0 1 2.67 3v.22h-4.49a2 2 0 0 0 2 1.92 2.42 2.42 0 0 0 1.73-.71l.41.56a3.07 3.07 0 0 1 -2.21.86 2.76 2.76 0 0 1 -2.85-2.94zm2.73-2.2a1.85 1.85 0 0 0 -1.82 1.84h3.65a1.8 1.8 0 0 0 -1.83-1.87zm7.64 4.96v-3.64c0-1-.51-1.29-1.25-1.29a2.17 2.17 0 0 0 -1.65.86v4.06h-.86v-5.55h.86v.8a2.72 2.72 0 0 1 2-.94 1.58 1.58 0 0 1 1.76 1.79v3.9zm2.56-1.17v-3.59h-.92v-.76h.92v-1.52h.87v1.52h1.13v.76h-1.13v3.45c0 .41.18.71.55.71a.82.82 0 0 0 .59-.24l.25.66a1.4 1.4 0 0 1 -1 .36 1.14 1.14 0 0 1 -1.26-1.35zm5.47-1.59a2.75 2.75 0 0 1 2.77-2.91 2.38 2.38 0 0 1 2 1l-.58.52a1.64 1.64 0 0 0 -1.42-.71 2.16 2.16 0 0 0 0 4.29 1.68 1.68 0 0 0 1.42-.72l.58.53a2.38 2.38 0 0 1 -2 1 2.75 2.75 0 0 1 -2.77-3zm5.51 0a2.75 2.75 0 1 1 2.75 2.92 2.73 2.73 0 0 1 -2.75-2.92zm4.59 0a1.86 1.86 0 1 0 -1.84 2.15 1.93 1.93 0 0 0 1.84-2.15zm5.88 2.76v-3.64c0-1-.51-1.29-1.25-1.29a2.17 2.17 0 0 0 -1.65.86v4.06h-.86v-5.55h.86v.8a2.72 2.72 0 0 1 2-.94 1.58 1.58 0 0 1 1.76 1.79v3.9zm6.15 0v-3.64c0-1-.51-1.29-1.25-1.29a2.17 2.17 0 0 0 -1.65.86v4.06h-.86v-5.55h.86v.8a2.72 2.72 0 0 1 2-.94 1.58 1.58 0 0 1 1.76 1.79v3.9zm2.07-2.76a2.78 2.78 0 0 1 2.74-2.91 2.7 2.7 0 0 1 2.67 3v.22h-4.49a2 2 0 0 0 2 1.92 2.42 2.42 0 0 0 1.73-.71l.41.56a3.07 3.07 0 0 1 -2.21.86 2.76 2.76 0 0 1 -2.85-2.94zm2.73-2.2a1.85 1.85 0 0 0 -1.82 1.84h3.65a1.8 1.8 0 0 0 -1.83-1.87zm3.55 2.2a2.75 2.75 0 0 1 2.77-2.91 2.38 2.38 0 0 1 2 1l-.58.52a1.64 1.64 0 0 0 -1.42-.71 2.16 2.16 0 0 0 0 4.29 1.68 1.68 0 0 0 1.42-.72l.58.53a2.38 2.38 0 0 1 -2 1 2.75 2.75 0 0 1 -2.77-3zm6 1.59v-3.59h-.92v-.76h.92v-1.52h.87v1.52h1.13v.76h-1.13v3.45c0 .41.18.71.55.71a.82.82 0 0 0 .59-.24l.25.66a1.4 1.4 0 0 1 -1 .36 1.14 1.14 0 0 1 -1.26-1.35zm2.86-5.76a.59.59 0 0 1 .59-.59.58.58 0 0 1 .58.59.57.57 0 0 1 -.58.58.58.58 0 0 1 -.59-.58zm.15 6.93v-5.56h.86v5.56zm2.07-2.76a2.75 2.75 0 1 1 2.75 2.92 2.73 2.73 0 0 1 -2.75-2.92zm4.59 0a1.86 1.86 0 1 0 -1.84 2.15 1.93 1.93 0 0 0 1.84-2.15zm5.88 2.76v-3.64c0-1-.51-1.29-1.25-1.29a2.17 2.17 0 0 0 -1.65.86v4.06h-.86v-5.55h.86v.8a2.72 2.72 0 0 1 2-.94 1.58 1.58 0 0 1 1.76 1.79v3.9zm1.92-.76.44-.62a2.52 2.52 0 0 0 1.83.79c.85 0 1.32-.4 1.32-1 0-1.35-3.44-.52-3.44-2.58 0-.87.74-1.6 2.06-1.6a2.78 2.78 0 0 1 2.06.81l-.4.6a2.14 2.14 0 0 0 -1.66-.7c-.76 0-1.23.38-1.23.87 0 1.21 3.44.41 3.44 2.58 0 .93-.75 1.68-2.17 1.68a3 3 0 0 1 -2.25-.83zm5.45.24a.63.63 0 1 1 .63.63.64.64 0 0 1 -.63-.63z"/><path d="m245.47 60.36h-245.47v60.81h226.27l18.89 9.97.31-.17 18.58-9.8h226.27v-60.81z" fill="#322e2b"/><path d="m245.47 60.36v70.61l18.58-9.2h226.27v-60.81z" fill="url(#a)" opacity=".14"/><path d="m376.11 75a3.07 3.07 0 1 1 3.07 3.11 3 3 0 0 1 -3.07-3.11zm5.06 0a2 2 0 1 0 -2 2.17 2 2 0 0 0 2-2.17zm2.09 3v-6h2.65a1.88 1.88 0 1 1 0 3.75h-1.58v2.25zm3.52-4.12a.94.94 0 0 0 -1-1h-1.45v1.9h1.45a.94.94 0 0 0 1-.91zm3.39 4.12v-5.08h-1.84v-.93h4.69v.93h-1.82v5.08zm3.76 0v-6h1.05v6zm2.07-3a3.07 3.07 0 1 1 3.07 3.11 3 3 0 0 1 -3.07-3.11zm5.06 0a2 2 0 1 0 -2 2.17 2 2 0 0 0 2-2.17zm6.27 3-3.13-4.29v4.29h-1.05v-6h1.08l3.07 4.16v-4.17h1.03v6zm6.51 0-.44-1.16h-2.75l-.44 1.16h-1.2l2.36-6h1.31l2.36 6zm-1.82-5-1.08 2.86h2.16zm3.59 5v-6h1.05v5.08h2.67v.93zm6.95 0v-6h2.23a3 3 0 1 1 0 6zm4.29-3a1.94 1.94 0 0 0 -2.05-2.07h-1.19v4.15h1.18a2 2 0 0 0 2.07-2.09zm2.1 3v-6h4.11v.93h-3.06v1.55h3v.91h-3v1.67h3.06v.93zm5.19 0v-6h2.65a1.88 1.88 0 1 1 0 3.75h-1.59v2.25zm3.52-4.12a.94.94 0 0 0 -1-1h-1.45v1.9h1.45a.94.94 0 0 0 1-.91zm1.96 4.12v-6h4.11v.93h-3.06v1.55h3v.91h-3v1.67h3.06v.93zm9.38 0-3.13-4.29v4.29h-1.05v-6h1.08l3.07 4.16v-4.17h1.05v6zm2.33 0v-6h2.23a3 3 0 1 1 0 6zm4.29-3a1.94 1.94 0 0 0 -2.05-2.07h-1.24v4.15h1.18a2 2 0 0 0 2.08-2.09zm2.07 3v-6h4.11v.93h-3.06v1.55h3v.91h-3v1.67h3.06v.93zm9.38 0-3.13-4.29v4.29h-1.05v-6h1.08l3.07 4.16v-4.17h1.05v6zm2.03-3a3 3 0 0 1 3.15-3.11 2.69 2.69 0 0 1 2.4 1.34l-.89.47a1.77 1.77 0 0 0 -1.51-.87 2.17 2.17 0 0 0 0 4.34 1.79 1.79 0 0 0 1.51-.87l.9.45a2.74 2.74 0 0 1 -2.41 1.36 3 3 0 0 1 -3.15-3.11zm7.93 3v-2.49l-2.33-3.51h1.21l1.65 2.57 1.65-2.57h1.21l-2.32 3.51v2.49z" fill="#ccc" opacity=".8"/><path d="m23.73 144.24-1.57-2.85h-1.25v2.84h-1.7v-8h3.74a2.49 2.49 0 0 1 2.69 2.58 2.3 2.3 0 0 1 -1.75 2.38l1.8 3zm.17-5.42a1.09 1.09 0 0 0 -1.2-1.08h-1.79v2.16h1.79a1.09 1.09 0 0 0 1.2-1.09zm2.26 2.51a3 3 0 0 1 3-3 2.9 2.9 0 0 1 2.9 3.19v.33h-4.31a1.56 1.56 0 0 0 1.67 1.34 2.47 2.47 0 0 0 1.55-.58l.67 1a3.61 3.61 0 0 1 -2.39.8 2.93 2.93 0 0 1 -3.09-3.08zm3-1.82a1.39 1.39 0 0 0 -1.43 1.28h2.85a1.34 1.34 0 0 0 -1.43-1.28zm7.48 4.73v-.6a2.4 2.4 0 0 1 -1.84.74 1.93 1.93 0 0 1 -2-1.92 1.85 1.85 0 0 1 2-1.87 2.38 2.38 0 0 1 1.84.71v-.78c0-.59-.5-1-1.27-1a2.44 2.44 0 0 0 -1.69.68l-.58-1a3.8 3.8 0 0 1 2.53-.91c1.32 0 2.53.53 2.53 2.19v3.74zm0-1.39v-.72a1.53 1.53 0 0 0 -1.22-.5c-.6 0-1.09.31-1.09.88s.49.85 1.09.85a1.52 1.52 0 0 0 1.22-.52zm2.69-1.52a2.94 2.94 0 0 1 3.07-3 2.7 2.7 0 0 1 2.29 1l-1 .94a1.41 1.41 0 0 0 -1.22-.62 1.69 1.69 0 0 0 0 3.37 1.46 1.46 0 0 0 1.22-.62l1 .92a2.67 2.67 0 0 1 -2.36 1.07 2.94 2.94 0 0 1 -3-3.06zm6.64 1.47v-3h-1v-1.33h1v-1.58h1.54v1.58h1.18v1.33h-1.19v2.59c0 .36.19.64.53.64a.83.83 0 0 0 .53-.17l.32 1.15a1.88 1.88 0 0 1 -1.27.37 1.45 1.45 0 0 1 -1.64-1.58zm3.6-5.89a.91.91 0 1 1 .91.91.92.92 0 0 1 -.91-.91zm.16 7.33v-5.79h1.52v5.79zm4.53 0-2.33-5.79h1.63l1.51 4 1.51-4h1.65l-2.33 5.79zm4.28-2.91a3 3 0 0 1 3-3 2.9 2.9 0 0 1 2.9 3.19v.33h-4.3a1.56 1.56 0 0 0 1.67 1.34 2.47 2.47 0 0 0 1.52-.6l.67 1a3.61 3.61 0 0 1 -2.39.8 2.93 2.93 0 0 1 -3.07-3.06zm3-1.82a1.39 1.39 0 0 0 -1.43 1.28h2.85a1.34 1.34 0 0 0 -1.42-1.28zm6.58 3.6.92-1.3a3.51 3.51 0 0 0 2.54 1.08c.94 0 1.39-.43 1.39-.89 0-1.42-4.61-.44-4.61-3.45 0-1.33 1.15-2.43 3-2.43a4.45 4.45 0 0 1 3.12 1.12l-.95 1.25a3.44 3.44 0 0 0 -2.33-.88c-.73 0-1.14.32-1.14.8 0 1.27 4.59.42 4.59 3.41 0 1.46-1 2.57-3.2 2.57a4.56 4.56 0 0 1 -3.33-1.28zm7.84-.31v-3h-1v-1.33h1v-1.58h1.54v1.58h1.18v1.33h-1.18v2.59c0 .36.19.64.53.64a.83.83 0 0 0 .53-.17l.32 1.15a1.88 1.88 0 0 1 -1.27.37 1.45 1.45 0 0 1 -1.65-1.58zm7.23 1.44v-.6a2.4 2.4 0 0 1 -1.86.75 1.93 1.93 0 0 1 -2-1.92 1.85 1.85 0 0 1 2-1.87 2.38 2.38 0 0 1 1.83.71v-.78c0-.59-.5-1-1.27-1a2.44 2.44 0 0 0 -1.69.68l-.58-1a3.8 3.8 0 0 1 2.53-.91c1.32 0 2.53.53 2.53 2.19v3.74zm0-1.39v-.72a1.53 1.53 0 0 0 -1.22-.5c-.6 0-1.09.31-1.09.88s.49.85 1.09.85a1.52 1.52 0 0 0 1.22-.52zm2.67-1.52a2.94 2.94 0 0 1 3.07-3 2.7 2.7 0 0 1 2.29 1l-1 .94a1.41 1.41 0 0 0 -1.22-.62 1.69 1.69 0 0 0 0 3.37 1.46 1.46 0 0 0 1.22-.62l1 .92a2.67 2.67 0 0 1 -2.29 1.07 2.94 2.94 0 0 1 -3.07-3.06zm10.11 2.91-1.54-2.23-.7.74v1.49h-1.52v-8h1.52v4.79l2.19-2.58h1.87l-2.29 2.63 2.36 3.17z"/><path d="m270.81 143.11.92-1.3a3.51 3.51 0 0 0 2.6 1.08c.94 0 1.39-.43 1.39-.89 0-1.42-4.61-.44-4.61-3.45 0-1.33 1.15-2.43 3-2.43a4.45 4.45 0 0 1 3.12 1.12l-.95 1.25a3.44 3.44 0 0 0 -2.33-.88c-.73 0-1.14.32-1.14.8 0 1.27 4.59.42 4.59 3.41 0 1.46-1 2.57-3.2 2.57a4.56 4.56 0 0 1 -3.39-1.28zm7.34-1.78a3 3 0 0 1 3-3 2.9 2.9 0 0 1 2.9 3.19v.33h-4.31a1.56 1.56 0 0 0 1.67 1.34 2.47 2.47 0 0 0 1.55-.58l.67 1a3.61 3.61 0 0 1 -2.39.8 2.93 2.93 0 0 1 -3.09-3.08zm3-1.82a1.39 1.39 0 0 0 -1.43 1.28h2.85a1.34 1.34 0 0 0 -1.43-1.28zm4 4.73v-5.79h1.52v.79a2.49 2.49 0 0 1 1.85-.94v1.49a2 2 0 0 0 -.42 0 1.94 1.94 0 0 0 -1.43.66v3.83zm5.82 0-2.33-5.79h1.63l1.51 4 1.51-4h1.64l-2.33 5.79zm4.66 0v-8h1.52v8zm2.7-2.91a3 3 0 0 1 3-3 2.9 2.9 0 0 1 2.9 3.19v.33h-4.31a1.56 1.56 0 0 0 1.67 1.34 2.47 2.47 0 0 0 1.55-.58l.67 1a3.61 3.61 0 0 1 -2.39.8 2.93 2.93 0 0 1 -3.09-3.08zm3-1.82a1.39 1.39 0 0 0 -1.43 1.28h2.85a1.34 1.34 0 0 0 -1.42-1.28zm4.27 3.29v-3h-1v-1.33h1v-1.58h1.54v1.58h1.19v1.33h-1.17v2.59c0 .36.19.64.53.64a.83.83 0 0 0 .53-.17l.32 1.15a1.88 1.88 0 0 1 -1.27.37 1.45 1.45 0 0 1 -1.67-1.58zm6.32.31.92-1.3a3.51 3.51 0 0 0 2.54 1.08c.94 0 1.39-.43 1.39-.89 0-1.42-4.61-.44-4.61-3.45 0-1.33 1.15-2.43 3-2.43a4.45 4.45 0 0 1 3.12 1.12l-.95 1.25a3.44 3.44 0 0 0 -2.33-.88c-.73 0-1.14.32-1.14.8 0 1.27 4.59.42 4.59 3.41 0 1.46-1 2.57-3.2 2.57a4.56 4.56 0 0 1 -3.33-1.28zm7.84-.31v-3h-1v-1.33h1v-1.58h1.57v1.58h1.18v1.33h-1.18v2.59c0 .36.19.64.53.64a.83.83 0 0 0 .53-.17l.32 1.15a1.88 1.88 0 0 1 -1.27.37 1.45 1.45 0 0 1 -1.68-1.58zm7.23 1.44v-.6a2.4 2.4 0 0 1 -1.83.74 1.93 1.93 0 0 1 -2-1.92 1.85 1.85 0 0 1 2-1.87 2.38 2.38 0 0 1 1.83.71v-.78c0-.59-.5-1-1.27-1a2.43 2.43 0 0 0 -1.69.68l-.58-1a3.8 3.8 0 0 1 2.53-.91c1.32 0 2.53.53 2.53 2.19v3.74zm0-1.39v-.72a1.53 1.53 0 0 0 -1.22-.5c-.6 0-1.09.31-1.09.88s.49.85 1.09.85a1.52 1.52 0 0 0 1.22-.52zm2.67-1.52a2.94 2.94 0 0 1 3.07-3 2.7 2.7 0 0 1 2.29 1l-1 .94a1.41 1.41 0 0 0 -1.22-.62 1.69 1.69 0 0 0 0 3.37 1.46 1.46 0 0 0 1.22-.62l1 .92a2.67 2.67 0 0 1 -2.29 1.07 2.94 2.94 0 0 1 -3.07-3.06zm10.11 2.91-1.54-2.23-.7.74v1.49h-1.52v-8h1.52v4.79l2.2-2.58h1.87l-2.27 2.62 2.36 3.17z"/><path d="m490.33 3a3 3 0 0 0 -3-3h-484.33a3 3 0 0 0 -3 3v57.39h225.33l19.79 10.45 19.83-10.45h225.38z" fill="#68bd45"/><g fill="#fff"><path d="m238.92 97.99-2.49-4.5h-2v4.5h-2.7v-12.67h5.93a4 4 0 0 1 4.26 4.08 3.64 3.64 0 0 1 -2.77 3.76l2.85 4.83zm.27-8.59a1.72 1.72 0 0 0 -1.9-1.71h-2.83v3.42h2.87a1.72 1.72 0 0 0 1.85-1.72zm3.39 3.99a4.67 4.67 0 0 1 4.75-4.8c2.74 0 4.6 2.05 4.6 5.05v.53h-6.82a2.47 2.47 0 0 0 2.64 2.13 3.91 3.91 0 0 0 2.45-.91l1.06 1.56a5.72 5.72 0 0 1 -3.78 1.27 4.65 4.65 0 0 1 -4.9-4.83zm4.75-2.89a2.2 2.2 0 0 0 -2.26 2h4.52a2.12 2.12 0 0 0 -2.26-1.99zm11.69 7.49v-.95a3.8 3.8 0 0 1 -2.91 1.18 3.06 3.06 0 0 1 -3.19-3 2.94 2.94 0 0 1 3.19-3 3.78 3.78 0 0 1 2.91 1.12v-1.23c0-.93-.8-1.54-2-1.54a3.86 3.86 0 0 0 -2.68 1.08l-.91-1.61a6 6 0 0 1 4-1.44c2.09 0 4 .84 4 3.48v5.93zm0-2.2v-1.14a2.42 2.42 0 0 0 -1.94-.8c-.95 0-1.73.49-1.73 1.39s.78 1.35 1.73 1.35a2.42 2.42 0 0 0 1.94-.8zm4.05-2.4a4.65 4.65 0 0 1 4.86-4.81 4.27 4.27 0 0 1 3.63 1.65l-1.58 1.48a2.22 2.22 0 0 0 -1.94-1 2.68 2.68 0 0 0 0 5.34 2.31 2.31 0 0 0 1.94-1l1.58 1.46a4.23 4.23 0 0 1 -3.63 1.67 4.66 4.66 0 0 1 -4.86-4.79zm10.37 2.32v-4.79h-1.52v-2.11h1.52v-2.51h2.43v2.51h1.86v2.11h-1.86v4.14c0 .57.3 1 .84 1a1.32 1.32 0 0 0 .84-.27l.51 1.82a3 3 0 0 1 -2 .59 2.29 2.29 0 0 1 -2.62-2.49zm5.19-2.32a4.85 4.85 0 1 1 4.84 4.83 4.65 4.65 0 0 1 -4.84-4.83zm7.2 0a2.37 2.37 0 1 0 -2.36 2.68 2.42 2.42 0 0 0 2.36-2.68zm4.12 4.6v-9.18h2.38v1.25a3.94 3.94 0 0 1 3-1.47v2.36a3.2 3.2 0 0 0 -.67-.06 3.07 3.07 0 0 0 -2.26 1v6.06z"/><path d="m222.58 93.39c0-2.43-1.35-4.71-3.81-6.5-.31-3-1.61-5.34-3.72-6.55s-4.76-1.19-7.53.05c-2.78-1.24-5.43-1.27-7.53-.05s-3.41 3.54-3.72 6.57c-2.37 1.72-3.81 4-3.81 6.48s1.45 4.76 3.83 6.49c.3 2.92 1.55 5.32 3.7 6.56s4.85 1.13 7.53-.07c2.68 1.2 5.38 1.32 7.54.07s3.39-3.63 3.7-6.54c2.46-1.78 3.82-4.07 3.82-6.51zm-4.43-5.65a16.28 16.28 0 0 1 -.47 4.49 22.76 22.76 0 0 0 -1.72-3.72 23.1 23.1 0 0 0 -2.35-3.35 16.29 16.29 0 0 1 4.11 1.83l.4.27c.01.13.03.33.03.49zm0 11.77-.4.27a16.29 16.29 0 0 1 -4.12 1.83 22.76 22.76 0 0 0 2.36-3.35 23.07 23.07 0 0 0 1.72-3.7 16 16 0 0 1 .41 4.96zm-2.82-1.58a22 22 0 0 1 -2.94 4 22.47 22.47 0 0 1 -9.85 0 22.47 22.47 0 0 1 -4.93-8.53 22.46 22.46 0 0 1 4.92-8.53 22.47 22.47 0 0 1 9.86 0 22.46 22.46 0 0 1 4.94 8.52 22.05 22.05 0 0 1 -2 4.54zm-3.8 4.86a16 16 0 0 1 -4.06 2.86 16 16 0 0 1 -4.07-2.86 22.77 22.77 0 0 0 4.07.36 23.06 23.06 0 0 0 4.11-.36zm-14.2-8.22a23.07 23.07 0 0 0 1.72 3.7 22.74 22.74 0 0 0 2.35 3.34 16 16 0 0 1 -4.51-2.09 16 16 0 0 1 .44-4.95zm-.47-6.82v-.48a16 16 0 0 1 4.5-2.09 23.06 23.06 0 0 0 -2.34 3.34 22.73 22.73 0 0 0 -1.72 3.71 16.3 16.3 0 0 1 -.43-4.48zm10.64-6.6.43.21a16.28 16.28 0 0 1 3.64 2.64 23.07 23.07 0 0 0 -4.07-.36 22.75 22.75 0 0 0 -4.08.37 16.28 16.28 0 0 1 3.65-2.65zm7.2-.21a7.26 7.26 0 0 1 3.31 5.46 17.55 17.55 0 0 0 -5.23-2.14 17.56 17.56 0 0 0 -4.45-3.47 7.26 7.26 0 0 1 6.38.14zm-14.39 0a7.26 7.26 0 0 1 6.39-.14 17.55 17.55 0 0 0 -4.48 3.47 17.63 17.63 0 0 0 -5.22 2.15 7.27 7.27 0 0 1 3.33-5.49zm-7.19 12.45a7.29 7.29 0 0 1 3.07-5.6 17.55 17.55 0 0 0 .77 5.61 17.63 17.63 0 0 0 -.75 5.6 7.3 7.3 0 0 1 -3.09-5.61zm7.2 12.46a7.3 7.3 0 0 1 -3.31-5.48 17.63 17.63 0 0 0 5.23 2.16 17.62 17.62 0 0 0 4.48 3.46 7.3 7.3 0 0 1 -6.39-.13zm14.39 0a7.3 7.3 0 0 1 -6.41.13 17.62 17.62 0 0 0 4.47-3.45 17.55 17.55 0 0 0 5.24-2.14 7.29 7.29 0 0 1 -3.3 5.47zm4.1-6.85a17.61 17.61 0 0 0 -.75-5.6 17.56 17.56 0 0 0 .77-5.61 6.64 6.64 0 0 1 0 11.21z"/><circle cx="207.51" cy="93.4" r="3.46"/><path d="m200.93 34.05 1-1.22a5.23 5.23 0 0 0 4 1.82c2.26 0 3-1.22 3-2.2 0-3.27-7.5-1.44-7.5-6 0-2.09 1.86-3.53 4.37-3.53a6 6 0 0 1 4.48 1.79l-1 1.16a4.78 4.78 0 0 0 -3.72-1.48c-1.5 0-2.6.82-2.6 2 0 2.85 7.5 1.22 7.5 5.95 0 1.82-1.25 3.72-4.67 3.72a6.3 6.3 0 0 1 -4.86-2.01zm13.09.4v4.88h-1.42v-12.67h1.42v1.37a3.84 3.84 0 0 1 3.1-1.6c2.41 0 4.08 1.82 4.08 4.81s-1.67 4.83-4.08 4.83a3.84 3.84 0 0 1 -3.1-1.62zm5.68-3.21c0-2-1.1-3.53-2.94-3.53a3.39 3.39 0 0 0 -2.74 1.46v4.14a3.41 3.41 0 0 0 2.74 1.48c1.83 0 2.94-1.52 2.94-3.55zm3.63 4.6v-9.18h1.42v1.46a4 4 0 0 1 3.06-1.67v1.46a4.69 4.69 0 0 0 -.55 0 3.36 3.36 0 0 0 -2.51 1.46v6.5zm5.81-11.45a1 1 0 0 1 1-1 1 1 0 0 1 1 1 .94.94 0 0 1 -1 1 1 1 0 0 1 -1-1zm.25 11.44v-9.17h1.42v9.18zm10.31.01v-6c0-1.63-.84-2.13-2.07-2.13a3.57 3.57 0 0 0 -2.72 1.42v6.71h-1.42v-9.18h1.42v1.33a4.49 4.49 0 0 1 3.29-1.6c1.9 0 2.91 1 2.91 3v6.44zm4.09 2.33.72-1a3.54 3.54 0 0 0 3 1.23c1.52 0 3-.74 3-2.68v-1.4a3.9 3.9 0 0 1 -3.1 1.63c-2.39 0-4.08-1.79-4.08-4.75s1.62-4.81 4-4.81a3.84 3.84 0 0 1 3.1 1.61v-1.34h1.42v9c0 2.91-2.15 3.86-4.39 3.86a4.68 4.68 0 0 1 -3.67-1.35zm6.67-5v-4a3.47 3.47 0 0 0 -2.74-1.46c-1.86 0-3 1.46-3 3.5s1.1 3.48 3 3.48a3.44 3.44 0 0 0 2.74-1.49zm8.68 2.67v-12.67h6.67c2.41 0 3.65 1.54 3.65 3.23a2.81 2.81 0 0 1 -2.18 2.91 3.07 3.07 0 0 1 2.42 3.08 3.34 3.34 0 0 1 -3.69 3.42zm7.56-9a1.36 1.36 0 0 0 -1.48-1.39h-3.38v2.75h3.38a1.35 1.35 0 0 0 1.48-1.33zm.25 5.17a1.48 1.48 0 0 0 -1.62-1.45h-3.48v2.94h3.48c1 0 1.62-.55 1.62-1.46zm3.97-.77a4.85 4.85 0 1 1 4.84 4.83 4.65 4.65 0 0 1 -4.84-4.83zm7.2 0a2.37 2.37 0 1 0 -2.36 2.68 2.42 2.42 0 0 0 2.36-2.68zm3.53 0a4.85 4.85 0 1 1 4.84 4.83 4.65 4.65 0 0 1 -4.84-4.83zm7.2 0a2.37 2.37 0 1 0 -2.36 2.68 2.42 2.42 0 0 0 2.36-2.68zm4.6 2.32v-4.79h-1.52v-2.11h1.52v-2.51h2.43v2.51h1.86v2.11h-1.86v4.14c0 .57.3 1 .84 1a1.32 1.32 0 0 0 .84-.27l.51 1.82a3 3 0 0 1 -2 .59 2.29 2.29 0 0 1 -2.62-2.49zm10.17 2.28v-2.11c5.19-3.84 6.71-5.15 6.71-6.71 0-1.1-1-1.65-2.05-1.65a4.53 4.53 0 0 0 -3.4 1.46l-1.55-1.78a6.46 6.46 0 0 1 4.88-2.07c2.7 0 4.84 1.52 4.84 4 0 2.17-1.79 4-5.07 6.44h5.17v2.37zm11.23-1.33a1.54 1.54 0 1 1 1.54 1.54 1.56 1.56 0 0 1 -1.54-1.54zm4.04-5c0-3.27 1.62-6.54 5.24-6.54s5.24 3.27 5.24 6.54-1.63 6.55-5.24 6.55-5.24-3.28-5.24-6.55zm7.73 0c0-2.34-.68-4.14-2.49-4.14s-2.51 1.8-2.51 4.14.68 4.16 2.51 4.16 2.5-1.82 2.5-4.16zm-135.17-1.12-6.38-11a3.87 3.87 0 0 0 -3-1.75h-12.79a3.87 3.87 0 0 0 -3 1.75l-6.41 11a3.87 3.87 0 0 0 0 3.49l6.38 11.06a3.87 3.87 0 0 0 3 1.75h12.77a3.88 3.88 0 0 0 3-1.75l6.38-11.06a3.87 3.87 0 0 0 .05-3.49zm-17.12-6.65a1.32 1.32 0 1 1 2.63 0v7.86a1.32 1.32 0 1 1 -2.63 0zm1.32 16.79a8.92 8.92 0 0 1 -5.32-16.09 1.172 1.172 0 1 1 1.4 1.88 6.58 6.58 0 1 0 10.51 5.28 6.61 6.61 0 0 0 -2.68-5.3 1.17 1.17 0 0 1 1.33-1.91 8.92 8.92 0 0 1 -5.29 16.11z"/></g></svg>