<svg xmlns="http://www.w3.org/2000/svg" style="max-width:950px" id="mermaid-1566246873552" width="100%" height="100%" viewBox="-50 -10 950 794"><style>#mermaid-1566246873552 .actor{stroke:#ccf;fill:#ececff}#mermaid-1566246873552 text.actor{fill:#000;stroke:none}#mermaid-1566246873552 .actor-line{stroke:gray}#mermaid-1566246873552 .messageLine0{stroke-width:1.5;stroke-dasharray:&apos;2 2&apos;;stroke:#333}#mermaid-1566246873552 #arrowhead,#mermaid-1566246873552 #sequencenumber{fill:#333}#mermaid-1566246873552 #crosshead path{fill:#333!important;stroke:#333!important}#mermaid-1566246873552 .messageText{fill:#333;stroke:none}#mermaid-1566246873552 .note{stroke:#aa3;fill:#fff5ad}#mermaid-1566246873552 .noteText{fill:#000;stroke:none;font-family:&apos;trebuchet ms&apos;,verdana,arial;font-size:14px}</style><style>#mermaid-1566246873552{color:rgba(0,0,0,.65)}</style><g><line id="actor1553" x1="75" x2="75" y1="5" y2="783" stroke="#999" stroke-width=".5" class="actor-line"/><rect width="150" height="65" x="0" y="0" fill="#eaeaea" stroke="#666" class="actor" rx="3" ry="3"/><text x="75" y="32.5" alignment-baseline="central" class="actor" dominant-baseline="central" font-family="Open-Sans, sans-serif" font-size="14" text-anchor="middle"><tspan x="75" dy="-7">Resource Owner</tspan></text><text x="75" y="32.5" alignment-baseline="central" class="actor" dominant-baseline="central" font-family="Open-Sans, sans-serif" font-size="14" text-anchor="middle"><tspan x="75" dy="7">(browser)</tspan></text></g><g><line id="actor1554" x1="275" x2="275" y1="5" y2="783" stroke="#999" stroke-width=".5" class="actor-line"/><rect width="150" height="65" x="200" y="0" fill="#eaeaea" stroke="#666" class="actor" rx="3" ry="3"/><text x="275" y="32.5" alignment-baseline="central" class="actor" dominant-baseline="central" font-family="Open-Sans, sans-serif" font-size="14" text-anchor="middle"><tspan x="275" dy="-7">Client App</tspan></text><text x="275" y="32.5" alignment-baseline="central" class="actor" dominant-baseline="central" font-family="Open-Sans, sans-serif" font-size="14" text-anchor="middle"><tspan x="275" dy="7">(yelp.com)</tspan></text></g><g><line id="actor1555" x1="475" x2="475" y1="5" y2="783" stroke="#999" stroke-width=".5" class="actor-line"/><rect width="150" height="65" x="400" y="0" fill="#eaeaea" stroke="#666" class="actor" rx="3" ry="3"/><text x="475" y="32.5" alignment-baseline="central" class="actor" dominant-baseline="central" font-family="Open-Sans, sans-serif" font-size="14" text-anchor="middle"><tspan x="475" dy="-7">Authorization Server</tspan></text><text x="475" y="32.5" alignment-baseline="central" class="actor" dominant-baseline="central" font-family="Open-Sans, sans-serif" font-size="14" text-anchor="middle"><tspan x="475" dy="7">(Google)</tspan></text></g><g><line id="actor1556" x1="675" x2="675" y1="5" y2="783" stroke="#999" stroke-width=".5" class="actor-line"/><rect width="150" height="65" x="600" y="0" fill="#eaeaea" stroke="#666" class="actor" rx="3" ry="3"/><text x="675" y="32.5" alignment-baseline="central" class="actor" dominant-baseline="central" font-family="Open-Sans, sans-serif" font-size="14" text-anchor="middle"><tspan x="675" dy="-7">Resource Server</tspan></text><text x="675" y="32.5" alignment-baseline="central" class="actor" dominant-baseline="central" font-family="Open-Sans, sans-serif" font-size="14" text-anchor="middle"><tspan x="675" dy="7">(Contacts API)</tspan></text></g><defs><marker id="arrowhead" markerHeight="4" markerWidth="6" orient="auto" refX="5" refY="2"><path d="M 0,0 V 4 L6,2 Z"/></marker></defs><defs><marker id="crosshead" markerHeight="8" markerWidth="15" orient="auto" refX="16" refY="4"><path fill="#000" stroke="#000" stroke-dasharray="0 0" stroke-width="1" d="M 9,2 V 6 L16,4 Z"/><path fill="none" stroke="#000" stroke-dasharray="0 0" stroke-width="1" d="M 0,1 L 6,7 M 6,1 L 0,7"/></marker></defs><defs><marker id="sequencenumber" markerHeight="40" markerWidth="60" orient="auto" refX="15" refY="15"><circle cx="15" cy="15" r="6"/></marker></defs><g><text x="175" y="93" class="messageText" text-anchor="middle">1. Click Login with Google</text><line x1="75" x2="275" y1="100" y2="100" fill="none" stroke="#000" stroke-width="2" marker-end="url(#arrowhead)" class="messageLine0"/></g><g><text x="175" y="128" class="messageText" text-anchor="middle">2. Redirect...</text><line x1="275" x2="75" y1="135" y2="135" fill="none" stroke="#000" stroke-width="2" marker-end="url(#arrowhead)" class="messageLine0"/></g><g><text x="275" y="163" class="messageText" text-anchor="middle">3. ...to Google Login</text><line x1="75" x2="475" y1="170" y2="170" fill="none" stroke="#000" stroke-width="2" marker-end="url(#arrowhead)" class="messageLine0"/></g><g><text x="275" y="198" class="messageText" text-anchor="middle">4. Returns Login Form</text><line x1="475" x2="75" y1="205" y2="205" fill="none" stroke="#000" stroke-width="2" marker-end="url(#arrowhead)" class="messageLine0"/></g><g><text x="275" y="233" class="messageText" text-anchor="middle">5. Submits Credentials</text><line x1="75" x2="475" y1="240" y2="240" fill="none" stroke="#000" stroke-width="2" marker-end="url(#arrowhead)" class="messageLine0"/></g><g><rect width="150" height="36" x="500" y="250" fill="#EDF2AE" stroke="#666" class="note" rx="0" ry="0"/><text x="496" y="274" class="noteText"><tspan x="516">authenticate user</tspan></text></g><g><text x="275" y="314" class="messageText" text-anchor="middle">6. Redirect with code...</text><line x1="475" x2="75" y1="321" y2="321" fill="none" stroke="#000" stroke-width="2" marker-end="url(#arrowhead)" class="messageLine0"/></g><g><text x="175" y="349" class="messageText" text-anchor="middle">7. ...to App with code</text><line x1="75" x2="275" y1="356" y2="356" fill="none" stroke="#000" stroke-width="2" marker-end="url(#arrowhead)" class="messageLine0"/></g><g><text x="375" y="384" class="messageText" text-anchor="middle">8. Request Token</text><line x1="275" x2="475" y1="391" y2="391" fill="none" stroke="#000" stroke-width="2" marker-end="url(#arrowhead)" class="messageLine0"/></g><g><rect width="250" height="52" x="250" y="401" fill="#EDF2AE" stroke="#666" class="note" rx="0" ry="0"/><text x="246" y="425" class="noteText"><tspan x="266">request includes:</tspan></text><text x="246" y="441" class="noteText"><tspan x="266">Client ID, Client Secret &amp; code</tspan></text></g><g><rect width="150" height="84" x="500" y="463" fill="#EDF2AE" stroke="#666" class="note" rx="0" ry="0"/><text x="496" y="487" class="noteText"><tspan x="516">validate:</tspan></text><text x="496" y="503" class="noteText"><tspan x="516">- Client ID</tspan></text><text x="496" y="519" class="noteText"><tspan x="516">- Client Secret</tspan></text><text x="496" y="535" class="noteText"><tspan x="516">- code</tspan></text></g><g><text x="375" y="575" class="messageText" text-anchor="middle">9. Return Token</text><line x1="475" x2="275" y1="582" y2="582" fill="none" stroke="#000" stroke-width="2" marker-end="url(#arrowhead)" class="messageLine0"/></g><g><text x="475" y="610" class="messageText" text-anchor="middle">10. API Request with Token</text><line x1="275" x2="675" y1="617" y2="617" fill="none" stroke="#000" stroke-width="2" marker-end="url(#arrowhead)" class="messageLine0"/></g><g><rect width="150" height="36" x="700" y="627" fill="#EDF2AE" stroke="#666" class="note" rx="0" ry="0"/><text x="696" y="651" class="noteText"><tspan x="716">validate Token</tspan></text></g><g><text x="475" y="691" class="messageText" text-anchor="middle">11. API Response</text><line x1="675" x2="275" y1="698" y2="698" fill="none" stroke="#000" stroke-width="2" marker-end="url(#arrowhead)" class="messageLine0"/></g><g><rect width="150" height="65" x="0" y="718" fill="#eaeaea" stroke="#666" class="actor" rx="3" ry="3"/><text x="75" y="750.5" alignment-baseline="central" class="actor" dominant-baseline="central" font-family="Open-Sans, sans-serif" font-size="14" text-anchor="middle"><tspan x="75" dy="-7">Resource Owner</tspan></text><text x="75" y="750.5" alignment-baseline="central" class="actor" dominant-baseline="central" font-family="Open-Sans, sans-serif" font-size="14" text-anchor="middle"><tspan x="75" dy="7">(browser)</tspan></text></g><g><rect width="150" height="65" x="200" y="718" fill="#eaeaea" stroke="#666" class="actor" rx="3" ry="3"/><text x="275" y="750.5" alignment-baseline="central" class="actor" dominant-baseline="central" font-family="Open-Sans, sans-serif" font-size="14" text-anchor="middle"><tspan x="275" dy="-7">Client App</tspan></text><text x="275" y="750.5" alignment-baseline="central" class="actor" dominant-baseline="central" font-family="Open-Sans, sans-serif" font-size="14" text-anchor="middle"><tspan x="275" dy="7">(yelp.com)</tspan></text></g><g><rect width="150" height="65" x="400" y="718" fill="#eaeaea" stroke="#666" class="actor" rx="3" ry="3"/><text x="475" y="750.5" alignment-baseline="central" class="actor" dominant-baseline="central" font-family="Open-Sans, sans-serif" font-size="14" text-anchor="middle"><tspan x="475" dy="-7">Authorization Server</tspan></text><text x="475" y="750.5" alignment-baseline="central" class="actor" dominant-baseline="central" font-family="Open-Sans, sans-serif" font-size="14" text-anchor="middle"><tspan x="475" dy="7">(Google)</tspan></text></g><g><rect width="150" height="65" x="600" y="718" fill="#eaeaea" stroke="#666" class="actor" rx="3" ry="3"/><text x="675" y="750.5" alignment-baseline="central" class="actor" dominant-baseline="central" font-family="Open-Sans, sans-serif" font-size="14" text-anchor="middle"><tspan x="675" dy="-7">Resource Server</tspan></text><text x="675" y="750.5" alignment-baseline="central" class="actor" dominant-baseline="central" font-family="Open-Sans, sans-serif" font-size="14" text-anchor="middle"><tspan x="675" dy="7">(Contacts API)</tspan></text></g></svg>