<svg xmlns="http://www.w3.org/2000/svg" style="max-width:785px" id="mermaid-1566356123471" width="100%" height="100%" viewBox="-85 -10 785 563"><style>#mermaid-1566356123471 .actor{stroke:#ccf;fill:#ececff}#mermaid-1566356123471 text.actor{fill:#000;stroke:none}#mermaid-1566356123471 .actor-line{stroke:gray}#mermaid-1566356123471 .messageLine0{stroke-width:1.5;stroke-dasharray:&apos;2 2&apos;;stroke:#333}#mermaid-1566356123471 #arrowhead,#mermaid-1566356123471 #sequencenumber{fill:#333}#mermaid-1566356123471 #crosshead path{fill:#333!important;stroke:#333!important}#mermaid-1566356123471 .messageText{fill:#333;stroke:none}#mermaid-1566356123471 .labelBox{stroke:#ccf;fill:#ececff}#mermaid-1566356123471 .labelText,#mermaid-1566356123471 .loopText{fill:#000;stroke:none}#mermaid-1566356123471 .loopLine{stroke-width:2;stroke-dasharray:&apos;2 2&apos;;stroke:#ccf}#mermaid-1566356123471 .note{stroke:#aa3;fill:#fff5ad}#mermaid-1566356123471 .noteText{fill:#000;stroke:none;font-family:&apos;trebuchet ms&apos;,verdana,arial;font-size:14px}#mermaid-1566356123471 polygon,#mermaid-1566356123471 text.labelText{display:none}</style><style>#mermaid-1566356123471{color:rgba(0,0,0,.65)}</style><g><line id="actor363" x1="75" x2="75" y1="5" y2="552" stroke="#999" stroke-width=".5" class="actor-line"/><rect width="150" height="65" x="0" y="0" fill="#eaeaea" stroke="#666" class="actor" rx="3" ry="3"/><text x="75" y="32.5" alignment-baseline="central" class="actor" dominant-baseline="central" font-family="Open-Sans, sans-serif" font-size="14" text-anchor="middle"><tspan x="75" dy="-7">Client App</tspan></text><text x="75" y="32.5" alignment-baseline="central" class="actor" dominant-baseline="central" font-family="Open-Sans, sans-serif" font-size="14" text-anchor="middle"><tspan x="75" dy="7">(SPA in Browser)</tspan></text></g><g><line id="actor364" x1="275" x2="275" y1="5" y2="552" stroke="#999" stroke-width=".5" class="actor-line"/><rect width="150" height="65" x="200" y="0" fill="#eaeaea" stroke="#666" class="actor" rx="3" ry="3"/><text x="275" y="32.5" alignment-baseline="central" class="actor" dominant-baseline="central" font-family="Open-Sans, sans-serif" font-size="14" text-anchor="middle"><tspan x="275" dy="-7">Authorization Server</tspan></text><text x="275" y="32.5" alignment-baseline="central" class="actor" dominant-baseline="central" font-family="Open-Sans, sans-serif" font-size="14" text-anchor="middle"><tspan x="275" dy="7">(Google)</tspan></text></g><g><line id="actor365" x1="475" x2="475" y1="5" y2="552" stroke="#999" stroke-width=".5" class="actor-line"/><rect width="150" height="65" x="400" y="0" fill="#eaeaea" stroke="#666" class="actor" rx="3" ry="3"/><text x="475" y="32.5" alignment-baseline="central" class="actor" dominant-baseline="central" font-family="Open-Sans, sans-serif" font-size="14" text-anchor="middle"><tspan x="475" dy="-7">Resource Server</tspan></text><text x="475" y="32.5" alignment-baseline="central" class="actor" dominant-baseline="central" font-family="Open-Sans, sans-serif" font-size="14" text-anchor="middle"><tspan x="475" dy="7">(Contacts API)</tspan></text></g><defs><marker id="arrowhead" markerHeight="4" markerWidth="6" orient="auto" refX="5" refY="2"><path d="M 0,0 V 4 L6,2 Z"/></marker></defs><defs><marker id="crosshead" markerHeight="8" markerWidth="15" orient="auto" refX="16" refY="4"><path fill="#000" stroke="#000" stroke-dasharray="0 0" stroke-width="1" d="M 9,2 V 6 L16,4 Z"/><path fill="none" stroke="#000" stroke-dasharray="0 0" stroke-width="1" d="M 0,1 L 6,7 M 6,1 L 0,7"/></marker></defs><defs><marker id="sequencenumber" markerHeight="40" markerWidth="60" orient="auto" refX="15" refY="15"><circle cx="15" cy="15" r="6"/></marker></defs><g><text x="75" y="118" class="messageText" text-anchor="middle">2. Redirect...</text><path fill="none" stroke="#000" stroke-width="2" marker-end="url(#arrowhead)" d="M 75,125 C 135,115 135,155 75,145" class="messageLine0"/></g><g><line x1="-35" x2="185" y1="75" y2="75" class="loopLine"/><line x1="185" x2="185" y1="75" y2="165" class="loopLine"/><line x1="-35" x2="185" y1="165" y2="165" class="loopLine"/><line x1="-35" x2="-35" y1="75" y2="165" class="loopLine"/><polygon points="-35 75 15 75 15 88 6.6 95 -35 95" class="labelBox"/><text x="-27.5" y="90" class="labelText"><tspan x="-27.5">loop</tspan></text><text x="75" y="90" class="loopText" text-anchor="middle"><tspan x="75">[ 1. Login w/Google ]</tspan></text></g><g><text x="175" y="193" class="messageText" text-anchor="middle">3. ...to Google Login</text><line x1="75" x2="275" y1="200" y2="200" fill="none" stroke="#000" stroke-width="2" marker-end="url(#arrowhead)" class="messageLine0"/></g><g><text x="175" y="228" class="messageText" text-anchor="middle">4. Returns Login Form</text><line x1="275" x2="75" y1="235" y2="235" fill="none" stroke="#000" stroke-width="2" marker-end="url(#arrowhead)" class="messageLine0"/></g><g><text x="175" y="263" class="messageText" text-anchor="middle">5. Submits Credentials</text><line x1="75" x2="275" y1="270" y2="270" fill="none" stroke="#000" stroke-width="2" marker-end="url(#arrowhead)" class="messageLine0"/></g><g><rect width="150" height="36" x="300" y="280" fill="#EDF2AE" stroke="#666" class="note" rx="0" ry="0"/><text x="296" y="304" class="noteText"><tspan x="316">authenticate user</tspan></text></g><g><text x="175" y="344" class="messageText" text-anchor="middle">6. Respond with TOKENS</text><line x1="275" x2="75" y1="351" y2="351" fill="none" stroke="#000" stroke-width="2" marker-end="url(#arrowhead)" class="messageLine0"/></g><g><text x="275" y="379" class="messageText" text-anchor="middle">7. API Request with Token</text><line x1="75" x2="475" y1="386" y2="386" fill="none" stroke="#000" stroke-width="2" marker-end="url(#arrowhead)" class="messageLine0"/></g><g><rect width="150" height="36" x="500" y="396" fill="#EDF2AE" stroke="#666" class="note" rx="0" ry="0"/><text x="496" y="420" class="noteText"><tspan x="516">validate Token</tspan></text></g><g><text x="275" y="460" class="messageText" text-anchor="middle">8. API Response</text><line x1="475" x2="75" y1="467" y2="467" fill="none" stroke="#000" stroke-width="2" marker-end="url(#arrowhead)" class="messageLine0"/></g><g><rect width="150" height="65" x="0" y="487" fill="#eaeaea" stroke="#666" class="actor" rx="3" ry="3"/><text x="75" y="519.5" alignment-baseline="central" class="actor" dominant-baseline="central" font-family="Open-Sans, sans-serif" font-size="14" text-anchor="middle"><tspan x="75" dy="-7">Client App</tspan></text><text x="75" y="519.5" alignment-baseline="central" class="actor" dominant-baseline="central" font-family="Open-Sans, sans-serif" font-size="14" text-anchor="middle"><tspan x="75" dy="7">(SPA in Browser)</tspan></text></g><g><rect width="150" height="65" x="200" y="487" fill="#eaeaea" stroke="#666" class="actor" rx="3" ry="3"/><text x="275" y="519.5" alignment-baseline="central" class="actor" dominant-baseline="central" font-family="Open-Sans, sans-serif" font-size="14" text-anchor="middle"><tspan x="275" dy="-7">Authorization Server</tspan></text><text x="275" y="519.5" alignment-baseline="central" class="actor" dominant-baseline="central" font-family="Open-Sans, sans-serif" font-size="14" text-anchor="middle"><tspan x="275" dy="7">(Google)</tspan></text></g><g><rect width="150" height="65" x="400" y="487" fill="#eaeaea" stroke="#666" class="actor" rx="3" ry="3"/><text x="475" y="519.5" alignment-baseline="central" class="actor" dominant-baseline="central" font-family="Open-Sans, sans-serif" font-size="14" text-anchor="middle"><tspan x="475" dy="-7">Resource Server</tspan></text><text x="475" y="519.5" alignment-baseline="central" class="actor" dominant-baseline="central" font-family="Open-Sans, sans-serif" font-size="14" text-anchor="middle"><tspan x="475" dy="7">(Contacts API)</tspan></text></g></svg>