<svg width="18" height="19" viewBox="0 0 18 19" fill="none" xmlns="http://www.w3.org/2000/svg">
<path d="M9 0.787109C4.0302 0.787109 0 4.69831 0 9.52136C0 14.3444 4.0302 18.2556 9 18.2556C13.9698 18.2556 18 14.3444 18 9.52136C18 4.69831 13.9698 0.787109 9 0.787109ZM14.6236 9.53029C14.6236 9.53029 14.6236 11.3016 14.3921 12.1558C14.2623 12.6233 13.8825 12.992 13.4007 13.1178C12.5206 13.3426 9 13.3426 9 13.3426C9 13.3426 5.48863 13.3426 4.59929 13.1088C4.11754 12.983 3.73769 12.6143 3.60791 12.1467C3.37624 11.3016 3.37624 9.52136 3.37624 9.52136C3.37624 9.52136 3.37624 7.75015 3.60791 6.896C3.73755 6.42847 4.12674 6.05077 4.59929 5.92496C5.47943 5.70013 9 5.70013 9 5.70013C9 5.70013 12.5206 5.70013 13.4007 5.93389C13.8825 6.0597 14.2623 6.42847 14.3921 6.896C14.633 7.75015 14.6236 9.53029 14.6236 9.53029Z" fill="#DD2864"/>
</svg>
