<svg width="13" height="13" viewBox="0 0 13 13" fill="none" xmlns="http://www.w3.org/2000/svg">
<path d="M6.5 0C2.9107 0 0 2.9107 0 6.5C0 10.0893 2.9107 13 6.5 13C10.0893 13 13 10.0893 13 6.5C13 2.9107 10.0893 0 6.5 0ZM9.46783 5.06801C9.4707 5.13198 9.47209 5.19625 9.47209 5.26082C9.47209 7.23226 7.97147 9.50562 5.2272 9.50571C4.38464 9.50571 3.60061 9.25875 2.94035 8.83554C3.05709 8.84933 3.17591 8.85617 3.29622 8.85617C3.99525 8.85617 4.63855 8.61774 5.14924 8.21754C4.49612 8.20544 3.94546 7.77409 3.75543 7.18128C3.84638 7.19874 3.93991 7.20826 4.03582 7.20826C4.172 7.20826 4.30391 7.18991 4.42928 7.15569C3.7466 7.01902 3.23235 6.4157 3.23235 5.69325C3.23235 5.68651 3.23235 5.68046 3.23254 5.67421C3.43359 5.78599 3.66349 5.85323 3.90827 5.86077C3.50767 5.59348 3.24435 5.13654 3.24435 4.61891C3.24435 4.34557 3.31824 4.08948 3.44638 3.869C4.18211 4.77175 5.28165 5.36546 6.52162 5.42784C6.49603 5.31854 6.48284 5.20468 6.48284 5.08765C6.48284 4.26404 7.15103 3.59585 7.97494 3.59585C8.4041 3.59585 8.7917 3.77725 9.06396 4.06726C9.40385 4.00021 9.72302 3.87604 10.0113 3.70515C9.89977 4.05338 9.66331 4.34557 9.35526 4.53034C9.65707 4.49424 9.94469 4.4142 10.212 4.29538C10.0123 4.59461 9.75912 4.85744 9.46783 5.06801Z" fill="#FFFFFF"/>
</svg>
