<svg width="9" height="10" viewBox="0 0 9 10" fill="none" xmlns="http://www.w3.org/2000/svg">
<path d="M8.44552 0.938965H5.46456C5.15866 0.938965 4.8217 1.26601 4.8217 1.56285C4.8217 1.85968 5.15866 2.18673 5.46456 2.18673H7.07169L4.17814 4.85741C4.07332 4.95908 4.01562 5.09425 4.01562 5.2381C4.01562 5.38195 4.07328 5.51709 4.17808 5.61867C4.28288 5.72047 4.42213 5.77649 4.57035 5.77649C4.71851 5.77649 4.85783 5.7205 4.96266 5.61877L7.71454 2.81062V4.37032C7.71454 4.66716 8.05154 4.99421 8.3574 4.99421C8.66326 4.99421 9.00024 4.66716 9.00024 4.37032V1.47732C9.00024 1.18049 8.75138 0.938965 8.44552 0.938965Z" fill="#FFFFFF"/>
<path d="M6.42858 8.42532H1.28571V3.43429H3.21428L4.49999 2.18652H0.642855C0.380263 2.18652 0 2.55556 0 2.8104V9.04921C0 9.36116 0.321428 9.6731 0.642855 9.67309L7.07144 9.6731C7.39287 9.6731 7.71429 9.36115 7.71429 9.04921L7.71426 5.30593L6.42858 6.55369V8.42532Z" fill="#FFFFFF"/>
</svg>
