<svg width="19" height="19" viewBox="0 0 19 19" fill="none" xmlns="http://www.w3.org/2000/svg">
    <path d="M9.43389 0.759363C6.90228 0.841277 4.59047 1.90878 2.92476 3.7703C0.0965621 6.92725 0.0105498 11.7459 2.72308 14.9786C5.11622 17.8295 9.12485 18.9254 12.6977 17.7061C14.1525 17.2109 15.7079 17.5373 16.7593 18.5576L17.0562 18.8458L17.3522 18.5586C18.4648 17.4789 18.4646 15.7238 17.354 14.6459L17.1222 14.421C19.5587 10.9872 19.1379 6.26827 16.082 3.30265C14.3358 1.60798 11.912 0.680171 9.43389 0.759363ZM12.6226 6.65989C14.2203 8.21045 14.2161 10.7364 12.6151 12.2902C11.0126 13.8453 8.41126 13.848 6.81352 12.2974C5.21578 10.7469 5.21854 8.22234 6.82102 6.66717C8.42206 5.11341 11.0249 5.10933 12.6226 6.65989Z" fill="#FFFFFF"/>
</svg>
