<svg width="13" height="13" viewBox="0 0 13 13" fill="none" xmlns="http://www.w3.org/2000/svg">
<path d="M5 8L8 6.5L5 5V8Z" fill="#FFFFFF"/>
<path d="M6.5 0C2.9107 0 0 2.9107 0 6.5C0 10.0893 2.9107 13 6.5 13C10.0893 13 13 10.0893 13 6.5C13 2.9107 10.0893 0 6.5 0ZM10.5615 6.50664C10.5615 6.50664 10.5615 7.82487 10.3943 8.46053C10.3006 8.80846 10.0262 9.0828 9.67829 9.17643C9.04263 9.34375 6.5 9.34375 6.5 9.34375C6.5 9.34375 3.96401 9.34375 3.32171 9.16978C2.97378 9.07616 2.69944 8.80172 2.60571 8.45379C2.43839 7.82487 2.43839 6.5 2.43839 6.5C2.43839 6.5 2.43839 5.18187 2.60571 4.54621C2.69934 4.19828 2.98042 3.9172 3.32171 3.82357C3.95737 3.65625 6.5 3.65625 6.5 3.65625C6.5 3.65625 9.04263 3.65625 9.67829 3.83022C10.0262 3.92384 10.3006 4.19828 10.3943 4.54621C10.5683 5.18187 10.5615 6.50664 10.5615 6.50664Z" fill="#FFFFFF"/>
</svg>
