<svg width="18" height="19" viewBox="0 0 18 19" fill="none" xmlns="http://www.w3.org/2000/svg">
<path d="M9 0.938965C4.0302 0.938965 0 4.85017 0 9.67323C0 14.4963 4.0302 18.4075 9 18.4075C13.9698 18.4075 18 14.4963 18 9.67323C18 4.85017 13.9698 0.938965 9 0.938965ZM13.1093 7.74902C13.1133 7.83498 13.1152 7.92134 13.1152 8.0081C13.1152 10.6572 11.0374 13.712 7.23766 13.7121C6.07104 13.7121 4.98546 13.3803 4.07126 12.8116C4.23289 12.8301 4.39742 12.8393 4.564 12.8393C5.53189 12.8393 6.42261 12.5189 7.12971 11.9811C6.2254 11.9649 5.46295 11.3853 5.19983 10.5887C5.32576 10.6122 5.45526 10.6249 5.58806 10.6249C5.77661 10.6249 5.95926 10.6003 6.13284 10.5543C5.18761 10.3707 4.47556 9.55995 4.47556 8.58918C4.47556 8.58012 4.47556 8.57199 4.47583 8.56359C4.7542 8.71379 5.07253 8.80415 5.41145 8.81428C4.85678 8.45511 4.49217 7.84111 4.49217 7.14555C4.49217 6.77825 4.59448 6.43413 4.77191 6.13786C5.79062 7.35093 7.31305 8.14871 9.02994 8.23254C8.99451 8.08567 8.97624 7.93267 8.97624 7.77541C8.97624 6.6687 9.90143 5.77083 11.0422 5.77083C11.6364 5.77083 12.1731 6.01459 12.5501 6.40428C13.0207 6.31419 13.4626 6.14733 13.8619 5.9177C13.7074 6.38562 13.38 6.77825 12.9534 7.02654C13.3713 6.97803 13.7696 6.87047 14.1397 6.71081C13.8632 7.1129 13.5126 7.46608 13.1093 7.74902Z" fill="#DD2864"/>
</svg>
