<svg width="19" height="18" viewBox="0 0 19 18" fill="none" xmlns="http://www.w3.org/2000/svg">
<path d="M17.2138 4.6088C16.3888 3.23702 15.2698 2.15098 13.8564 1.35043C12.4428 0.549849 10.8995 0.149658 9.22559 0.149658C7.55185 0.149658 6.00812 0.549971 4.59481 1.35043C3.18129 2.15094 2.0623 3.23702 1.23731 4.6088C0.412451 5.98054 0 7.47848 0 9.1026C0 11.0535 0.586511 12.8079 1.75983 14.366C2.93302 15.9243 4.4486 17.0026 6.30646 17.601C6.52272 17.64 6.68281 17.6126 6.7869 17.5195C6.89104 17.4263 6.94304 17.3096 6.94304 17.1699C6.94304 17.1466 6.94098 16.9368 6.93698 16.5404C6.93286 16.144 6.93092 15.7981 6.93092 15.503L6.65462 15.5494C6.47846 15.5807 6.25623 15.594 5.98792 15.5903C5.71974 15.5866 5.44134 15.5593 5.15309 15.5086C4.86471 15.4584 4.59649 15.3418 4.34822 15.1592C4.10006 14.9765 3.9239 14.7374 3.81977 14.4423L3.69965 14.1741C3.61958 13.9955 3.49353 13.7971 3.32132 13.5796C3.14911 13.3619 2.97496 13.2143 2.7988 13.1366L2.71469 13.0782C2.65865 13.0394 2.60665 12.9925 2.55856 12.9382C2.51051 12.8839 2.47454 12.8295 2.45051 12.775C2.42645 12.7205 2.44639 12.6758 2.51055 12.6407C2.57471 12.6056 2.69067 12.5886 2.85892 12.5886L3.09908 12.6234C3.25926 12.6546 3.45738 12.7476 3.69371 12.9032C3.92992 13.0586 4.12409 13.2606 4.27627 13.5092C4.46055 13.8279 4.68258 14.0708 4.94297 14.2379C5.20316 14.405 5.46549 14.4885 5.72971 14.4885C5.99394 14.4885 6.22215 14.469 6.41442 14.4304C6.60649 14.3915 6.78669 14.3331 6.95495 14.2554C7.02702 13.7345 7.22325 13.3343 7.54348 13.0545C7.08706 13.008 6.67671 12.9379 6.31223 12.8447C5.94795 12.7513 5.57151 12.5998 5.18317 12.3898C4.79462 12.18 4.47229 11.9196 4.2161 11.6088C3.95987 11.298 3.74959 10.8898 3.58554 10.3848C3.42141 9.87951 3.33932 9.29668 3.33932 8.6361C3.33932 7.69555 3.65572 6.89516 4.28839 6.23451C3.99202 5.52739 4.02 4.73468 4.37241 3.85648C4.60466 3.78645 4.94907 3.839 5.40549 4.0138C5.86199 4.18868 6.19623 4.33849 6.40853 4.4627C6.62084 4.58687 6.79094 4.69209 6.9191 4.77743C7.66402 4.57544 8.43275 4.47442 9.22551 4.47442C10.0183 4.47442 10.7872 4.57544 11.5321 4.77743L11.9886 4.49778C12.3007 4.31118 12.6693 4.14017 13.0935 3.98473C13.518 3.82936 13.8425 3.78657 14.0669 3.8566C14.4271 4.73484 14.4592 5.52751 14.1628 6.23463C14.7954 6.89529 15.1119 7.69587 15.1119 8.63622C15.1119 9.2968 15.0295 9.88147 14.8656 10.3906C14.7016 10.8998 14.4895 11.3076 14.2293 11.6147C13.9688 11.9218 13.6444 12.1802 13.2561 12.3899C12.8676 12.5998 12.4911 12.7513 12.1268 12.8446C11.7624 12.938 11.352 13.0081 10.8956 13.0547C11.3119 13.4043 11.5201 13.9562 11.5201 14.71V17.1696C11.5201 17.3093 11.5701 17.426 11.6703 17.5192C11.7704 17.6122 11.9285 17.6396 12.1448 17.6006C14.0029 17.0023 15.5185 15.924 16.6916 14.3657C17.8646 12.8075 18.4514 11.0532 18.4514 9.10228C18.4509 7.47836 18.0383 5.98054 17.2138 4.6088Z" fill="#DD2864"/>
</svg>
