<svg width="13" height="13" viewBox="0 0 13 13" fill="none" xmlns="http://www.w3.org/2000/svg">
<path d="M6.5 0C2.90333 0 0 2.90333 0 6.5C0 10.0967 2.90333 13 6.5 13C10.0967 13 13 10.0967 13 6.5C13 2.90333 10.0967 0 6.5 0ZM4.29 9.89444C3.72667 9.89444 3.27889 9.43222 3.27889 8.88333C3.27889 8.32 3.74111 7.85778 4.29 7.85778C4.85333 7.85778 5.31556 8.32 5.31556 8.88333C5.31556 9.43222 4.85333 9.89444 4.29 9.89444ZM7.52556 9.83667C7.20778 9.83667 6.91889 9.60556 6.87556 9.28778C6.76 8.53667 6.39889 7.85778 5.85 7.30889C5.30111 6.76 4.62222 6.41333 3.88556 6.28333C3.56778 6.22556 3.33667 5.95111 3.33667 5.63333C3.33667 5.22889 3.71222 4.91111 4.11667 4.98333C6.19667 5.33 7.84333 6.97667 8.20444 9.07111C8.26222 9.46111 7.94444 9.83667 7.52556 9.83667ZM9.50445 9.24444C9.18667 6.31222 6.87556 3.97222 3.95778 3.66889C3.62556 3.64 3.36556 3.35111 3.36556 3.00444C3.36556 2.61444 3.69778 2.29667 4.08778 2.34C7.62667 2.70111 10.4722 5.53222 10.8333 9.1C10.8767 9.49 10.5589 9.82222 10.1689 9.82222C9.82222 9.83667 9.53333 9.57667 9.50445 9.24444Z" fill="#FFFFFF"/>
</svg>
