<svg width="13" height="13" viewBox="0 0 13 13" fill="none" xmlns="http://www.w3.org/2000/svg">
<path d="M12.1281 3.31847C11.5468 2.2976 10.7584 1.48937 9.76258 0.893613C8.76662 0.29782 7.67933 0 6.49994 0C5.3207 0 4.23305 0.297911 3.2373 0.893613C2.2414 1.48934 1.453 2.2976 0.871754 3.31847C0.290594 4.33931 0 5.45408 0 6.66274C0 8.11462 0.413229 9.42019 1.23989 10.5798C2.06647 11.7395 3.13429 12.5419 4.44325 12.9872C4.59562 13.0162 4.70841 12.9958 4.78175 12.9266C4.85512 12.8572 4.89176 12.7704 4.89176 12.6664C4.89176 12.649 4.8903 12.493 4.88749 12.1979C4.88458 11.9029 4.88322 11.6455 4.88322 11.4259L4.68855 11.4604C4.56443 11.4837 4.40786 11.4936 4.21882 11.4908C4.02987 11.4881 3.83372 11.4678 3.63064 11.4301C3.42746 11.3927 3.23848 11.3059 3.06356 11.17C2.88872 11.0341 2.7646 10.8562 2.69124 10.6365L2.6066 10.4369C2.55019 10.304 2.46138 10.1563 2.34005 9.9945C2.21872 9.8325 2.09603 9.72269 1.97191 9.66486L1.91265 9.62138C1.87317 9.59248 1.83653 9.55763 1.80265 9.51718C1.76879 9.47674 1.74345 9.43626 1.72652 9.39573C1.70957 9.35516 1.72362 9.32189 1.76882 9.29578C1.81403 9.26968 1.89573 9.25701 2.01427 9.25701L2.18347 9.28293C2.29633 9.30612 2.43592 9.37537 2.60242 9.49111C2.76884 9.60676 2.90565 9.75712 3.01287 9.94211C3.14271 10.1793 3.29913 10.36 3.4826 10.4844C3.66591 10.6088 3.85074 10.6709 4.0369 10.6709C4.22306 10.6709 4.38385 10.6564 4.51932 10.6276C4.65464 10.5987 4.7816 10.5552 4.90015 10.4974C4.95092 10.1098 5.08918 9.81193 5.3148 9.60375C4.99323 9.56911 4.70411 9.51694 4.44731 9.44757C4.19066 9.3781 3.92544 9.26537 3.65183 9.10906C3.37807 8.95296 3.15098 8.75912 2.97048 8.52788C2.78995 8.29652 2.64179 7.99277 2.52621 7.61692C2.41057 7.24091 2.35274 6.80717 2.35274 6.31558C2.35274 5.61562 2.57566 5.01998 3.0214 4.52832C2.8126 4.00208 2.83231 3.41216 3.0806 2.7586C3.24423 2.70648 3.4869 2.74559 3.80847 2.87568C4.1301 3.00582 4.36559 3.11731 4.51517 3.20975C4.66475 3.30216 4.7846 3.38046 4.87489 3.44397C5.39973 3.29365 5.94134 3.21847 6.49988 3.21847C7.05842 3.21847 7.60016 3.29365 8.12502 3.44397L8.44662 3.23585C8.66655 3.09698 8.92625 2.96972 9.22512 2.85404C9.52416 2.73842 9.75283 2.70658 9.91089 2.75869C10.1647 3.41228 10.1873 4.00217 9.97845 4.52841C10.4242 5.02007 10.6472 5.61586 10.6472 6.31567C10.6472 6.80726 10.5891 7.24237 10.4737 7.62126C10.3581 8.00022 10.2086 8.30366 10.0253 8.53223C9.84179 8.76077 9.61324 8.95308 9.33963 9.10915C9.06596 9.26534 8.80066 9.37807 8.544 9.44754C8.28723 9.517 7.99812 9.5692 7.67655 9.6039C7.96984 9.86408 8.11651 10.2748 8.11651 10.8358V12.6662C8.11651 12.7701 8.15179 12.857 8.2224 12.9263C8.29292 12.9956 8.40429 13.016 8.55666 12.9869C9.8658 12.5417 10.9336 11.7392 11.7602 10.5795C12.5866 9.41994 13 8.11438 13 6.6625C12.9997 5.45399 12.709 4.33931 12.1281 3.31847Z" fill="#FFFFFF"/>
</svg>
